<?xml version="1.0" encoding="UTF-8"?>
<svg version="1.1" viewBox="0 0 1200 1184" width="300" height="296" xmlns="http://www.w3.org/2000/svg">
<path transform="translate(0)" d="m0 0h1200v1184h-1200z" fill="#eee"/>
<path transform="translate(911,180)" d="m0 0h13l6 4 5 6 1 3 1 39 1 77v30l-3 8-7 8-8 4h-13l-11-2-11-1-10-5-5 2-7 7-8 7-7 8-4 6-1 5 4-2 6-6h2v-2l16-14 5 3 13 9 15 6h23l7 16 5 14 5 19 6 23 4 21 3 25v13h-66l-22-1-4-28-6-26-6-16-11-25-8-17-7 6-11 12-13 12-17 16-9 9-7 8-16 17-7 9-24 26-12 12-8 7-8 8-8 7-9 9-7 8-9 10-8 7-10 11-10 14-8 9-8 10-9 9-4 8 5-2h8l6 4 4 5 2 22v79l-1 56-1 1-21 2h-43l-13-2-1-8 1-144-11-3-24-7-19-4h-10l-12 11-8 7-17 16-7 7-9 11-11 9-11 10-11 9-2 2-4-1-7-8-8-9-6-11v-4l6-3 7-7 8-7 83-83 10 1 61 15 11 2h13l11-9 57-57 7-8 27-27 7-8 34-34 7-8 8-8 5-6 7-6 7-8 23-23 6-7 4-5 5-5 4-5 5-5 7-8 8-7 23-23 4-5h2v-2l7-6 7-8 10-10 4 1 20 12 18 13 9 5 4 2-1-28-2-105-1-9-1-1h-9l-26 8-37 13-21 8-11 5-22 8-7 4h-2l-1 7 5 5 14 9 19 12 6 4-1 5-11 10h-3l-5-5-28-19-7-6-4-6-1-3v-13l4-11 7-6 14-6 31-11 26-9 52-19z" fill="#AFE5F2"/>
<path transform="translate(906,199)" d="m0 0h9l2 2 1 9 2 105v28l-7-2-13-9-14-10-17-10-4-1-15 15-3 4h-2l-2 4h-2v2l-40 40-7 8h-2l-2 4-5 6-5 5-9 10-26 26-7 8h-2l-2 4h-2l-2 4-12 12-7 8-5 5h-2l-2 4-25 25-7 8-27 27-7 8-54 54-9 7h-13l-24-5-48-12-10-1h-2l-2 4-85 85-8 7-4 3h-3l-1 2-12-21-10-15-3-5 1-4 10-9 62-62 2-3h2l2-4 32-32 9-6 8-3 13 1 25 8 39 10 6 2h6l20-20 7-8 7-7 7-8 8-8 7-6 22-22 14-16 14-14 7-8 16-16 7-8 16-16 2-3h2l2-4 15-15 7-8 16-17 7-7 7-8 9-9 7-8 7-7 8-7 2-3v2l5-3 9-8 1-4-4-2-15-9-22-14-4-5 1-5 4-4 6-3 22-8 11-5 38-14 35-12z" fill="#12D7F6"/>
<path transform="translate(873,534)" d="m0 0 16 1h69v32l-4 36-6 27-8 28-10 25-11 24-12 22-18 27-11 14-12 14-9 9-1 2h-2l-2 4-7 7-8 7-14 12-20 15-22 14-19 11-17 9-21 9-24 9-23 7-26 6-19 3-26 2h-8l-1-1 1-76 1-1 28-3 27-5 26-7 21-8 25-12 21-13 17-12 15-13 13-12 13-13 7-8 8-9 11-15 10-15 11-20 11-26 4-14 2-18 1-44 2-30z" fill="#0388D6"/>
<path transform="translate(224,535)" d="m0 0h89l3 40 1 10v21l-2 11v13l5 15 17 36 12 21 10 14 11 13 11 14 10 10 11 9 14 12 13 9 18 11 23 12 27 11 24 7 25 5 25 3 1 1 1 57 1 2-1 19-26-3-28-5-28-7-30-11-26-11-22-11-20-12-16-11-13-10-16-13-10-9-18-18-18-22-10-13-11-18-12-19-14-27-11-27-10-30-6-29-4-39-1-30z" fill="#039BDE"/>
<path transform="translate(562,165)" d="m0 0h12v10l-1 7-35 4-27 5-25 7-24 8-23 10-25 13-16 10-17 12-14 11-11 10-8 7-13 13-9 11-10 13-14 20-11 19-15 29-8 19-11 33-5 21 5-11 4-10 7-21 10-24 11-21 9-14 11-17 11-16 12-14 9-11 7-7 4-5 8-7 12-11 20-15 19-12 25-14 17-9 15-6 30-10 22-5 32-6 13-2h7l1 53-5 9-5 5-11 2-25 4-26 7-20 8-18 8-27 16-16 12-14 12-12 11-7 8-10 12-11 15-13 21-12 23-9 24-8 27-5 21-3 24-1 1h-69l-22-1 1-13 6-36 6-25 8-26 13-32 8-17 14-24 9-15 12-17 10-13 8-10 8-9h2l1-3 8-7 12-11 14-11 18-13 19-12 18-10 22-11 27-11 29-9 28-6 26-4z" fill="#12D6F6"/>
<path transform="translate(717,394)" d="m0 0 1 2-2 3h-2l-2 4-7 8-2 4-5 5-3 5-5 5-6 7-5 6h-2l-2 4-7 11-3 9h-2l-1 5-7 10-3 5v2l2 1-1 2h5l2-3 11-2 4-1h3 3v3h-2l-3 9-2 3h-2l-2 5-1 2 4 2-30 30-7 8-54 54-9 7h-13l-24-5-48-12-10-1h-2l-2 4-85 85-8 7-4 3h-3l-1 2-12-21-10-15-3-5 1-4 10-9 62-62 2-3h2l2-4 32-32 9-6 8-3 13 1 25 8 39 10 6 2h6l20-20 7-8 7-7 7-8 8-8 7-6 22-22 14-16 14-14 7-8 16-16 7-8 13-13z" fill="#06C0F1"/>
<path transform="translate(911,180)" d="m0 0h13l6 4 5 6 1 3 1 39 1 77v30l-3 8-7 8-8 4h-13l-11-7-12-10-14-10-4 2-28 28-7 8-14 15-7 8-9 9-7 8-25 25-7 8-10 10-7 8-30 32-14 14-7 8-70 70-7 8-28 28-10 7-2 1h-9l-34-7-47-11h-4l-7 8-12 11-76 76-2 3-4-2-7-10-1-7 6-3 7-7 8-7 83-83 10 1 61 15 11 2h13l11-9 57-57 7-8 27-27 7-8 34-34 7-8 8-8 5-6 7-6 7-8 23-23 6-7 4-5 5-5 4-5 5-5 7-8 8-7 23-23 4-5h2v-2l7-6 7-8 10-10 4 1 20 12 18 13 9 5 4 2-1-28-2-105-1-9-1-1h-9l-26 8-37 13-21 8-11 5-22 8-7 4h-2l-1 7 5 5 14 9 19 12 6 4-1 5-11 10h-3l-5-5-28-19-7-6-4-6-1-3v-13l4-11 7-6 14-6 31-11 26-9 52-19z" fill="#051C2B"/>
<path transform="translate(802,448)" d="m0 0h11l9 2 10 5 7 8 4 9 1 11 1 44v87l-4 16-6 16-13 25-10 16-12 16-14 18-9 10-9 9-3 1v-213l1-38 1-14 3-7 8-8 13-9 6-3z" fill="#66DC17"/>
<path transform="translate(295,535)" d="m0 0h18l3 40 1 10v21l-2 11v13l5 15 17 36 12 21 10 14 11 13 5 6 1 7h2v2h2v3l4 2v2l4 2v2l4 1v2h2v2h3v2h2l6 6 3 1v3l4 2 4 3v2h2l2 5 8 13 1 4-3 1-4-1-16-1-25-6-18-4-3 1h-7l-3-2v-2l-10-5-4-3v-2l-5-2-7-7-10-13-11-15-13-21-12-22-8-16-10-25-8-27-6-26-4-29v-37l1-1z" fill="#05C0F1"/>
<path transform="translate(692,553)" d="m0 0h18l11 4 8 7 5 6 2 5 1 79v51l-1 57-3 3-15 9-18 10-24 10-12 4h-5l-1-68 1-148 3-6h2l2-4 7-7 14-10z" fill="#66DC17"/>
<path transform="translate(871,362)" d="m0 0 5 3 13 9 15 6h23l7 16 5 14 5 19 6 23 4 21 3 25v13h-66l-22-1-4-28-6-26-6-16-11-25-8-18 8-9 8-7 3-3h2v-2l8-7z" fill="#04ADEA"/>
<path transform="translate(610,640)" d="m0 0h8l6 4 4 5 2 22v79l-1 56-1 1-21 2h-43l-13-2-1-8 1-141 2-1 19 1 14-4 11-6 11-7z" fill="#66DC17"/>
<path transform="translate(532,976)" d="m0 0h107l40 1 46 2 80 2 43 2 6 2-1 7-8 3-8 1-97 4-91 3-39 1h-39l-49-1-140-6-53-2-7-1-2-3 1-5 4-2 16-1 47-2 73-2 30-2z" fill="#049CDF"/>
<path transform="translate(598,186)" d="m0 0 5 2 39 7 20 4 25 7 34 12 24 12-2 6-2 5-1 6v12l4 12 6 10 9 9 10 7 1 4-13 14-1 2-5-1-9-8-17-11-17-10-21-10-21-8-21-6-25-4-12-2-5-4-4-9-1-21z" fill="#12D7F6"/>
<path transform="translate(579,270)" d="m0 0h7l5 3 3 5v39l17 3 21 7 19 10 14 10 10 9 11 13 7 10-1 5-8 7-3 3-4-2-9-13-13-14-15-11-16-8-15-5-14-3-1 26-4 5-4 2-8-1-5-5-1-2-1-25-9 1-18 5-21 11-12 9-10 9-8 10-7 12-6 15-3 13v7l24 1 6 2 4 9-4 6-5 3-3 1h-21l-3-1 3 19 7 21 7 17-2 1-2-1h-16l-7-14-5-15-2-9-1-18-33 1h-19l-4-4-2-4 1-8 4-5 16-1h35l6-25 6-15 6-12 9-13 13-14 14-11 18-11 14-6 19-5 11-2 1-2v-37l5-7z" fill="#051C2C"/>
<path transform="translate(940,535)" d="m0 0h18v32l-4 36-6 27-8 28-10 25-11 24-12 22-18 27-11 14-12 14-9 9-1 2h-2l-2 4-7 7-8 7-14 12-20 15-22 14-19 11-17 9-21 9-24 9-23 7-26 6-19 3-26 2h-8l-1-1v-16l1-2h11l29-4 22-4 31-8 26-9 18-8 19-10 14-8 21-13 16-12 13-10 9-9 8-7 16-16 7-8 8-10 8-11 11-16 9-15 12-23 11-25 9-26 8-35 4-24z" fill="#061C2D"/>
<path transform="translate(224,535)" d="m0 0h19v39l4 29 8 34 10 30 10 23 12 22 13 22 10 14 12 16 10 11 7 8 19 19 14 11 16 12 14 9 14 8 23 12 27 12 19 7 21 6 39 8 18 3 10 1 1 1-1 19-26-3-28-5-28-7-30-11-26-11-22-11-20-12-16-11-13-10-16-13-10-9-18-18-18-22-10-13-11-18-12-19-14-27-11-27-10-30-6-29-4-39-1-30z" fill="#051A2B"/>
<path transform="translate(279,146)" d="m0 0 3 1 1 8 18 6 11 7 8 7 7 10 5 10 2 10v11l-3 14-7 13-10 11-10 7-13 4-10 1v11l-2-4-1-6-13-3-12-4-11-8-10-13-5-12-2-11v-10l3-14 6-12 11-12 11-7 14-5 6-1 1-7z" fill="#EAEEEE"/>
<path transform="translate(929,753)" d="m0 0h11l1 1v15l16 5 11 7 9 8 6 9 4 12v2l12-1 4 4v9l-2 2-14 1-5 15-6 9-9 8-14 7-11 3-1 14h-13l-1-15-16-4-11-6-7-7-5-8-5-15v-2l-5 1h-7l-3-2-1-11 2-3 13-1 4-10 6-10 9-10 10-6 16-4v-16z" fill="#061C2D"/>
<path transform="translate(562,165)" d="m0 0h12v10l-1 7-35 4-27 5-25 7-24 8-23 10-25 13-16 10-17 12-14 11-11 10-8 7-13 13-9 11-10 13-14 20-11 19-15 29-8 19-11 33-7 27-2 9-1 9-3 13-2 17h-18l1-13 6-36 6-25 8-26 13-32 8-17 14-24 9-15 12-17 10-13 8-10 8-9h2l1-3 8-7 12-11 14-11 18-13 19-12 18-10 22-11 27-11 29-9 28-6 26-4z" fill="#061D2E"/>
<path transform="translate(842,537)" d="m0 0 2 4 1 39v34l-4 16-6 16-13 25-10 16-12 16-14 18-9 10-9 9-3 1v-64l3-3 11-8 2-6-1-6-4-1-2-1-1-5-6-2-1-16 1-8 16-8 17-12 10-8 9-10 15-27 6-12z" fill="#049A3D"/>
<path transform="translate(928,626)" d="m0 0h1l-1 8-5 17-8 21-11 24-11 21-9 14-12 17-7 9-8 10-14 15-14 14-8 7-9 8-16 12-15 10-20 12-12 7-23 11-20 8-26 8-29 7-33 5-9 1h-9l-2-1v-58l1-1h6l-1 3-2 1-1 4 4 16 3 22 14-1 23-5 12-3 4-5h2v-2l9-5v-3l5-2h9l21-5 9-3 10-6 3-2 3-6 8-8 7-8 14-8 8-3 4 1 6 5 6-2 15-8 5-6h2l2-4 10-9 4-2v-2h2l1-3 5-3 6-7 3-3 3-5 7-9h3v-2l7-3 2-3h2l2-4 4-7h2l2-5 6-8 4 2v5l3-5h2l2-13 2-3 3-16 7-12 4-9 6-2 4-2-2-1v-2h2l1-4 4-9 4-13z" fill="#0380C1"/>
<path transform="translate(480,686)" d="m0 0h9l16 3 8 5 7 9 2 5v92l-6-1-29-10-25-12-11-6-6-4-2-4v-46l2-10 6-9 7-6 9-4z" fill="#65DB17"/>
<path transform="translate(734,620)" d="m0 0h1l2 17v68l-1 57-3 3-15 9-18 10-24 10-12 4h-5l-1-68 5-4 16-12 12-11 9-10 9-13 11-18 11-22z" fill="#059A3D"/>
<path transform="translate(562,238)" d="m0 0h11l-1 6-5 8-4 4-11 2-25 4-26 7-20 8-18 8-27 16-16 12-14 12-12 11-7 8-10 12-11 15-13 21-12 23-9 24-8 27-5 21-3 24-1 1h-16v-11l6-31 6-23 8-24h2l1-8 5-12 12-22 8-14 10-15 7-10h2l2-5h2l2-5 15-15 7-6h2l2-4 7-6 6-3 5-5 5-2v-2l7-4h2v-2l6-1v-2l5-1v-2l6-3h3v-2l16-8 19-8 18-6h2v-2l14-3 24-5z" fill="#051C2C"/>
<path transform="translate(728,452)" d="m0 0v3l-3 5-8 7-11 11v5l-4 4-2 1-2 7h-2l-1 4h-3l-2 7-2 3h-2l-1 4h-2v2h-3l-1 4h-3v2l-4 1v6l-4 4h-2v2l-6 3h-2v2l-6 3-3 1-2 4-6 6h-2l-2 4h-2v3l-7 4-4 2-1 5-3 6h-2l-2 9-2 2-3 7-6 4-1 2 2 1-2 4-15 15-10 7-2 1h-9l-34-7-47-11h-4l-7 8-12 11-76 76-2 3-4-2-7-10-1-7 6-3 7-7 8-7 83-83 10 1 61 15 11 2h13l11-9 57-57 7-8 27-27 7-8 34-34 7-8z" fill="#051B2C"/>
<path transform="translate(577,396)" d="m0 0h10l14 3 10 6 8 8 5 8 3 9v19l-6 12-8 10-7 7-10 6-12 3h-8l-12-3-10-6-7-7-7-12-2-7-1-13 2-11 4-9 6-9 8-7 10-5z" fill="#061C2D"/>
<path transform="translate(628,696)" d="m0 0 2 3v51l-1 56-1 1-21 2h-43l-13-2-1-8 2-33 12-7 17-12 10-8 15-13 10-10 7-8 3-5z" fill="#04993D"/>
<path transform="translate(871,362)" d="m0 0 5 3 13 9 15 6h23l7 16 5 14 5 19 6 23 4 21 3 25v13h-17l-4-30-7-34-4-14-7-20-4-9-3-2-2-5-1-4h-2l-4-6-8-6-8-1-6 4-13 1-1 2h-2l-2 5-2 4h-2v8l12 32 5 15 6 24 5 26v9h-17l-4-28-6-26-6-16-11-25-8-18 8-9 8-7 3-3h2v-2l8-7z" fill="#08283B"/>
<path transform="translate(916,208)" d="m0 0 2 2 2 105v28l-7-2-13-9-14-10-17-10-4-1-15 15-3 4h-2l-2 4-2-4 2-3h2v-5l3-7 4-14 1-5v-9l3-7 4-6h2l2-4 3-3 3-5 11-14 8-10 8-9 11-14 5-5h2z" fill="#05C0F1"/>
<path transform="translate(279,146)" d="m0 0 3 1 1 8 18 6 11 7 8 7 7 10 5 10 2 10v11l-3 14-7 13-10 11-10 7-13 4-10 1v11l-2-4-1-6-13-3-12-4-11-8-10-13-5-12-2-11v-10l3-14 6-12 11-12 11-7 14-5 6-1 1-7zm-7 25-11 4-10 7-7 8-4 10-1 6v8l3 14 6 9 5 6 8 5 10 3h16l11-3 8-6 7-8 4-9 2-10v-9l-2-11-6-9-9-8-11-6-5-1z" fill="#07C2F1"/>
<path transform="translate(923,783)" d="m0 0h3l3 4 10 2 2-4h7l10 5 8 8 4 8v23l-4 9-6 8-12 6-8 1-3-4-6-1-2 5-9-1-11-7-7-9-3-6-1-5v-12l2-8 6-9 9-9z" fill="#E9EEEE"/>
<path transform="translate(909,183)" d="m0 0h7l5 6-3 8h-2l1 4-2-1h-9l-26 8-37 13-21 8-11 5-22 8-7 4h-2l-1 7 5 5 14 9 19 12 6 4-1 5-11 10h-3l-5-5-28-19-7-6-4-6-1-3v-13l4-11 7-6 14-6 31-11 26-9 49-18 7 1z" fill="#185671"/>
<path transform="translate(476,528)" d="m0 0h7l-1 2 15 5 29 7 3 2 13 3 2 1 13 2 1 5 4 3v4h-2v2l-2 1h-13l-7 1h-7l-9-1-18 5-11-1h-9l-5-1-1-2h-8l-9 5-7 3-3 3-13 4h-6l4-9 11-15-1-1-4 1-5 5-2-1 24-24 9-6z" fill="#12D7F6"/>
<path transform="translate(838,634)" d="m0 0 1 2-7 16-10 19-10 16-12 16-14 18-9 10-9 9-3 1v-60l1-3 9-5 13-12 8-9 8-11 5-5 5 1 1 4 5 1 2 3v7l8-7 4-5h2z" fill="#015D49"/>
<path transform="translate(600,236)" d="m0 0 12 2 25 3 28 7 25 9 23 11 16 9 18 13 16 12 4 2-10 11-1 2-5-1-9-8-17-11-17-10-21-10-21-8-21-6-25-4-12-2-5-4-4-9v-7z" fill="#051C2C"/>
<path transform="translate(350,707)" d="m0 0 4 2 10 13 11 13 1 7h2v2h2v3l4 2v2l4 2v2l4 1v2h2v2h3v2h2l6 6 3 1v3l4 2 4 3v2h2l2 5 8 13 1 4-3 1-4-1-16-1-25-6-18-4-3 1h-7l-3-2v-2l-10-5-4-3v-2l-5-2-7-7-10-13-9-12 3-1v2l4 2 4 4 4 5 3 1v2h6l2-5 6 1 4 4 8 1 5-2 4 1v2h14l4 1 6-3-3-8-6-8v-2h-2l-3-5v-2h-2l-1-4h-2l-1-4h-2l-2-6h-2l-4-8z" fill="#03ACEA"/>
<path transform="translate(430,785)" d="m0 0 5 2 21 12 23 11 24 9 23 6 20 4 25 3 1 1 1 58h-10l-39-7-29-7-24-8-21-9-2-2h7l8 3 15-1 7 1 23-1 1-1 15-1 4-2h16l3 1v2l9 2 6-5 3-7 1-10-11-2h-8l-16-3-9-2-6-3-10-4-8-3-1-2-9-2-6-3-13-5-5-3-3-3-11-5-7-3-6-4v-2l-3 1-4-5z" fill="#0387D5"/>
<path transform="translate(735,707)" d="m0 0h1v55l-3 3-15 9-18 10-24 10-12 4h-5v-29l3-3 12-5 12-9 13-10 16-13 11-9 8-8z" fill="#015D48"/>
<path transform="translate(388,981)" d="m0 0h30l66 1 41 2 7 3-1 2-9 3-14 4-11 3 1 1 8 1v1h-13l-83-4-81-3-7-1-2-3 1-5 4-2 16-1z" fill="#13D8F7"/>
<path transform="translate(286,348)" d="m0 0h5l-2 5v6l-12 23-9 21-11 33-7 27-2 9-1 9-3 13-2 17h-18l1-13 6-36 6-25 8-26 13-32 5-9 4-3 4-7h2v-2h2v-2l6-1 2-5z" fill="#051C2C"/>
<path transform="translate(430,283)" d="m0 0h2v4l-4 3h-3v2h-3l-2 4-4 4-5 3h-2v3h-2l-1 5-7 3-2 4-4 4-8 3-3 4-4 7-4 4-5 12-2 4-4 4h-2l-2 7-6 5-1 1 1 3-3 1-2 5h-1l-2 7-2 5-3 12 1-1v-2h3l1-3 2 1-2 6-8 18-9 27-8 30-4 29-1 1h-16v-11l6-31 6-23 8-24h2l1-8 5-12 12-22 8-14 10-15 7-10h2l2-5h2l2-5 15-15 7-6h2l2-4 7-6 6-3 5-5 5-2v-2l7-4h2z" fill="#092C3F"/>
<path transform="translate(597,164)" d="m0 0 19 1 29 4 33 7 24 7 25 10 25 12 10 6-6 7-5 5-6-1-16-8-20-9-37-12-22-5-40-5-12-1-1-1z" fill="#061E2F"/>
<path transform="translate(873,534)" d="m0 0 16 1h51l1 5-2 40-1 7h-1l-1-6 1-4-7-8-8-8-11-8-4-1-1 4h-2l-2 5-5 7h-2l-2 5-4 4h-2l-3 10-4 16-4 11-2 9-2 5-2 10-8 16-4 1 8-24 2-11 1-11 1-44 2-30z" fill="#0380C1"/>
<path transform="translate(911,180)" d="m0 0h13l6 4 5 6 1 3 1 39v31h-1l-1-23-1 5-2 31v43l1 9-1 10-3 11h-5l-1-4-5-1 1 5h-2v2l-4 1-12-5-2-1v-3l-4-2-1-3h-2v-7l7-1 8 6 9 5 4 2-1-28-2-105-1-13 2-1 2-8-4-3v-2l-9 2-7 2-4-2 8-3z" fill="#08283B"/>
<path transform="translate(795,981)" d="m0 0 29 1 24 1 6 2-1 7-8 3-8 1-97 4-33 1h-26v-1l7-1-7-3-6-2-4-3 1-4 7-2 16-2 37-1h61z" fill="#12D7F6"/>
<path transform="translate(579,413)" d="m0 0 14 2 9 6 5 6 2 12v7l-4 10-8 9-12 5h-9l-8-3-9-8-4-8-1-3v-14l8-14 6-4z" fill="#13D7F6"/>
<path transform="translate(942,535)" d="m0 0h16v32l-4 36-6 27-8 28-10 25-11 24-12 22-5 7-4 2-1-6-5-1-1 4-3 2-3-1 3-6h2l1-4h2l2-6 2-4h2v-2l2-1 4-8 6-2 2-7h2l2-6 4-10 3-8 2-4 2-8 4-10 2-9 2-8 4-18 1-5h2l2-10 1-6-1-16-1-6h-3v-8h4l2-8-3-7-2-2z" fill="#051A2A"/>
<path transform="translate(912,558)" d="m0 0 4 1 11 8 3 2v7l-3 6-3 9-6 22-4 6-3 3h-3l-3-6-5-2-8-1h-2l-2 10-3 6v9l-2 11-3 11-5 7-3 1v-12l1-16 1-9 3-7-1-5 3 1v-2h2v-2h2l1-9v-14l6-4 5-10v-5h2l2-5 6-4 1-3 3-3z" fill="#039BDE"/>
<path transform="translate(1008,392)" d="m0 0h9l7 3 8 7 4 6 2 6v10l-4 8-6 7-9 5-5 1h-7l-11-4-5-5-4-6-2-7v-8l4-10 7-7z" fill="#63DA17"/>
<path transform="translate(841,389)" d="m0 0h4v2l5 2 10 17 8 20 7 21 6 24 5 26v9h-17l-4-28-6-26-6-16-11-25-8-18z" fill="#051C2C"/>
<path transform="translate(940,535)" d="m0 0h2l1 12 4 5 1 5-3 7h-4v8h3l2 6 1 17-4 15h-2v7l-6 24-3 13-4 8-2 9-3 5-1 4-5 12-3 6h-2l-1 5-3 2h-3l-2 5-2 4h-2v2h-2l-2 6-2 4h-2l-1 4h-2l-3 10-7 13h-2l-2 5-3 3h-2v2l-6 4-2 3h-2v2h-2v2h-2l-2 5-6 8h-2v2l-7 4-4 2-5 1 6-7 16-16 7-8 8-10 8-11 11-16 9-15 12-23 11-25 9-26 8-35 4-24z" fill="#0A2C40"/>
<path transform="translate(620,563)" d="m0 0 1 2-15 15-5 13-13 16-6 5h-2v2l-6 3h-14l-6-2-23-3-12-4-5-1-27-3-4 1-7 1v2l-12 5-4 2-2-1-1 2-5-1 6-7 20-20 10 1 61 15 11 2h13l11-9z" fill="#092A3D"/>
<path transform="translate(459,623)" d="m0 0 5 1 3 3-79 79-2 3-4-2-7-10-1-7 6-3 7-7 2 1-2 2h5l1-2 3-1 1-2 4-1v-2h2l2-4 6-6h2v-2h2v-2l5-5 3-4h2v-2l8-7h2v-2l7-6 5-5 4-1 1-3z" fill="#051E2B"/>
<path transform="translate(295,535)" d="m0 0h18l3 40 1 10v21l-4 20-3-2-5-14-5-19-3-21-2-20z" fill="#09293C"/>
<path transform="translate(243,536)" d="m0 0h52l4 43 2 16-2-1-3-13-9-7-3-3v-2l-4-2-5-5v-2l-4-1-4-5-7-5v-2l-4-2-8-3-3 4-1 8-1 20h-1v-37z" fill="#0380C1"/>
<path transform="translate(766,240)" d="m0 0h2v4h2l1-2 4 4v2h3l2 6 5 5 21 13 14 9 3 2-1 5-11 10h-3l-5-5-28-19-7-6-4-6-1-3v-13l1-4h2z" fill="#051C2C"/>
<path transform="translate(920,380)" d="m0 0h7l7 16 5 14 5 19 6 23 4 21 3 25v13l-8-1 1-3v-12l-1-4-1-9-2-15-3-12-3-13-2-6-3-10v-3l-2-1-5-11-1-4-9-3-2-1-5-13-3-7v-1z" fill="#051B2B"/>
<path transform="translate(354,645)" d="m0 0h2l1 3 5 5 5 2 9 1 10-1 5 3 13 1 8-7 4-2 1-2 2 2-30 30-8 7-4 3h-3l-1 2-12-21-10-15-3-5 1-4z" fill="#04ABE9"/>
<path transform="translate(795,981)" d="m0 0h10l12 1v1l-10 1-35 1-4 1-4-1-6 1h-8l-7 1h-21l-15 1h-2v2l15 1 8 1 17 1 5 1v2h4v2l-3 1-11 1-33 1h-26v-1l7-1-7-3-6-2-4-3 1-4 7-2 16-2 37-1h61z" fill="#06C1F2"/>
<path transform="translate(279,146)" d="m0 0 3 1 1 8 18 6 10 6-2 1 1 4 3 1 3 9-5-2-9-1-11-6-5-1h-14l-11 4-10 7-6 7-2-4 1-2h2v-2h2l2-4-6-2v-2l-5 3-2 1 2-4 10-9 12-6 9-3 6-1 1-7z" fill="#07C3F2"/>
<path transform="translate(512,975)" d="m0 0h147l91 3 74 2 28 2 4 2v8l-5 3-12 2-94 4-85 3h-50v-1l154-5 73-3 12-2 3-1 1-7-5-1-43-2-80-2-46-2-40-1h-107l-41 1-30 2-73 2-47 2h-16v-1l37-2 48-2z" fill="#AFE5F2"/>
<path transform="translate(600,236)" d="m0 0 12 2 25 3 28 7 25 9 21 10-1 2h-3v-2l-7-1-2-1v-2l-8-1-5-1v-2l-7-2-7-1v-2h-10l-5-1h-11l-6 2-2-1v5l9 1 2 1v2l-14-2-26-4-5-4-4-9v-7z" fill="#08293C"/>
<path transform="translate(832,882)" d="m0 0h9l8 5 4 6 1 3v9l-4 8-7 5-3 1h-10l-7-4-4-6-2-11 3-8 7-6z" fill="#060E17"/>
<path transform="translate(363,274)" d="m0 0 2 1-25 25-9 11-11 13-8 12-11 17-12 19-12 23-10 26-8 24-3 5-3 9-2-3 7-27 10-29 9-20 16-31 14-22 3-2v3l5-5 4-6 10-9 4-5 3-3 5-8 5-4 5-5 8-5z" fill="#AEF5F2"/>
<path transform="translate(886,379)" d="m0 0 8 1 9 7 3 4v2h2l2 6 2 1v2l3 2 8 20 4 11v4h-2l-6-11-5-4-7-8-10-9v-2h-2l-5-5-6-5v-2l-4-2-1-1h-5l-5 8-5 5-2 5-1 5-2-3-2-6v-6l3-3 4-8h2l1-3 13-1z" fill="#0380C1"/>
<path transform="translate(929,802)" d="m0 0h10l10 5 4 8v7l-4 8-6 5-5 2h-7l-8-3-5-6-2-4v-10l5-8z" fill="#0380C1"/>
<path transform="translate(579,270)" d="m0 0h7l5 3 3 5v41h-2v2l-5 1-4-6h-2v2l-5 3-4-1v-42l5-7z" fill="#051B2C"/>
<path transform="translate(873,534)" d="m0 0 15 1v13l-3 28-4 17-5 13-2 2-3 1-1-3v-41l2-30z" fill="#061C2C"/>
<path transform="translate(906,199)" d="m0 0h9l2 2-1 6-5 2-15 2-26 9-81 27h-5l-1-3 6-3 22-8 11-5 38-14 35-12z" fill="#AEF4F2"/>
<path transform="translate(871,362)" d="m0 0 5 3 13 9 15 6 11 1v1l-6 1 3 7 11 30-1 4-6-16-2-4-3-2-2-5-1-4h-2l-4-6-8-6-8-1-6 4-13 1-1 2h-2l-2 5-2 4h-2v11l-3-4-6-10-4-2v-2l-3-1 8-7 3-3h2v-2l8-7z" fill="#18546C"/>
<path transform="translate(730,226)" d="m0 0 7 1 7 2 1 3-4 9-1 6v12l4 12 6 10 9 9 10 7 1 4-2 2-7-1-6-5-19-14-14-9-11-6v-1h13l-1-2 1-5h4v-2l3-1 2-4-1-4 2-6h2l-1-5-2-4-2-2z" fill="#06BFF0"/>
<path transform="translate(874,389)" d="m0 0h5l5 4 5 5 6 5v2h2l4 5 8 7 5 5-1 2-7-7-11-7-8 1-6 2-5 2-1 8 2 8-1 10v3h-2v2h2l3 8 3 3-1 9h-3l-7-25-8-21-2-4v-8l3-6 7-8z" fill="#039ADD"/>
<path transform="translate(994,811)" d="m0 0 7 1 2 3v9l-2 2-14 1-5 15-6 9-9 8-5 2-2-2v-2l-8 1-4 2-6-2v-2l-3-1-1-4 7 1 12-5 5-4 6-9 7-3 2-7v-7l3-3 3 1v8h-2v3h2l2-14z" fill="#061C2D"/>
<path transform="translate(336,411)" d="m0 0 3 1 1 6-7 18-7 23-7 28-3 24h-6l-1-13 2-19 1-12 2-7 2-14 2-9 5-10 2-3 6-1 1-4h2z" fill="#051B2C"/>
<path transform="translate(917,210)" d="m0 0h1l2 105v28l-7-2-13-9-8-6 4-2 5 2 2-5 3-1 1-10 3-16 4-18 1-6 1-21z" fill="#039ADD"/>
<path transform="translate(1e3 660)" d="m0 0 10 2 5 5 3 5v10l-4 7-6 4-3 1h-10l-6-4-4-6-1-8 5-10 4-4z" fill="#050C14"/>
<path transform="translate(878,195)" d="m0 0h5l4 4v1l-7 1-1 3h-2l-2 4-6 4-26 9-21 8-7 3-9 2-8-2 1-4 5-4 8-3 21-7 5-3 6-2 7-3 5-2h5v-2h2v-2l8-3z" fill="#015F4F"/>
<path transform="translate(273,196)" d="m0 0h11l9 6 2 4v10l-6 9-4 3-8 1-7-3-5-6-2-6 1-9 7-8z" fill="#05B4EC"/>
<path transform="translate(782,424)" d="m0 0 2 2v4l-2 1-2 4-5 4-7 8-3 3h-2l-2 4-3 1-1 3-4 4h-2l-2 4-6 7-7 6-5 8-9 10-9 9-7 5-3 3h-3l-3 4h-2v2l-4 1v2h-2l2-4 5-5h2l2-4 6-6 2-5 15-15 7-8 8-8 7-8 15-16 7-7 3-4 5-3 4-2 1-3z" fill="#AEF4F2"/>
<path transform="translate(224,535)" d="m0 0h19v39l4 29 8 34 10 30 10 23 12 22 11 19-2 1-1-4-3-1-6-7-1-4-7-12-4-2-2-7-2-4-2-5-2-1-6-14-3-4-2-4v-13l-1-3v-8h-2l-1-7-1-1-1-7h-1l-1-8-2-6 1-2h-2l-1-7-3-8v-7l-1-4v-10l-2-3v-25l3-7h-17z" fill="#0A2C3F"/>
<path transform="translate(413,841)" d="m0 0 16 8 34 16 25 9 18 5 39 8 18 3 10 1 1 1v7h-1v-6l-12 1-3 2-5-1-6-3h-8l-17-4-8-1-14-2-10-4-5-1v-2l-6-2-5-1v-2l-5-1-13-5-7-2-12-5-4-1-9-5-3-3v-2l-4-2-4-4z" fill="#0B2E42"/>
<path transform="translate(562,238)" d="m0 0h11l-1 6-5 8-4 4-11 2-14 2h-6l-2-1-9-1-1-2 7-1 6-5 7-2v-3l-15 2-6 2-8 1v-3l21-5 18-3z" fill="#092B3E"/>
<path transform="translate(360,249)" d="m0 0 2 3-1 4 2 1-2 7-8 7-4 3h-7l-1 3-3 1-2 4 2 1-2 4-3 3h-2l-2 4-4 1v3l2 1-1 4-10 13-9 13-4-5v-6l7-7 6-7 3-1v-6l-4-2 8-8 3-5 7-9 5-2 5-4h2l2-5 2-3 5-3z" fill="#041C29"/>
<path transform="translate(400,981)" d="m0 0h18l66 1 41 2 7 3-1 2-9 3-14 4-11 3 1 1 8 1v1h-13l-40-2v-2l16-1 27-6 4-1-1-2-12-2-13-1-27-1h-14l-31-1z" fill="#06C2F2"/>
<path transform="translate(927,440)" d="m0 0 2 3 7 33 4 25v9h-14l-6-1 1-5 3-6v-9l-4-9v-8l2-6 3-1 5 2v-15h-2l-2-10z" fill="#039ADD"/>
<path transform="translate(583,315)" d="m0 0 2 2 2 4h5v-2l2-1h8l19 5 3 2-5 2-2-1v2l-9-3-12-3v2l10 4 5 4 2 4 4 3-2 3-20-4-1 12h-1v-11h-5l-2 2h-5l-2-4h-7l1-3h3v-2l7-3-1-3-11-4v-3l-4-1 6-2-1 4 6-1 3-1v-2z" fill="#041E2A"/>
<path transform="translate(605,426)" d="m0 0 2 1 2 12v7l-4 10-8 9-12 5h-9l-8-3-9-8-4-8 1-2 3 4v2l3 1v2l7-1 16-2 7-4h2v-2h3l1-3h3v-2l6-2z" fill="#0380C1"/>
<path transform="translate(574,336)" d="m0 0 5 1 2 3h5l4-2 3 1 1 11v14l-4 5-4 2-8-1-5-5-1-2v-12l1-14z" fill="#051929"/>
<path transform="translate(242,537)" d="m0 0h8l7 6 18 6v2l5 2 4 4 7 1h3l2 7 1 14h2l2 16-2-1-3-13-9-7-3-3v-2l-4-2-5-5v-2l-4-1-4-5-7-5v-2l-4-2-8-3-3 4-1 8-1 20h-1z" fill="#039BDE"/>
<path transform="translate(916,229)" d="m0 0h1v25l-1 16-4 20-3 13-2 13-1 4-4 4-1 2-7-1-5-1-7-4 4-2h6l6-2 6-15 2-8 2-19 1-13 1-4h2l-1-3 4-12z" fill="#03ACEA"/>
<path transform="translate(520,761)" d="m0 0h1l1 39-6-1-29-10-6-3 4-1 1-3h11l9 1h3l2-4 5-6 2-3 1-8z" fill="#059A3D"/>
<path transform="translate(993,255)" d="m0 0 5 2v11l11 3 3 3-4 4-6 3h-2l-3 11-2 2-4-1-2-12-10-1-2-6 3-3 9-2 1-2 1-10z" fill="#071F30"/>
<path transform="translate(349,650)" d="m0 0 5 1 2 1v2l4 2 7 9 5 5 15 5 7-1-5 6-8 7-4 3h-3l-1 2-12-21-12-18z" fill="#049BDE"/>
<path transform="translate(579,413)" d="m0 0 14 2 9 6 3 4v5l-5 1-10-5-9-2-8 1-8 5-5 5-4-2 1-5 5-8 6-4z" fill="#A9F2F2"/>
<path transform="translate(311,442)" d="m0 0h2l-4 16-6 27-3 16-1 10h-52v-3l3-1v-2l4-2 8-1 9 2 13 2 4 2 1-2h6l1-5 2-8 1-12 5-19 6-19z" fill="#05C0F1"/>
<path transform="translate(370,888)" d="m0 0 9 1 5 4 2 4-1 9-4 5-4 2h-7l-5-3-4-5-1-6 4-7z" fill="#050D16"/>
<path transform="translate(620,193)" d="m0 0 18 1 24 5 25 7 34 12 5 3-1 3-5-1-20-7-14-4-11-4h-5l-3-2-21-3-5-3-16-3-5-3z" fill="#07C3F2"/>
<path transform="translate(688,885)" d="m0 0h12v1l-9 2-11 3-12 4h-2v2h-2v2h-2l-1 4h-7l-2-1-16 1-4 2-10-1-4-1v-2l-2-1 6-1 9-1 5-2 6-1 10-4 11-2 13-3h7z" fill="#041C28"/>
<path transform="translate(560,319)" d="m0 0h11v3l9 2 4 3-1 3-7 2v2l-3 1v16h-1l-1-13-9 1-7 1-2-2 2-4h-2v-2h-2l-1-6 1-5z" fill="#051B2B"/>
<path transform="translate(234,888)" d="m0 0 7 1 5 3 3 6-1 8-5 5-3 2h-8l-6-5-2-4v-7l4-6z" fill="#050E16"/>
<path transform="translate(309,168)" d="m0 0 4 1 7 6 7 10 5 10v5h-2l1 3-5 1-3-2-2 16h-2l-2-19-3-8-9-10-2-1v-2l8 1 5 3-4-9-3-3z" fill="#04AFEB"/>
<path transform="translate(324,841)" d="m0 0h7l6 4 3 5 1 6-3 5-5 4-7 1-7-4-3-5-1-5 4-7z" fill="#050C14"/>
<path transform="translate(279,889)" d="m0 0h8l6 5 2 6-3 9-6 4h-8l-5-3-3-7 1-7 4-5z" fill="#060E16"/>
<path transform="translate(509,983)" d="m0 0h22l15 1 7 3-2 4-10 3-1 1h-6v2l-12 2v3h-16l-11-2 2-2 16-4 9-3 7-2 3-2-6-1-4-1-13-1z" fill="#04ADEB"/>
<path transform="translate(279,794)" d="m0 0h8l6 5 1 3v7l-3 6-4 3-6 1-5-2-4-5-2-8 3-6z" fill="#061B2B"/>
<path transform="translate(187,751)" d="m0 0h7l6 4 3 9-3 6-4 4-9 1-6-3-3-7v-6l5-6z" fill="#050D15"/>
<path transform="translate(233,795)" d="m0 0 9 1 5 6 1 2v7l-4 6-3 2h-10l-6-7-1-2v-7l6-7z" fill="#050D15"/>
<path transform="translate(234,750)" d="m0 0 8 1 5 6 1 7-4 8-3 2-8 1-6-4-3-6v-7l4-5z" fill="#015C49"/>
<path transform="translate(546,418)" d="m0 0 4 1 1 6v7l2 2v17h2v7l8 14 1 2-3-1v-2l-4-1-7-6-7-14-1-5h-1v-10l1-2v-9l-1-2 1-2z" fill="#041C28"/>
<path transform="translate(886,551)" d="m0 0h1v9l-3 20-4 16-5 12-4 1-1-3v-41h1l1 14 3-4 1-6 3-5 5-2z" fill="#082639"/>
<path transform="translate(245,453)" d="m0 0h4l2 3-1 7-2 9-1 9-3 13-2 17h-1l-1-5-2 1-1 2-5-4 2-15 2-5 6-24 2-3z" fill="#082A3E"/>
<path transform="translate(188,842)" d="m0 0 9 1 6 7v6l-4 6-4 3h-8l-5-3-3-5v-8l6-6z" fill="#050D16"/>
<path transform="translate(677,983)" d="m0 0h18v1l-18 2-5 1v4l4 3 13 4-1 2-14 2h-17l3-1-1-4-4-1-7-4-1-2h2v-2l5-2z" fill="#04ADEB"/>
<path transform="translate(478,210)" d="m0 0h3l-1 3h-2v2l-6 3h-2l-3 3-11 3-9 4-10 4-11 7-10 5-4 3-9 5-14 8-2-1 5-6 19-12 16-9 10-4 16-8 13-6z" fill="#07C3F2"/>
<path transform="translate(327,888)" d="m0 0 6 1 5 4 1 2v8l-4 7-6 3-6-1-5-5-1-9 4-6z" fill="#0480BF"/>
<path transform="translate(280,199)" d="m0 0 6 2 4 4v2h2l1 7-5 5-9 4-6-1-4-8-1-5 3-5 5-3z" fill="#13D8F7"/>
<path transform="translate(187,797)" d="m0 0h8l6 5 1 9-4 6-6 3-6-1-5-4-2-4v-6l6-7z" fill="#08273A"/>
<path transform="translate(280,842)" d="m0 0 6 1 5 3 2 4v7l-4 6-3 2-8-1-4-2-3-5v-8l5-5z" fill="#04A0E0"/>
<path transform="translate(189,890)" d="m0 0 7 1 4 3 1 3v8l-4 5-4 2h-7l-6-5-1-9 4-5z" fill="#15556C"/>
<path transform="translate(598,188)" d="m0 0 11 3-4 5h-2v14l1 5v8l-1 9 3 1v2l15 1 13 3 13 2 9 3 1 2-12-2-14-3-28-3-4-1-1-14z" fill="#07C2F1"/>
<path transform="translate(224,535)" d="m0 0h19v39l4 29 8 34v2h-3l-1-7-1-1-1-7h-1l-1-8-2-6 1-2h-2l-1-7-3-8v-7l-1-4v-10l-2-3v-25l3-7h-17z" fill="#0B3044"/>
<path transform="translate(832,882)" d="m0 0 4 1-7 3-1 4h9l6 4 2 8-3 5-5 4h-8l-1-4-3-10v-4l-6 1 2-5 6-5z" fill="#051A2A"/>
<path transform="translate(903,200)" d="m0 0h11l1 2-6 3h-10l-5 2v2l-8 2-3 2-11 2v2h-9l-3 4-8 2-3 2-12 2-5 1-1-2 10-3v-2l24-9 30-10z" fill="#D5EDEF"/>
<path transform="translate(233,843)" d="m0 0h7l5 4 2 4-2 9-4 4-7 1-5-3-4-7 1-7 4-4z" fill="#04A1E1"/>
<path transform="translate(1012,588)" d="m0 0h8l4 5 1 9-3 7-5 3h-6l-4-4-1-10 3-7z" fill="#061019"/>
<path transform="translate(1e3 660)" d="m0 0 10 2 5 5v3l-4-1v2l3 4-1 5-7-4h-16l-1-2-4 1 2-6 6-7z" fill="#051C2D"/>
<path transform="translate(931,848)" d="m0 0h6l3 7 2 1v2l7 1 3-2 8-1 2 4v2l-9 4-8 1-4-2v-2l-11 1-9-4 1-3h2l4-4z" fill="#041B28"/>
<path transform="translate(918,981)" d="m0 0 18 1 4 4-1 7-2 2-7 1h-11l-5-1-1-2 1-9z" fill="#07C2F2"/>
<path transform="translate(596,584)" d="m0 0 3 1-17 17-9 7h-13l-24-5-27-7v-1h9l5 1 16 3 2 1h11l4 2 4-1 1 3 16-4 4-4 4-3h3l2-4z" fill="#03A2E2"/>
<path transform="translate(296,745)" d="m0 0 4 1 3 6 1 3h2l4 7 1 3 4 2 5 6v2h2v2l5 1 3 3 5 3 6 5 4 6 3 4v3l5 2 8 7-1 3-5-2-4-3v-2l-4-2-7-8-11-11-6-5v-2l-4-2-11-11-1-4h-2l-1-4-8-11z" fill="#041B28"/>
<path transform="translate(205,326)" d="m0 0h7l6 7v7l-6 7h-7l-5-4-2-5 1-6 4-5z" fill="#0383C1"/>
<path transform="translate(664,540)" d="m0 0h3l-2 4-45 45-1-2 6-11 11-12 11-10 5-5 7-6h2v-2z" fill="#071F30"/>
<path transform="translate(381,261)" d="m0 0 4 1-5 5-12 11h-2l-1 3-8 7-4 5h-2l-2 4-3 4h-2l-2 4-13 14-2-2 9-11 4-7 8-8 4-5 8-7 12-11z" fill="#07C3F2"/>
<path transform="translate(305,333)" d="m0 0 1 4-11 18-5 9-5 6-6 18-7 13h-2v6l-1 2h-2l-1 3-1-4 10-24 11-22 10-18 4-6z" fill="#E2EDEE"/>
<path transform="translate(803,826)" d="m0 0v3l-4 2h-3l-1 3-8 6h-2v2l-10 7-11 6-4 2h-3v2l-8 5-5 3-5 4h-3l-1 2-7 4-4-1 9-5 6-4 8-7 14-7h2v-2l6-3 2-4 5-2 1-2h2v-2l7-1v-2h2v-2l4-3z" fill="#041B28"/>
<path transform="translate(227,212)" d="m0 0 2 2 2 7 3 5 4 6 5 9 5 6 1 4 3 5-3 1-8-6-9-12-5-12z" fill="#04ADEA"/>
<path transform="translate(881,593)" d="m0 0 1 4-6 17-2 9-2 5-2 10-8 16-4 1 8-24 2-11 1-11 2-3 1 2 4-4 4-10z" fill="#0380C1"/>
<path transform="translate(241,174)" d="m0 0h3v2l7 1-3 5h-2v2h-2v8l-9 1-4 7-2 5h-1v-13l6-12z" fill="#04AFEB"/>
<path transform="translate(248,541)" d="m0 0 8 3 4 3v2l4 2 1 2h-9v8l-1 1h-12l1-16z" fill="#04ADEB"/>
<path transform="translate(425,298)" d="m0 0h3v2l-7 5-7 3 2-5 6-3zm-13 10 2 1-3 6-7 5h-2l-2 4-4 1v2h-2l-1 6 1 3-4 5h-2v-2l-8 7-2 2h-3l-2 4-1-2 1-3h2v-2h2l4-8 3-1 5-8 3-4 7-4h2l2-4 3-3h2l1-3z" fill="#041D2A"/>
<path transform="translate(430,785)" d="m0 0 5 2 21 12 23 11 24 9 23 6 20 4v1h-9l-12-3-12-2-15-4-6-2-16-6-12-6-3-3-11-5-7-3-6-4v-2l-3 1-4-5z" fill="#0380C1"/>
<path transform="translate(994,811)" d="m0 0 7 1 2 3v9l-2 2-14 1-2 3-1-3v-11l1-4z" fill="#051B2B"/>
<path transform="translate(867,763)" d="m0 0m-1 1h5l-3 6-5 5-6 7-5 8-1 5-10 8-10 6-6 5 2-4 5-6h2v-2h3l1-3 3-1v-3l6-5 1-3h3v-7l4-6h2v-2h2v-2z" fill="#041B28"/>
<path transform="translate(732,279)" d="m0 0 6 1 6 2 6 1v2l5 1 7 6 7 5 1 4-2 2-7-1-6-5-19-14z" fill="#049BDC"/>
<path transform="translate(865,310)" d="m0 0 4 1 10 6-4 2-5-2-1 3-3 4-9 2-2 4-4 1h-2v2l-5 3h-3v-2l7-6 7-8z" fill="#092B3E"/>
<path transform="translate(275,396)" d="m0 0 1 2-9 23-8 24-3 5-3 9-2-3 7-27 6-18h2l1-2h2l1-8h2l2-4z" fill="#ADF3F2"/>
<path transform="translate(918,258)" d="m0 0h1l1 57v28l-7-2-4-4 2-1 5-14 1-23z" fill="#0380C1"/>
<path transform="translate(936,812)" d="m0 0 5 1 5 6-2 8-4 2h-8l-4-4 3-12z" fill="#049CDF"/>
<path transform="translate(185,410)" d="m0 0h17l1 1v8l-2 1h-23v-9z" fill="#12D6F6"/>
<path transform="translate(780,263)" d="m0 0 5 3v2l6 1 6 4v2l4 2 4 4v2l4-1 2 2v4 2l-6 2-4-1-2-4-4-7-2-4-8-3-1-4h-2v-2h-2z" fill="#041B27"/>
<path transform="translate(699,810)" d="m0 0 3 1-1 2-20 8-3 2-11 3-16 3-11 2-2-2 2-2 34-8 20-7z" fill="#0380C1"/>
<path transform="translate(991,325)" d="m0 0h6l5 6v6l-6 6-6-1-5-6 1-5z" fill="#07131E"/>
<path transform="translate(597,181)" d="m0 0 31 3 22 3v1l-15-1-24-2 1 3 14 3 18 3 9 2v1l-11-1-39-7-4-2-1 24h-1z" fill="#AEEDF2"/>
<path transform="translate(677,436)" d="m0 0v3l-7 7-7 8-9 8-7 9-20 20-3 1 2-5 17-17 14-16 13-13 5-3z" fill="#04A9E8"/>
<path transform="translate(714,980)" d="m0 0h43l38 1-3 2h-97v-1z" fill="#04A0E2"/>
<path transform="translate(359,264)" d="m0 0 1 4-15 14-10 10-7 9-1-2-4-2 3-4 4-1 5-5 3-4-3-1 3-4h2l2-4 9-2z" fill="#06263B"/>
<path transform="translate(766,240)" d="m0 0h2v4h2l1-2 4 4v2h3l2 8-3-2-5 1-3 4h-2v6l-3-3-1-3v-13l1-4h2z" fill="#093041"/>
<path transform="translate(568,185)" d="m0 0 5 1v48h-1v-45l-43 7-27 6-13 4-4-1 19-6 22-5 16-3 3-1 11-1z" fill="#AEF1F2"/>
<path transform="translate(330,890)" d="m0 0 6 1 3 4v8l-2 4-1-2-3-1-1-5-6 5h-5l-1-5 6-8z" fill="#0389D6"/>
<path transform="translate(385,823)" d="m0 0h5l6 4 11 5v2l5 1 18 12 8 3v3l4 2-5-1-29-15-14-9-9-6z" fill="#0386D2"/>
<path transform="translate(554,434)" d="m0 0h1l1 6 3 1 4 8 8 4 9 1 12-5 5-1-3 1v2l-9 5-16 2h-7l-8-10z" fill="#0395DA"/>
<path transform="translate(886,551)" d="m0 0h1v9l-3 20-4 16-5 12-4 1-1-3v-41h1v31h4l2-4 4-10 3-15z" fill="#19536C"/>
<path transform="translate(687,207)" d="m0 0 6 1 28 10 5 3-1 3-5-1-20-7-14-4-5-2v-2h5z" fill="#08C4F2"/>
<path transform="translate(667,515)" d="m0 0 2 2-2 3-2 6-3 4-5 2-12 10-1 2h-2l-2 4h-3l-2 4-8 7v-3l14-14 7-8z" fill="#09293C"/>
<path transform="translate(538,496)" d="m0 0 4 1 16 8 14 4-4 4h-2v2h-2v2l-4 1-1-4h-2l-4-4v-2l-4-1-8-6z" fill="#AFE5F2"/>
<path transform="translate(580,415)" d="m0 0 10 1 10 3 5 6v5l-5 1-7-4-4-4-6-2-4-3z" fill="#EDEEEE"/>
<path transform="translate(267,983)" d="m0 0h14l2 2-1 7-2 3-9 1-5-5v-6z" fill="#058ECA"/>
<path transform="translate(328,214)" d="m0 0 3 3 1 3v7l-8 16-8 9-2-2v-3l4-1-2-1 1-3h2l1-4 2-1v-4l3-4v-3l2-4 1-4z" fill="#05B1EC"/>
<path transform="translate(651,559)" d="m0 0 2 1-2 6-4 2-2 5-7 6-1 3-7 6-1 2h-3l-2 4h-2l-4 4h-2v-3l3-1 5-5 7-8 3-5z" fill="#AEF6F3"/>
<path transform="translate(311,442)" d="m0 0h2l-4 16-6 27-3 16-1 10h-1v-21l2-12 4-16 6-19z" fill="#05ADE4"/>
<path transform="translate(840,407)" d="m0 0 3 3 3 4 2 5 4 1 3 7 2 5-1 8 2 5-1 3-6-12-11-26z" fill="#060E17"/>
<path transform="translate(474,620)" d="m0 0 3 1-1 6-4 6-3 1-5 5-9 7-5 1 2-4 21-21z" fill="#AEF5F2"/>
<path transform="translate(466,264)" d="m0 0h2l-1 4 10-2 1 2h-3v3l-16 5-6-1-6 2-2-2 5-1v-2z" fill="#082D3D"/>
<path transform="translate(575,425)" d="m0 0h15l6 3 1 4-3 1-21-4v3l-5 4h-4l2-5 6-5z" fill="#07C3F2"/>
<path transform="translate(977,807)" d="m0 0 4 2 4 3-1 16-1-2h-2l1-6v-5l-4 2v7l-1 7h-2l-1 2-6 1 3-13 2 1 2-9 2-4z" fill="#041E2B"/>
<path transform="translate(600,236)" d="m0 0 12 2 25 3 28 7 9 3-4 1-28-7-21-3-18-1-2-1-2 4v-7z" fill="#0D585A"/>
<path transform="translate(286,348)" d="m0 0h5l-2 5v5h-3l-3 1-1 7h-2v-2l-7-1-3 2-2 6h-3l-2 6-1-3 1-4 4-3 4-7h2v-2h2v-2l6-1 2-5z" fill="#041C28"/>
<path transform="translate(929,869)" d="m0 0h6l5 2 1 12h-12z" fill="#050911"/>
<path transform="translate(318,760)" d="m0 0 5 5 9 10 7 8 16 16h-3l-8-8h-3v-2l-4-2-8-8-9-12z" fill="#0C3146"/>
<path transform="translate(305,333)" d="m0 0 1 4-11 18-5 9-5 6-1-4 12-22 4-6z" fill="#DEEDEF"/>
<path transform="translate(400,981)" d="m0 0h18l62 1-1 3-77-2z" fill="#06C1F2"/>
<path transform="translate(784,413)" d="m0 0h2v5l-7 7-5-1-4 1-2 4-4 3h-2l-2 4-3 2 1-4 4-5h2l2-4 4-4 9-3zm-29 25 2 1h-3z" fill="#041C29"/>
<path transform="translate(316,333)" d="m0 0 3 1-2 1-2 5-11 18-7 10-3-1 6-11 7-11 4-6 3-4h2z" fill="#06C1F2"/>
<path transform="translate(430,785)" d="m0 0 5 2 21 12 21 10v3l4 1-3 1-14-7-3-3-11-5-7-3-6-4v-2l-3 1-4-5z" fill="#0383C9"/>
<path transform="translate(480,529)" d="m0 0h9l25 8 17 5v1l-9-1-32-8-10-4z" fill="#04A1E2"/>
<path transform="translate(264,213)" d="m0 0 3 2v3l5 1 3 3v2l15-1-5 5-8 1-7-3-5-6z" fill="#04A1E2"/>
<path transform="translate(354,660)" d="m0 0 4 2 6 7 4 9 5 3 1 3 8 1-5 5h-3l-1 2-12-21z" fill="#0382C6"/>
<path transform="translate(288,199)" d="m0 0 5 3 2 4v10l-4 7-5 1h-11l16-8 1-4v-5h-2l-4-5-2-2z" fill="#06BEF0"/>
<path transform="translate(668,724)" d="m0 0h2l1 4-10 20h-1v-18z" fill="#015E49"/>
<path transform="translate(579,270)" d="m0 0h7l5 3 3 5v6l-5-1-2-5-10-1-1-3z" fill="#06101A"/>
<path transform="translate(476,528)" d="m0 0h7l-1 2 2 2-9 1-9 6h-3l-1 4-5-1 2-5 9-6z" fill="#08C4F2"/>
<path transform="translate(728,452)" d="m0 0v3l-3 5-8 7-40 40v-3l39-39 7-8z" fill="#0D384B"/>
<path transform="translate(258,544)" d="m0 0 12 3 5 2v2l5 2 4 4 7 1h3l1 1v5h-8l-3-2v-2l-4-2-1-3-4-1v-2l-9-3-8-4z" fill="#0388D7"/>
<path transform="translate(400,228)" d="m0 0 3 4-4 2-4 3-2 1-3 3-7-4-2-1v-3l6-2 4 1 5-3z" fill="#041B28"/>
<path transform="translate(685,498)" d="m0 0h3l-2 9h-2v2h-2v2l-6 3-8 1 4-5 8-7z" fill="#082639"/>
<path transform="translate(940,535)" d="m0 0h2l1 12 4 5 1 5-3 7h-4v8h-1z" fill="#08273A"/>
<path transform="translate(600,513)" d="m0 0h2l-1 4h-2l-2 4-7 8-15 15-1-4 11-11 7-8z" fill="#04ADEA"/>
<path transform="translate(242,537)" d="m0 0h8l6 5v2l-8-2-3 4-1 8-1 20h-1z" fill="#0391D4"/>
<path transform="translate(899,723)" d="m0 0 1 3 2 10-4 2-1-6-5-1-1 4-3 2-3-1 3-6h2l1-4z" fill="#041B28"/>
<path transform="translate(940,394)" d="m0 0h6l1 7-2 7-6 3-2-6h2z" fill="#AFE5F2"/>
<path transform="translate(596,318)" d="m0 0 11 1 17 5-4 3-3-1v2l-15-5v-2h-4v-2z" fill="#05202D"/>
<path transform="translate(862,215)" d="m0 0 1 2-3 4-8 2-3 2-12 2-5 1-1-2 27-10z" fill="#EFEFEE"/>
<path transform="translate(679,254)" d="m0 0 9 2 23 11-1 2h-3v-2l-7-1-2-1v-2l-8-1-5-1v-2l-5-1z" fill="#0A3443"/>
<path transform="translate(234,750)" d="m0 0 8 1 2 6-4 6h-3l-3-5-2-3 1-4z" fill="#04222D"/>
<path transform="translate(299,579)" d="m0 0 2 3 3 15 3 10v3h2l3 7 2 2-1 7-3-2-5-14-5-19-1-5z" fill="#145564"/>
<path transform="translate(694,511)" d="m0 0 1 3-21 21-3-2 3-3 2-4h3l2-4 6-6 5-3z" fill="#071F30"/>
<path transform="translate(190,895)" d="m0 0 6 1 1 5-1 3-6 2h-5l-1-5z" fill="#0380C1"/>
<path transform="translate(375,737)" d="m0 0 16 16 11 9 6 5-4 2-5-5v-2h-2v-2h-3v-2h-2v-2l-4-1-6-7-2-1v-3h-2v-2h-2v-2l-2-1z" fill="#049FE0"/>
<path transform="translate(456,630)" d="m0 0h6l-2 4-14 14-2-1 2-5 4-6z" fill="#082334"/>
<path transform="translate(225,761)" d="m0 0 6 4 5 6 8-1 1-3 1 2-5 5-8 1-6-4-2-3z" fill="#07293A"/>
<path transform="translate(378,697)" d="m0 0 10 1 2 3-1 4-3 4-4-2-4-5z" fill="#06111B"/>
<path transform="translate(916,301)" d="m0 0h1v21l-5 14-5 1-2-2 3-3 5-12 2-5z" fill="#0387D5"/>
<path transform="translate(382,693)" d="m0 0h8l8 1-2 4-6 5-2-4-10-2 1-3z" fill="#052033"/>
<path transform="translate(980,271)" d="m0 0h5l6 3-1 5-3 1h-8l-2-6z" fill="#0A2D42"/>
<path transform="translate(240,643)" d="m0 0 3 1 2 7 3 9v5l-4-1-6-17z" fill="#051F2D"/>
<path transform="translate(588,617)" d="m0 0 1 4-10 7-2 1h-9l-6-1 4-2 10-2 7-4z" fill="#072A40"/>
<path transform="translate(639,569)" d="m0 0 2 1-8 8-3 6-8 8h-2l-1 3h-3l-1 3 1-5 16-17z" fill="#DCECEF"/>
<path transform="translate(716,484)" d="m0 0 5 1-2 4-12 12-2-1 2-5 4-6z" fill="#071F31"/>
<path transform="translate(303,604)" d="m0 0 2 3 4 12 3 6 2-3 2 14-2-1-2-5-3-3-6-12z" fill="#0390D2"/>
<path transform="translate(847,342)" d="m0 0 2 1-3 1v2h-2v2h-3v2l-5 2-3 1-1 4h-2v2l-4 1 2-4 1-5 4-4 2 1 4-2 4-1v-2z" fill="#041B28"/>
<path transform="translate(714,980)" d="m0 0h14l9 1 1 2h-43v-1z" fill="#04ADEB"/>
<path transform="translate(706,501)" d="m0 0 1 3-13 13-8 9-5 4-4 5-3 1 2-4 23-23z" fill="#B8EBF1"/>
<path transform="translate(233,986)" d="m0 0h13l1 3-1 3-6 1-7-2z" fill="#AFE5F2"/>
<path transform="translate(575,425)" d="m0 0h8v2l3 1-13 1v3l-5 4h-4l2-5 6-5z" fill="#05BDF0"/>
<path transform="translate(550,322)" d="m0 0 1 2h2v4h2l2 4 5 2v5l-7 1-2-2 2-4h-2v-2h-2l-1-6z" fill="#041E2B"/>
<path transform="translate(350,707)" d="m0 0 4 2 10 13 11 13-1 3-4-4v-2h-2l-3-5-4-5-3-1v-2h-2l-4-8z" fill="#05A5E3"/>
<path transform="translate(1019,518)" d="m0 0 6 1v7l-2 2h-5l-2-3v-5z" fill="#061F30"/>
<path transform="translate(677,436)" d="m0 0v3l-7 7-7 8-5 4-1-4 13-13 5-3z" fill="#04B0EB"/>
<path transform="translate(571,878)" d="m0 0h1l1 13h-10l-6-1v-1h6v-2l5-4z" fill="#0380C1"/>
<path transform="translate(981,831)" d="m0 0h4l-2 9-3 6-4-4 1-7z" fill="#05212F"/>
<path transform="translate(752,441)" d="m0 0 1 3-13 13-1 5 1 3h-4l-1-5 3-6 8-7 3-5z" fill="#041B28"/>
<path transform="translate(606,168)" d="m0 0h7l5 4 3 2-2 1h-12l-2-4z" fill="#082639"/>
<path transform="translate(977,807)" d="m0 0 4 2 4 3-1 16-1-2h-2l1-6v-5l-5 2-2-4 2-4z" fill="#041B28"/>
<path transform="translate(874,446)" d="m0 0h2l3 8 3 3-1 9h-3l-4-15z" fill="#0398DB"/>
<path transform="translate(267,983)" d="m0 0h14l1 2-3 2-2 4-4-1-1-4h-4l-1 5h-1v-6z" fill="#06ABE5"/>
<path transform="translate(555,440)" d="m0 0 4 1 4 8 8 4 9 2v1h-9l-8-3-3-1v-2h-2l-3-5z" fill="#05B9EF"/>
<path transform="translate(563,246)" d="m0 0h4l1 5-5 5h-7l2-5z" fill="#061C2D"/>
<path transform="translate(628,796)" d="m0 0h1v10l-1 1-21 2h-27v-1l36-2 11-1z" fill="#035C4C"/>
<path transform="translate(1013,668)" d="m0 0 6 2 1 2v10l-3 4-1-3-2-10-3-4z" fill="#06121D"/>
<path transform="translate(347,364)" d="m0 0h2l-2 5-12 21-4 8h-1v-5h2l1-5 6-11 1-2h2l2-7h2z" fill="#04A8E1"/>
<path transform="translate(610,425)" d="m0 0 5 3h2l1 4 1 7-1 3h-2l-1-4-2-2-3-6z" fill="#041C28"/>
<path transform="translate(828,348)" d="m0 0 2 1-32 32-2-1 8-9 8-7z" fill="#08293C"/>
<path transform="translate(598,328)" d="m0 0 5 1v4l5 2v2h-5l-4 1-4-3 1-6z" fill="#051929"/>
<path transform="translate(647,175)" d="m0 0 8 3-1 4-6 1-8-4 1-3z" fill="#082639"/>
<path transform="translate(301,478)" d="m0 0h1v12l-3 21h-1v-21l1-9z" fill="#04A6DF"/>
<path transform="translate(798,387)" d="m0 0 2 1v11l-2 4h-2l-2 4-5 2 3-4 3-5 1-9z" fill="#041C28"/>
<path transform="translate(394,311)" d="m0 0 2 1-25 25v-3l7-8 6-5 6-7z" fill="#0A4E61"/>
<path transform="translate(618,890)" d="m0 0h7l-1 2-16 2h-10v15h-1v-16l1-2h11z" fill="#0E4967"/>
<path transform="translate(531,542)" d="m0 0 11 2 9 3-1 2h-8v-2h-6l-9-3z" fill="#05B7ED"/>
<path transform="translate(600,236)" d="m0 0 12 2 14 2v1h-23l-2-1-2 4v-7z" fill="#125663"/>
<path transform="translate(506,770)" d="m0 0 5 1v7l-6 1-3-1v-5z" fill="#049A3E"/>
<path transform="translate(308,536)" d="m0 0h4v13l-2 4-2-3-1-13z" fill="#051929"/>
<path transform="translate(917,983)" d="m0 0h5l-2 11-5 1-1-6z" fill="#049DE0"/>
<path transform="translate(246,610)" d="m0 0 3 2 6 25v2h-3l-1-7-1-1-1-7h-1l-1-8-1-1z" fill="#093242"/>
<path transform="translate(716,271)" d="m0 0 6 2 14 9 4 4-9-3-3-2v-2l-4-1-3-1-1-2-3-1z" fill="#0B3847"/>
<path transform="translate(622,239)" d="m0 0h12l13 2 9 3 1 2-12-2-14-3-9-1z" fill="#0499D7"/>
<path transform="translate(918,981)" d="m0 0 18 1 4 4-1 7h-1l-1-8-8 1-1 2-4-5-6-1z" fill="#13D8F7"/>
<path transform="translate(1011,594)" d="m0 0 5 1 1 2-1 9-4-1-2-4z" fill="#051B2C"/>
<path transform="translate(878,544)" d="m0 0h2l2 6 3 1-1 2-5-1-1-1-3 14h-1v-10l3-10z" fill="#041C28"/>
<path transform="translate(288,199)" d="m0 0 5 3 2 4v10l-3-4v-5h-2l-4-5-2-2z" fill="#07C2F2"/>
<path transform="translate(365,274)" d="m0 0 2 1-27 27v-3l8-8 4-5 8-7z" fill="#0ECFF5"/>
<path transform="translate(332,800)" d="m0 0 7 6 12 11 10 8-1 2-13-11-8-7-7-7z" fill="#07141F"/>
<path transform="translate(603,602)" d="m0 0h3l-2 4-13 13-1-3h2l1-4z" fill="#06202F"/>
<path transform="translate(750,309)" d="m0 0 8 1v4l-2 3-5-1-3-3z" fill="#07121C"/>
<path transform="translate(322,302)" d="m0 0 2 1-1 4-10 13-2 2-1-5 7-7z" fill="#072B42"/>
<path transform="translate(667,515)" d="m0 0 2 2-10 9-16 16v-3z" fill="#0C3C4B"/>
<path transform="translate(544,434)" d="m0 0 1 2h2l1 14-3 1-2-1v-13z" fill="#041928"/>
<path transform="translate(807,274)" d="m0 0 5 2 11 7-1 5-3 2v-8l-5-1-4-2v-2h-3z" fill="#093241"/>
<path transform="translate(455,982)" d="m0 0h25l-1 3-24-1z" fill="#05BFF1"/>
<path transform="translate(743,276)" d="m0 0 4 1 6 8h-3v-2l-3 1-9-3z" fill="#05B2EC"/>
<path transform="translate(268,985)" d="m0 0 4 1 3 6-2 3-5-1-1-2v-6z" fill="#0383C4"/>
<path transform="translate(903,200)" d="m0 0h11l1 2-6 3-10-1 1-3z" fill="#E7EFEE"/>
<path transform="translate(867,763)" d="m0 0m-1 1 1 3-4 4h-2l-3 6h-2l-1 4-4-1 4-6h2v-2h2v-2z" fill="#051929"/>
<path transform="translate(369,679)" d="m0 0 4 2 1 3 8 1-3 4h-5l-5-7z" fill="#0387D4"/>
<path transform="translate(886,551)" d="m0 0h1v9l-3 20-2 9-2-1 2-10 3-19z" fill="#175468"/>
<path transform="translate(728,452)" d="m0 0v3l-3 5-8 7-6 6-2-1 7-7 7-8z" fill="#092D3D"/>
<path transform="translate(311,442)" d="m0 0h2l-6 24h-1l-1-6 5-17z" fill="#04A7DF"/>
<path transform="translate(206,331)" d="m0 0 3 1 2 4-1 5-5-1-1-7z" fill="#049CDF"/>
<path transform="translate(282,848)" d="m0 0 4 2v4l-6 2-3-1v-2l-2-1 4-1v-2z" fill="#04ADEB"/>
<path transform="translate(582,618)" d="m0 0 3 1-6 5-5 2-12 1v-2l11-2z" fill="#041B28"/>
<path transform="translate(478,589)" d="m0 0h9l7 2 8 1v2h7v2l-9-1-22-5z" fill="#0392D3"/>
<path transform="translate(555,451)" d="m0 0 2 3 6 8 2 3-3 1-7-6-1-6z" fill="#0B2D3F"/>
<path transform="translate(249,440)" d="m0 0h4l1 7-2 9-2-4-2-7z" fill="#082E44"/>
<path transform="translate(667,203)" d="m0 0h10l10 3-1 3-16-4z" fill="#07B8EE"/>
<path transform="translate(319,177)" d="m0 0 4 2 5 8-1 3-5-5-4-5z" fill="#05A4E2"/>
<path transform="translate(307,623)" d="m0 0 3 4v2l3 1 6 12-1 3-3-5v-2l-3-1-5-10z" fill="#03A2E3"/>
<path transform="translate(605,425)" d="m0 0 3 1 3 11v13l-3-1v-10l-2-12z" fill="#0B3244"/>
<path transform="translate(319,311)" d="m0 0v3l-2 5-2 6-6 4 2-7z" fill="#D0EEF0"/>
<path transform="translate(430,785)" d="m0 0 5 2 12 7 1 4-5-2-6-4v-2l-3 1-4-5z" fill="#0389D7"/>
<path transform="translate(609,180)" d="m0 0h9l3 2 5 1v1l-16-1-12-1v-1z" fill="#0E445F"/>
<path transform="translate(699,810)" d="m0 0 3 1-1 2-12 5-4-2 11-5z" fill="#0382C7"/>
<path transform="translate(601,421)" d="m0 0 4 4v5l-5 1-7-4 3-1 6-1z" fill="#AEF3F2"/>
<path transform="translate(1e3 818)" d="m0 0h2v6l-2 2h-14v-1l10-1v-3z" fill="#08273A"/>
<path transform="translate(568,185)" d="m0 0 5 1v2l-15 3-4-1z" fill="#AEF5F2"/>
<path transform="translate(234,896)" d="m0 0 5 1v5h-2v2l-5-1 1-6z" fill="#051929"/>
<path transform="translate(827,796)" d="m0 0 2 1-17 17-5 1 5-5 12-11z" fill="#113E54"/>
<path transform="translate(308,341)" d="m0 0 1 3-7 10-6 10h-2l2-5z" fill="#13D8F7"/>
<path transform="translate(325,892)" d="m0 0 6 1 1 4-4 2-3 1-2-5z" fill="#039BDE"/>
<path transform="translate(240,643)" d="m0 0 3 1 1 6-1 5h-2l-3-10z" fill="#06212F"/>
<path transform="translate(575,365)" d="m0 0 8 2h5v3l-7 1-6-3z" fill="#091824"/>
<path transform="translate(522,244)" d="m0 0h5l-3 1v3l-9 2-4-1v-2z" fill="#0C3547"/>
<path transform="translate(665,174)" d="m0 0 9 1-3 1-1 3-5 1-3-5z" fill="#09283B"/>
<path transform="translate(873,534)" d="m0 0 14 1-1 3h-11l-2-1z" fill="#07131D"/>
<path transform="translate(603,336)" d="m0 0 11 2v2l2 1-4 1-11-3z" fill="#092B3F"/>
<path transform="translate(599,232)" d="m0 0h2l3 4 16 1 1 2h-9l-9-1-4-1z" fill="#038CCE"/>
<path transform="translate(885,983)" d="m0 0 3 1 1 6-1 1h-5v-6z" fill="#AFE5F2"/>
<path transform="translate(552,434)" d="m0 0h1v17l-1-2h-2v-8z" fill="#051929"/>
<path transform="translate(257,425)" d="m0 0 2 4-3 11-2-2v-7z" fill="#093148"/>
<path transform="translate(635,331)" d="m0 0 5 2h3l-1 4-7-1-4-2 2-2z" fill="#041B28"/>
<path transform="translate(425,298)" d="m0 0h3v2l-7 5-7 2 2-4 6-3z" fill="#041C28"/>
<path transform="translate(997,257)" d="m0 0h1v11l8 2-2 2-8-1v-9z" fill="#11425B"/>
<path transform="translate(295,160)" d="m0 0 6 1 10 6-3 1-9-4-4-2z" fill="#07B6ED"/>
<path transform="translate(350,707)" d="m0 0 4 2 7 9-1 3h-2v-2h-2l-4-8z" fill="#05AFEA"/>
<path transform="translate(654,554)" d="m0 0 3 1-3 4-5 3-7 7-2-1z" fill="#AEEDF2"/>
<path transform="translate(657,455)" d="m0 0 1 3-8 9-4-1z" fill="#049CDF"/>
<path transform="translate(430,283)" d="m0 0h2v4l-4 3h-3v2l-4-1v-2l7-4h2z" fill="#0A384C"/>
<path transform="translate(626,240)" d="m0 0 11 1 5 1-4 2-17-2v-1z" fill="#0A5956"/>
<path transform="translate(490,206)" d="m0 0h6v2l-9 4-3-1v-2z" fill="#06C1F2"/>
<path transform="translate(425,847)" d="m0 0 8 1 5 2v3l4 2-5-1-12-6z" fill="#0383CB"/>
<path transform="translate(1019,518)" d="m0 0 4 1-3 1-1 4h2v3l2 1h-5l-2-3v-5z" fill="#0D3449"/>
<path transform="translate(927,440)" d="m0 0 2 3 3 13v4h-2v-8h-2l-2-10z" fill="#038FD1"/>
<path transform="translate(463,434)" d="m0 0 4 1v6l-2 2h-4z" fill="#082639"/>
<path transform="translate(1e3 271)" d="m0 0h5l-1 4-6-1v2h-5l-1-4z" fill="#082639"/>
<path transform="translate(746,208)" d="m0 0 5 1 1 5-4 1-5-5z" fill="#082639"/>
<path transform="translate(698,262)" d="m0 0 5 1 8 4-1 2h-3v-2l-7-1-2-1z" fill="#0E354A"/>
<path transform="translate(279,146)" d="m0 0 3 1v9h-3l-1-2v-7z" fill="#0494D8"/>
<path transform="translate(807,296)" d="m0 0 1 2 3 1-5 2-2 5-1 1h-5l5-6 3-2z" fill="#049FDE"/>
<path transform="translate(281,266)" d="m0 0 2 1-1 13h-3l-1-3v-10h1l1 8z" fill="#AFE5F2"/>
<path transform="translate(907,181)" d="m0 0 3 1-3 3-7 2-4-2 8-3z" fill="#0B2F43"/>
<path transform="translate(994,811)" d="m0 0 7 1 1 3-13-1v-2z" fill="#0B3B55"/>
<path transform="translate(797,307)" d="m0 0h5l-6 7-5 2 5-8z" fill="#07C3F2"/>
<path transform="translate(724,863)" d="m0 0h2v2l-4 3-9 2-4-1z" fill="#0F374D"/>
<path transform="translate(931,848)" d="m0 0h6l1 3-4 2h-5z" fill="#0C3246"/>
<path transform="translate(928,755)" d="m0 0h4l-2 10h-2l-1-5z" fill="#050910"/>
<path transform="translate(605,433)" d="m0 0 2 2 1 7-3 2-3-1 2-6z" fill="#04AAE7"/>
<path transform="translate(359,264)" d="m0 0 1 4-8 7-2-2z" fill="#083047"/>
<path transform="translate(638,887)" d="m0 0h7v2l-6 1h-13v-1z" fill="#123F55"/>
<path transform="translate(229,860)" d="m0 0 8 1 4 1v2l-7 1-5-3z" fill="#0383C3"/>
<path transform="translate(914,773)" d="m0 0h5l-1 3 3-1 2 1v2l-6 1-3-3z" fill="#041D2A"/>
<path transform="translate(245,767)" d="m0 0 1 2-5 5-8 1v-2l8-3h3z" fill="#092D3A"/>
<path transform="translate(816,379)" d="m0 0 3 2-3 6h-3v-7z" fill="#050E17"/>
<path transform="translate(285,356)" d="m0 0 4 2-4 8-3-3 1-4 2-2z" fill="#07273C"/>
<path transform="translate(933,988)" d="m0 0 2 1v2h3v2l-2 1h-8l2-1v-2h2z" fill="#04AAE9"/>
<path transform="translate(580,414)" d="m0 0h9l8 3 1 2-6-1-12-3z" fill="#A3EBF1"/>
<path transform="translate(849,327)" d="m0 0 2 1-2 5-5 3h-3v-2z" fill="#062534"/>
<path transform="translate(596,318)" d="m0 0 11 1 4 2-9 1-4-1v-2z" fill="#0A2A3C"/>
<path transform="translate(716,271)" d="m0 0 6 2 5 3 1 3-4-1-3-1-1-2-3-1z" fill="#0A3945"/>
<path transform="translate(310,185)" d="m0 0 4 2 4 5 1 7h-2l-3-8z" fill="#049BDC"/>
<path transform="translate(180,809)" d="m0 0 1 2h2l2 5 7 3-4 1-6-4-2-3z" fill="#0B2B3E"/>
<path transform="translate(279,794)" d="m0 0h8l1 4h-9z" fill="#06121D"/>
<path transform="translate(596,584)" d="m0 0 3 1-10 10-1-3z" fill="#03A0E0"/>
<path transform="translate(593,448)" d="m0 0 4 1h-3v2l-5 3-9 1 4-3 8-3z" fill="#05B6ED"/>
<path transform="translate(541,324)" d="m0 0 4 1-1 3-8 1v-3z" fill="#062230"/>
<path transform="translate(838,882)" d="m0 0 5 1 6 4 2 4-5-2v-2l-4-2z" fill="#093047"/>
<path transform="translate(232,754)" d="m0 0 3 1v2l6 3 1-2-1 4-4 1-3-5z" fill="#082639"/>
<path transform="translate(601,452)" d="m0 0 1 4-4 5h-2v-5z" fill="#0388D7"/>
<path transform="translate(423,439)" d="m0 0 1 2 1 5h-6v-2l-2-1z" fill="#041C28"/>
<path transform="translate(347,364)" d="m0 0h2l-2 5-6 10-1-4h2l2-7h2z" fill="#04A0DD"/>
<path transform="translate(445,804)" d="m0 0 6 1 1 4h-5l-3-4z" fill="#04ADEB"/>
<path transform="translate(251,625)" d="m0 0 2 4 2 10h-3l-1-7-1-4z" fill="#0A3644"/>
<path transform="translate(919,535)" d="m0 0h19v2l-5 1-1-1-13-1z" fill="#1A536C"/>
<path transform="translate(783,394)" d="m0 0 2 4h-2l-1 5-3-1v-3z" fill="#0A3C55"/>
<path transform="translate(577,396)" d="m0 0h10v2l-8 1-4-1z" fill="#0C2330"/>
<path transform="translate(697,260)" d="m0 0h5l8 4 1 3-6-2-8-4z" fill="#049CD8"/>
<path transform="translate(523,259)" d="m0 0 9 1v1l-9 2-4-1v-2z" fill="#0B364D"/>
<path transform="translate(834,983)" d="m0 0h12l-1 7-1-3-10-3z" fill="#06C1F2"/>
<path transform="translate(952,861)" d="m0 0 1 2 5-1v2l-10 3 2-4z" fill="#082234"/>
<path transform="translate(235,629)" d="m0 0h3l2 6-1 4-3-6-2 1z" fill="#05202D"/>
<path transform="translate(313,622)" d="m0 0h1l2 14-2-1-4-9 1-2 1 1z" fill="#0380C1"/>
<path transform="translate(607,573)" d="m0 0 3 1-9 9-1-3z" fill="#039FE0"/>
<path transform="translate(403,449)" d="m0 0 13 2v1l-11 1-2-1z" fill="#071520"/>
<path transform="translate(686,386)" d="m0 0v3l-5 5-3-1v-3z" fill="#06111C"/>
<path transform="translate(886,377)" d="m0 0 3 1v2l-4 1-5 3-3-1z" fill="#015E49"/>
<path transform="translate(818,280)" d="m0 0 5 3-1 5-3 2z" fill="#105A6C"/>
<path transform="translate(417,223)" d="m0 0 1 4-7 4h-2l2-4z" fill="#082F45"/>
<path transform="translate(938,785)" d="m0 0 3 1-2 4-10-2 4-1 3 1v-2z" fill="#0F415B"/>
<path transform="translate(920,428)" d="m0 0 6 5 1 6h-2l-5-9z" fill="#0392D6"/>
<path transform="translate(764,299)" d="m0 0h6l-2 4-7-1z" fill="#0380C1"/>
</svg>
