<?xml version="1.0" standalone="no"?>
<!DOCTYPE svg PUBLIC "-//W3C//DTD SVG 20010904//EN"
 "http://www.w3.org/TR/2001/REC-SVG-20010904/DTD/svg10.dtd">
<svg version="1.0" xmlns="http://www.w3.org/2000/svg"
 width="1080.000000pt" height="1064.000000pt" viewBox="0 0 1080.000000 1064.000000"
 preserveAspectRatio="xMidYMid meet">

<g transform="translate(0.000000,1064.000000) scale(0.100000,-0.100000)"
fill="#000000" stroke="none">
<path d="M2500 9290 c0 -5 7 -10 15 -10 8 0 15 5 15 10 0 6 -7 10 -15 10 -8 0
-15 -4 -15 -10z"/>
<path d="M5020 9149 c-198 -13 -512 -78 -725 -151 -589 -200 -1158 -578 -1491
-993 -104 -129 -219 -296 -300 -437 -80 -140 -213 -409 -247 -503 -14 -38 -40
-106 -57 -150 -43 -112 -113 -400 -145 -595 -15 -91 -30 -187 -35 -215 -4 -27
-6 -53 -4 -56 2 -3 38 -5 81 -3 86 4 91 8 92 76 2 86 83 465 146 684 131 451
476 1025 801 1334 179 169 301 264 505 390 430 266 944 435 1419 466 l100 7 0
72 c0 87 7 83 -140 74z"/>
<path d="M5374 9129 c3 -17 6 -53 6 -80 l0 -49 49 0 c90 0 356 -31 471 -55
103 -21 327 -87 450 -132 65 -23 159 -66 287 -130 l113 -56 43 46 c24 26 49
47 57 47 58 0 -185 132 -401 218 -193 77 -331 116 -595 167 -142 27 -361 55
-438 55 l-48 0 6 -31z"/>
<path d="M8169 9010 c-36 -10 -90 -29 -120 -41 -30 -12 -121 -45 -204 -74 -82
-29 -188 -68 -235 -85 -47 -18 -202 -74 -345 -124 -143 -51 -273 -99 -290
-107 -48 -23 -93 -91 -100 -153 -19 -146 18 -195 270 -359 61 -40 115 -81 120
-93 9 -17 15 -20 35 -12 49 18 120 104 105 128 -7 12 -172 120 -270 177 -38
23 -83 55 -99 72 -26 27 -28 35 -20 58 13 37 75 77 159 104 39 12 113 40 165
61 113 48 206 82 400 149 316 110 435 149 457 149 13 0 32 -9 43 -20 20 -20
20 -29 16 -488 -6 -558 -5 -542 -11 -568 -3 -12 -14 -24 -25 -27 -12 -3 -20
-14 -20 -26 0 -14 -8 -23 -26 -27 -17 -4 -23 -11 -19 -21 4 -11 1 -13 -12 -8
-12 4 -7 -5 12 -26 17 -18 23 -28 15 -24 -17 10 -82 57 -90 65 -8 9 -139 90
-145 90 -2 0 -29 16 -60 35 -30 20 -61 38 -68 41 -8 3 -104 -87 -238 -223
-203 -205 -428 -437 -454 -467 -40 -47 -169 -181 -410 -431 -154 -159 -323
-335 -375 -389 -287 -300 -1122 -1136 -1157 -1157 -30 -19 -39 -20 -121 -10
-106 13 -134 19 -317 66 -268 69 -370 95 -397 101 -25 5 -39 -5 -140 -108
-210 -212 -723 -713 -765 -748 -23 -18 -49 -35 -57 -36 -17 -2 -31 30 -20 47
4 7 3 9 -4 5 -6 -3 -22 8 -37 26 -17 22 -5 -9 34 -87 34 -66 72 -133 85 -150
l23 -29 447 444 c246 245 449 447 451 449 3 2 33 -3 67 -12 35 -9 115 -28 178
-42 63 -14 158 -36 210 -50 137 -35 296 -65 342 -65 22 0 56 7 76 17 23 10
126 107 262 246 124 127 344 350 490 496 255 256 390 394 570 586 264 281 383
406 450 474 122 124 278 288 395 415 61 66 130 140 155 165 25 26 94 97 154
159 60 62 113 112 118 112 10 0 144 -98 213 -156 70 -58 145 -94 197 -94 89 1
174 67 197 154 8 30 9 221 3 691 -9 725 -6 691 -80 740 -52 34 -104 38 -183
15z"/>
<path d="M5035 8499 c-319 -31 -616 -119 -935 -279 -128 -65 -349 -204 -421
-266 -257 -223 -333 -305 -515 -556 -50 -70 -184 -306 -216 -383 -17 -38 -36
-83 -43 -100 -93 -207 -173 -498 -210 -759 -8 -55 -12 -103 -9 -108 3 -4 38
-8 79 -8 l74 0 5 33 c2 17 9 73 15 122 13 104 75 356 125 500 183 534 554
1006 1012 1287 303 186 624 301 964 343 106 13 117 16 138 42 55 67 79 144 45
142 -10 -1 -58 -6 -108 -10z"/>
<path d="M5390 8485 c0 -39 39 -122 65 -139 12 -8 80 -22 151 -31 153 -19 217
-33 348 -75 131 -42 286 -108 421 -179 99 -52 251 -145 265 -161 3 -4 25 -20
50 -37 25 -17 54 -40 64 -52 11 -11 25 -21 32 -21 7 0 35 28 63 61 l51 61 -39
22 c-21 11 -64 43 -96 71 -286 249 -828 464 -1236 490 -52 3 -104 8 -116 11
-19 4 -23 0 -23 -21z"/>
<path d="M8926 8332 c-3 -5 -8 -31 -11 -59 l-7 -50 -53 -17 c-34 -10 -54 -23
-58 -35 -7 -29 5 -39 58 -48 l50 -8 11 -55 c16 -84 48 -80 73 8 12 42 29 56
94 76 20 6 23 41 5 53 -7 4 -31 10 -53 13 -36 4 -40 8 -43 35 -7 81 -12 95
-37 95 -13 0 -26 -4 -29 -8z"/>
<path d="M2505 8240 c-3 -5 -1 -18 4 -27 9 -16 10 -14 11 10 0 28 -5 34 -15
17z"/>
<path d="M5194 8192 c-40 -32 -44 -55 -44 -235 0 -173 0 -175 -22 -181 -13 -3
-34 -6 -48 -6 -57 0 -229 -53 -313 -96 -163 -83 -247 -143 -370 -269 -125
-127 -236 -348 -274 -545 l-19 -95 -230 -3 c-230 -2 -231 -2 -254 -27 -30 -31
-31 -96 -3 -133 l20 -27 236 4 236 3 5 -23 c3 -13 7 -58 9 -99 6 -86 51 -232
100 -325 25 -47 37 -60 55 -59 12 0 51 1 87 2 l65 2 -34 68 c-50 100 -103 259
-115 347 -6 42 -11 78 -11 80 0 2 59 5 131 7 l131 3 29 33 c33 37 37 67 13
101 -27 39 -74 51 -190 51 l-106 0 7 53 c24 186 144 406 289 530 142 120 384
237 528 254 l48 6 0 -119 c0 -98 4 -123 18 -140 43 -54 104 -58 150 -11 l32
33 0 118 0 118 33 -7 c222 -44 415 -145 553 -287 65 -67 164 -193 164 -209 0
-21 28 -5 82 45 l56 53 -24 43 c-90 159 -283 328 -489 431 -74 36 -249 88
-328 96 l-58 6 3 184 3 185 -33 29 c-37 34 -85 38 -118 11z"/>
<path d="M6792 8029 c4 -11 108 -74 108 -66 0 6 -98 77 -106 77 -3 0 -4 -5 -2
-11z"/>
<path d="M6910 7950 c0 -5 5 -10 11 -10 5 0 7 5 4 10 -3 6 -8 10 -11 10 -2 0
-4 -4 -4 -10z"/>
<path d="M8242 7940 c0 -14 2 -19 5 -12 2 6 2 18 0 25 -3 6 -5 1 -5 -13z"/>
<path d="M8896 7689 c-36 -42 -34 -81 5 -113 40 -34 51 -33 88 9 39 44 39 62
2 103 -37 40 -62 40 -95 1z"/>
<path d="M1821 7673 c-30 -38 -35 -66 -17 -102 22 -42 52 -57 82 -40 28 15 31
29 7 29 -13 0 -19 9 -20 31 -1 17 -7 37 -13 44 -14 17 23 49 50 42 11 -3 20
-2 20 3 0 9 -35 20 -67 20 -12 0 -31 -12 -42 -27z"/>
<path d="M7749 7297 c-47 -45 -121 -114 -164 -152 l-79 -71 47 -96 c26 -52 47
-98 47 -101 0 -3 32 -81 70 -172 59 -138 76 -194 105 -328 18 -89 37 -197 42
-240 l8 -79 70 0 c39 0 75 1 82 1 8 1 10 14 7 39 -12 80 -45 269 -54 297 -4
17 -27 100 -50 185 -37 137 -92 285 -111 300 -23 18 -19 53 11 102 33 53 119
158 130 158 5 0 31 -26 197 -195 62 -64 122 -112 163 -133 38 -19 45 -36 90
-209 38 -148 56 -242 84 -458 l12 -90 73 -3 c41 -2 77 1 81 5 13 14 -18 304
-49 458 -41 208 -140 531 -197 646 l-33 66 -53 -9 c-108 -20 -225 14 -341 100
-42 30 -95 63 -101 62 0 0 -40 -38 -87 -83z"/>
<path d="M5138 7066 c-108 -31 -200 -108 -258 -216 -34 -64 -35 -68 -35 -180
0 -106 2 -120 28 -172 39 -79 105 -149 179 -188 54 -29 75 -35 150 -38 141 -7
224 35 337 169 90 107 106 147 105 254 0 78 -4 98 -30 150 -16 34 -55 86 -89
122 -52 52 -71 64 -131 83 -87 27 -194 34 -256 16z m221 -177 c54 -27 66 -38
82 -75 21 -46 26 -96 15 -129 -3 -12 -47 -43 -103 -75 -89 -50 -103 -54 -177
-60 -92 -6 -113 -14 -95 -36 6 -8 9 -17 7 -20 -12 -11 -67 71 -83 122 -21 67
-15 120 23 188 32 58 61 82 133 107 67 24 113 19 198 -22z"/>
<path d="M9190 6689 c-30 -16 -47 -29 -37 -29 21 0 93 35 102 50 9 15 -5 11
-65 -21z"/>
<path d="M9154 5967 c-32 -28 -27 -62 12 -71 30 -8 74 16 74 39 0 17 -35 55
-49 55 -6 0 -22 -10 -37 -23z"/>
<path d="M7846 5769 c-4 -41 -11 -225 -16 -409 -5 -185 -13 -351 -19 -370 -11
-36 -15 -67 -6 -59 2 3 11 30 19 60 l15 54 -3 -58 c-2 -32 -8 -63 -14 -69 -6
-6 -8 -17 -5 -24 3 -8 0 -14 -6 -14 -6 0 -11 10 -11 23 -1 20 -2 20 -11 4 -7
-13 -6 -21 5 -32 8 -9 12 -23 9 -32 -4 -11 -8 -13 -11 -5 -6 18 -22 4 -22 -19
0 -13 -4 -18 -12 -13 -7 4 -10 4 -6 -1 4 -4 1 -17 -7 -29 -19 -26 -19 -47 0
-22 12 16 13 14 11 -25 -1 -24 -8 -45 -14 -47 -7 -2 -12 -12 -12 -23 0 -10 -5
-19 -10 -19 -6 0 -20 -21 -31 -47 -12 -27 -26 -55 -30 -63 -5 -8 -15 -26 -21
-40 -14 -27 -29 -41 -38 -35 -4 2 -4 -9 -2 -26 3 -21 0 -29 -11 -29 -19 0
-102 -76 -89 -81 12 -5 -4 -49 -17 -49 -6 0 -8 8 -5 18 3 9 -5 4 -18 -13 -12
-16 -23 -34 -24 -40 0 -5 -2 -15 -2 -22 -1 -7 -9 -10 -17 -7 -8 4 -15 1 -15
-5 0 -6 4 -11 10 -11 5 0 6 -8 3 -17 -4 -11 -8 -12 -11 -5 -2 7 -8 12 -14 12
-5 0 -7 -9 -3 -20 4 -13 -1 -25 -14 -37 -12 -10 -21 -21 -21 -25 0 -13 -72
-78 -81 -72 -5 3 -9 -6 -9 -20 0 -18 -4 -24 -15 -20 -10 4 -15 0 -15 -15 0
-14 -5 -19 -15 -15 -10 4 -15 0 -15 -11 0 -9 -5 -13 -10 -10 -6 4 -10 3 -9 -2
4 -21 -2 -33 -15 -33 -8 0 -21 -8 -28 -17 -7 -10 -25 -24 -40 -32 -16 -8 -28
-19 -28 -25 0 -17 -69 -68 -82 -60 -7 4 -8 3 -4 -5 4 -6 0 -14 -8 -17 -9 -3
-16 -14 -17 -23 0 -14 -1 -13 -8 2 -6 16 -9 15 -31 -10 -14 -15 -18 -22 -10
-15 19 16 31 15 24 -3 -4 -8 -12 -15 -18 -15 -7 0 -29 -16 -50 -35 -22 -20
-49 -38 -62 -41 -13 -4 -24 -12 -24 -19 0 -7 -15 -20 -32 -30 -18 -9 -51 -27
-73 -40 -95 -57 -97 -58 -106 -43 -7 10 -9 9 -9 -5 0 -11 -4 -15 -11 -11 -7 4
-30 -2 -53 -14 -23 -11 -50 -24 -61 -27 l-20 -7 20 -8 c19 -7 19 -7 -2 -14
-13 -4 -23 -11 -23 -15 0 -4 -9 -7 -20 -8 -11 -1 -18 2 -15 8 4 5 1 9 -5 9 -6
0 -13 -7 -16 -15 -4 -8 -17 -15 -30 -15 -13 0 -32 -10 -43 -21 -11 -12 -26
-19 -35 -16 -10 4 -13 1 -9 -9 6 -15 -12 -20 -21 -5 -3 5 -15 7 -26 4 -11 -3
-17 -9 -14 -14 2 -5 -10 -8 -28 -7 -33 1 -275 -55 -313 -72 -11 -5 -36 -11
-55 -15 -19 -3 -50 -8 -67 -12 -18 -3 -31 -8 -29 -12 2 -3 -24 -6 -58 -7 -33
0 -100 -4 -148 -8 -77 -7 -87 -10 -92 -29 -6 -25 -8 -651 -2 -658 2 -2 69 -1
147 3 386 19 810 140 1224 348 375 189 653 386 910 646 228 231 337 371 506
651 284 470 445 1024 449 1548 1 77 1 146 1 154 -1 11 -54 13 -313 10 -172 -2
-345 1 -384 5 l-71 8 -7 -73z m298 -233 c-3 -8 -13 -17 -22 -19 -12 -3 -9 -6
11 -11 29 -9 39 -46 12 -46 -8 0 -27 -13 -42 -30 -20 -23 -35 -30 -63 -30 -63
0 -65 17 -7 72 61 57 87 77 104 77 7 1 10 -5 7 -13z m296 -91 c0 -11 -5 -27
-10 -35 -8 -11 -10 -7 -8 17 1 17 -4 39 -12 49 -14 16 -13 16 8 3 12 -8 22
-23 22 -34z m-33 -47 c-3 -8 -6 -5 -6 6 -1 11 2 17 5 13 3 -3 4 -12 1 -19z
m10 -60 c-3 -8 -6 -5 -6 6 -1 11 2 17 5 13 3 -3 4 -12 1 -19z m-10 -75 c-3
-10 -5 -2 -5 17 0 19 2 27 5 18 2 -10 2 -26 0 -35z m-30 -145 c-2 -13 -4 -5
-4 17 -1 22 1 32 4 23 2 -10 2 -28 0 -40z m-2490 -1914 c-3 -3 -12 -4 -19 -1
-8 3 -5 6 6 6 11 1 17 -2 13 -5z m-457 -74 c0 -5 -7 -10 -15 -10 -8 0 -15 5
-15 10 0 6 7 10 15 10 8 0 15 -4 15 -10z m37 4 c-3 -3 -12 -4 -19 -1 -8 3 -5
6 6 6 11 1 17 -2 13 -5z"/>
<path d="M8065 5450 c-3 -5 -1 -10 4 -10 6 0 11 5 11 10 0 6 -2 10 -4 10 -3 0
-8 -4 -11 -10z"/>
<path d="M2014 5683 c19 -418 71 -697 188 -1008 164 -438 451 -894 767 -1219
248 -254 589 -495 926 -653 414 -195 741 -290 1148 -334 59 -7 109 -10 111 -8
9 9 1 363 -13 562 -2 35 -20 16 -23 -25 -3 -34 -5 -39 -12 -23 -19 47 -30 65
-41 65 -20 0 -91 71 -77 76 21 9 13 21 -19 28 -17 3 -28 10 -24 16 3 5 5 10 3
10 -17 0 -118 20 -133 26 -19 7 -19 7 -3 -9 9 -9 27 -17 40 -18 13 0 32 -4 43
-9 14 -6 8 -7 -21 -5 -23 1 -46 4 -50 7 -5 2 -29 6 -54 7 -25 2 -46 7 -48 12
-5 14 -80 11 -84 -3 -3 -7 -19 -11 -41 -10 -20 2 -37 -2 -37 -8 0 -6 -54 -10
-150 -10 -131 0 -150 -2 -150 -16 0 -12 7 -15 30 -12 20 3 30 0 30 -9 0 -8
-12 -13 -30 -13 -16 0 -30 5 -30 10 0 20 -33 9 -60 -20 -35 -37 -40 -37 -40 0
0 27 3 30 30 30 20 0 30 5 30 15 0 10 -10 15 -30 15 -16 0 -30 5 -30 10 0 6
-18 10 -40 10 -29 0 -40 4 -40 15 0 11 -11 15 -40 15 -36 0 -40 3 -40 25 0 23
-4 25 -40 25 -29 0 -40 4 -40 15 0 11 -11 15 -40 15 -45 0 -45 -1 -34 -97 5
-34 12 -53 21 -55 12 -2 11 -7 -5 -21 -18 -16 -21 -16 -35 -2 -9 8 -24 15 -34
15 -15 0 -15 -2 -3 -10 10 -6 1 -9 -30 -8 -58 0 -130 39 -131 71 0 12 -3 16
-6 10 -5 -15 -33 -18 -33 -4 0 5 6 12 13 15 6 3 0 3 -14 0 -16 -3 -30 0 -38
10 -8 9 -18 16 -23 16 -12 0 -188 131 -212 158 -11 12 -24 22 -29 22 -11 0
-59 42 -197 174 -210 200 -455 550 -606 863 -112 235 -153 343 -204 545 -68
265 -92 439 -94 663 l-2 180 -88 3 -89 3 7 -148z m1933 -2559 c-3 -3 -12 -4
-19 -1 -8 3 -5 6 6 6 11 1 17 -2 13 -5z m60 -14 c3 -10 2 -11 -4 -4 -4 6 -15
14 -23 17 -11 5 -9 6 4 4 11 -1 21 -9 23 -17z m-201 -45 c10 -8 14 -15 8 -15
-5 0 -19 7 -30 15 -10 8 -14 15 -8 15 5 0 19 -7 30 -15z m434 -15 c0 -5 -4
-10 -10 -10 -5 0 -10 5 -10 10 0 6 5 10 10 10 6 0 10 -4 10 -10z m-273 -66
c-3 -3 -12 -4 -19 -1 -8 3 -5 6 6 6 11 1 17 -2 13 -5z m50 -30 c-3 -3 -12 -4
-19 -1 -8 3 -5 6 6 6 11 1 17 -2 13 -5z"/>
<path d="M2435 5820 l-220 -5 38 -26 c21 -15 64 -52 97 -83 32 -31 62 -56 67
-56 5 0 40 -32 78 -71 39 -39 82 -79 97 -90 l27 -20 -4 31 c-4 35 2 60 16 60
5 0 10 -10 10 -22 1 -15 4 -10 8 12 6 32 7 28 14 -30 10 -92 63 -332 86 -394
21 -55 80 -186 84 -186 1 0 3 39 3 87 1 49 5 142 9 208 4 73 3 160 -3 220 -6
55 -14 162 -18 238 l-7 137 -81 -2 c-45 -1 -180 -5 -301 -8z m212 -177 c-3
-10 -5 -2 -5 17 0 19 2 27 5 18 2 -10 2 -26 0 -35z"/>
<path d="M7578 5775 c-6 -30 -3 -43 8 -33 3 4 4 19 2 35 l-3 28 -7 -30z"/>
<path d="M7546 5705 c-9 -26 -7 -32 5 -12 6 10 9 21 6 23 -2 3 -7 -2 -11 -11z"/>
<path d="M7501 5618 c-7 -18 -20 -46 -27 -62 -17 -35 -17 -36 -4 -36 6 0 10 6
10 13 0 8 11 19 25 25 24 11 35 42 15 42 -6 0 -8 11 -4 25 9 35 1 31 -15 -7z"/>
<path d="M7390 5411 c0 -5 -6 -16 -13 -23 -7 -7 -20 -25 -30 -40 -9 -15 -45
-46 -79 -70 -35 -23 -77 -55 -94 -70 -17 -15 -64 -49 -105 -75 -41 -26 -76
-48 -79 -50 -2 -2 2 -8 10 -14 11 -6 12 -11 3 -17 -8 -5 -8 -11 1 -24 13 -17
69 -54 99 -64 9 -4 17 -10 17 -15 0 -12 78 -11 82 1 2 6 9 1 15 -9 11 -17 8
-29 -20 -81 -38 -72 -168 -218 -249 -281 l-58 -44 0 -272 c0 -150 4 -273 9
-273 29 0 332 364 437 525 69 106 185 338 225 450 30 85 32 98 33 230 0 77 -4
158 -8 180 l-9 40 -11 -40 -12 -40 -9 35 -9 35 -4 -40 c-3 -32 -6 -36 -12 -20
-7 15 -9 10 -9 -22 -1 -30 -5 -43 -15 -43 -7 0 -16 -10 -19 -22 -5 -17 -9 -19
-20 -10 -10 9 -13 27 -9 62 3 35 1 50 -7 50 -8 0 -10 8 -6 20 8 26 1 25 -25
-2 -11 -12 -20 -17 -20 -10 0 6 5 14 10 17 6 3 10 13 10 21 0 8 -4 14 -10 14
-5 0 -10 -4 -10 -9z"/>
<path d="M9097 5342 c-24 -27 -37 -69 -37 -122 0 -39 4 -52 22 -64 23 -17 64
-21 93 -10 26 10 45 59 45 114 0 42 -5 55 -26 75 -31 29 -74 32 -97 7z"/>
<path d="M6612 4849 c-2 -104 -5 -126 -17 -126 -10 0 -15 11 -16 31 0 17 -3
25 -6 17 -5 -11 -7 -11 -14 0 -6 10 -9 11 -9 2 0 -7 -7 -13 -15 -13 -8 0 -15
-7 -15 -16 0 -9 -10 -29 -22 -44 -13 -15 -48 -67 -78 -116 -30 -48 -60 -92
-65 -98 -6 -6 -22 -27 -35 -46 -49 -72 -137 -165 -210 -223 -41 -33 -97 -80
-125 -106 l-50 -46 1 -292 c0 -161 3 -295 6 -298 17 -17 352 117 480 191 165
96 197 119 202 144 7 37 5 811 -3 1000 l-8 165 -1 -126z m-563 -1025 c3 -3 -6
-12 -20 -22 -13 -9 -24 -14 -24 -12 0 3 -12 -5 -25 -18 l-25 -23 -3 32 c-4 41
17 59 61 52 18 -3 34 -7 36 -9z"/>
<path d="M8945 4669 c-46 -40 -65 -78 -65 -126 0 -108 113 -172 215 -123 58
28 85 70 85 130 0 86 -65 150 -152 150 -39 0 -54 -6 -83 -31z"/>
<path d="M7700 4681 c0 -5 -3 -16 -6 -25 -3 -9 -2 -16 3 -16 5 0 10 11 11 25
1 14 0 25 -3 25 -3 0 -5 -4 -5 -9z"/>
<path d="M7665 4610 c-4 -12 -5 -24 -2 -27 3 -2 8 5 12 17 4 12 5 24 2 27 -3
2 -8 -5 -12 -17z"/>
<path d="M3261 4596 c7 -15 15 -23 17 -16 3 7 -3 19 -13 28 -15 16 -16 15 -4
-12z"/>
<path d="M7621 4514 c0 -11 3 -14 6 -6 3 7 2 16 -1 19 -3 4 -6 -2 -5 -13z"/>
<path d="M5652 4220 c0 -14 2 -19 5 -12 2 6 2 18 0 25 -3 6 -5 1 -5 -13z"/>
<path d="M5488 4083 c7 -3 16 -2 19 1 4 3 -2 6 -13 5 -11 0 -14 -3 -6 -6z"/>
<path d="M5395 4044 c-28 -26 -28 -28 -10 -35 19 -7 19 -8 -2 -10 -13 -1 -27
-2 -31 -3 -20 -3 -141 -109 -135 -119 4 -6 15 0 29 16 27 32 29 33 31 8 1 -10
-9 -24 -23 -31 -13 -8 -24 -22 -24 -32 0 -10 -9 -23 -20 -30 -11 -7 -20 -21
-20 -30 0 -10 -7 -18 -17 -18 -34 0 -142 -54 -154 -77 -13 -25 -28 -30 -30
-10 0 6 -7 -10 -15 -38 -7 -27 -14 -94 -14 -147 l0 -96 68 -9 c106 -13 447 -9
545 6 l87 13 -1 202 c-1 110 -4 189 -6 173 -5 -31 -22 -27 -24 6 -1 20 -2 20
-9 -3 -7 -21 -8 -22 -9 -5 -1 14 -17 27 -51 42 -50 22 -56 32 -52 86 1 9 -3
17 -8 17 -6 0 -11 15 -11 33 -1 23 -3 26 -6 10 -6 -33 -23 -28 -23 7 0 17 -4
30 -10 30 -5 0 -10 -4 -10 -10 0 -5 -15 -10 -32 -9 l-33 1 33 14 c32 14 40 36
24 62 -7 9 -16 6 -37 -14z m35 -19 c0 -8 -7 -15 -15 -15 -16 0 -20 12 -8 23
11 12 23 8 23 -8z m-72 -78 c3 -16 1 -17 -17 -5 -25 16 -27 31 -4 26 10 -2 19
-11 21 -21z m142 -77 c0 -5 -4 -10 -10 -10 -5 0 -10 5 -10 10 0 6 5 10 10 10
6 0 10 -4 10 -10z m-220 -24 c0 -2 -7 -6 -15 -10 -8 -3 -15 -1 -15 4 0 6 7 10
15 10 8 0 15 -2 15 -4z"/>
<path d="M2094 3890 c-11 -4 -33 -23 -48 -41 -79 -94 49 -222 143 -143 57 47
50 137 -13 175 -34 20 -50 22 -82 9z"/>
<path d="M1639 3851 c-43 -43 -49 -73 -24 -121 17 -32 61 -60 95 -60 34 0 78
28 95 60 25 49 19 88 -19 126 -49 49 -95 48 -147 -5z"/>
<path d="M8345 3858 c-2 -7 -6 -44 -7 -82 l-3 -69 -45 -4 c-56 -5 -135 -44
-182 -89 -75 -70 -140 -165 -157 -229 -8 -32 -30 -42 -103 -44 -36 -1 -38 -3
-38 -35 0 -18 3 -47 6 -64 6 -31 7 -31 72 -34 l66 -3 12 -48 c20 -80 62 -154
115 -201 61 -55 118 -83 201 -100 l63 -13 5 -69 5 -69 57 -3 56 -3 7 76 7 75
38 0 c43 0 178 64 226 107 61 56 112 152 126 238 3 18 10 20 62 17 71 -4 96
13 96 68 0 50 -14 60 -86 60 -64 0 -74 7 -74 48 0 33 -48 118 -94 169 -72 80
-206 153 -283 153 -21 0 -22 5 -25 78 l-3 77 -58 3 c-40 2 -59 -1 -62 -10z m7
-283 c26 -33 103 -37 111 -5 7 28 46 26 112 -5 59 -28 103 -73 137 -138 18
-35 21 -57 20 -137 -3 -161 -39 -227 -153 -284 -83 -41 -99 -44 -124 -16 -25
28 -78 27 -97 -2 -15 -22 -15 -22 -61 -4 -61 23 -121 67 -156 116 -32 44 -71
172 -55 177 6 2 9 25 6 56 -4 48 -1 57 38 114 41 62 88 106 145 136 41 22 54
21 77 -8z"/>
<path d="M8334 3410 c-119 -59 -107 -234 20 -270 65 -18 132 -8 164 24 25 25
26 27 9 43 -17 17 -18 17 -11 -1 6 -16 4 -18 -10 -13 -10 4 -20 7 -22 7 -14 0
0 30 17 35 11 4 18 9 15 12 -3 3 -1 13 4 23 6 11 4 26 -6 44 -8 16 -14 32 -14
37 0 17 17 9 27 -13 5 -12 12 -17 16 -12 10 17 -16 57 -52 81 -43 29 -102 30
-157 3z m154 -56 c-3 -14 -5 -12 -10 9 -3 19 -2 25 4 19 6 -6 8 -18 6 -28z
m27 -64 c3 -5 1 -10 -4 -10 -6 0 -11 5 -11 10 0 6 2 10 4 10 3 0 8 -4 11 -10z
m-100 -118 c-3 -3 -11 0 -18 7 -9 10 -8 11 6 5 10 -3 15 -9 12 -12z"/>
<path d="M4668 3593 l-1 -88 -7 65 c-7 65 -12 59 -13 -12 0 -27 -5 -38 -16
-38 -11 0 -10 -3 5 -15 23 -17 15 -19 -23 -4 -38 15 -103 28 -103 20 0 -4 38
-18 84 -32 l84 -26 6 30 c3 16 6 65 6 108 0 110 -20 102 -22 -8z"/>
<path d="M6745 3580 c-3 -5 -1 -10 4 -10 6 0 11 5 11 10 0 6 -2 10 -4 10 -3 0
-8 -4 -11 -10z"/>
<path d="M4460 3535 c33 -19 45 -19 26 0 -8 8 -23 15 -33 15 -14 -1 -13 -4 7
-15z"/>
<path d="M2494 3490 c-34 -13 -54 -50 -54 -98 0 -37 6 -50 34 -78 42 -42 82
-45 125 -9 56 47 62 124 14 177 -17 19 -81 24 -119 8z"/>
<path d="M6585 3490 c-3 -5 1 -10 9 -10 8 0 18 5 21 10 3 6 -1 10 -9 10 -8 0
-18 -4 -21 -10z"/>
<path d="M2064 3472 c-74 -59 -48 -165 47 -194 35 -10 43 -9 67 9 72 53 69
154 -5 192 -32 16 -85 13 -109 -7z"/>
<path d="M1645 3445 c-39 -40 -44 -71 -19 -115 41 -68 111 -74 164 -14 41 47
40 86 -4 130 -48 48 -92 47 -141 -1z"/>
<path d="M6390 3389 c0 -5 5 -7 10 -4 6 3 10 8 10 11 0 2 -4 4 -10 4 -5 0 -10
-5 -10 -11z"/>
<path d="M4575 3247 c11 -9 28 -17 38 -17 10 0 16 -4 13 -8 -3 -5 9 -9 27 -9
18 0 52 -3 77 -7 68 -11 44 0 -52 23 -48 12 -95 24 -105 28 -15 5 -15 3 2 -10z"/>
<path d="M4508 3233 c7 -3 16 -2 19 1 4 3 -2 6 -13 5 -11 0 -14 -3 -6 -6z"/>
<path d="M4558 3223 c7 -3 16 -2 19 1 4 3 -2 6 -13 5 -11 0 -14 -3 -6 -6z"/>
<path d="M3570 3209 c0 -5 5 -7 10 -4 6 3 10 8 10 11 0 2 -4 4 -10 4 -5 0 -10
-5 -10 -11z"/>
<path d="M4528 3203 c7 -3 16 -2 19 1 4 3 -2 6 -13 5 -11 0 -14 -3 -6 -6z"/>
<path d="M4970 3160 c14 -9 109 -15 99 -6 -2 2 -29 6 -59 9 -37 4 -50 3 -40
-3z"/>
<path d="M5080 3146 c0 -8 61 -12 66 -4 3 4 -11 8 -30 8 -20 0 -36 -2 -36 -4z"/>
<path d="M2893 3060 c-35 -21 -54 -69 -46 -114 7 -37 67 -86 104 -86 67 0 114
49 112 118 -1 30 -9 43 -39 70 -44 38 -83 41 -131 12z"/>
<path d="M1644 3036 c-45 -45 -46 -90 -5 -134 73 -75 186 -32 186 71 0 54 -48
97 -106 97 -33 0 -47 -6 -75 -34z"/>
<path d="M7439 2687 c-18 -12 -44 -38 -57 -57 -48 -71 -13 -193 68 -235 61
-31 158 -11 200 43 28 35 44 94 36 136 -8 41 -55 100 -97 122 -43 22 -110 18
-150 -9z"/>
<path d="M2093 2649 c-45 -13 -73 -53 -73 -103 0 -48 19 -80 60 -101 37 -19
65 -19 100 1 52 32 74 98 48 147 -14 28 -47 57 -64 57 -7 0 -18 2 -26 4 -7 2
-27 0 -45 -5z"/>
<path d="M3314 2646 c-43 -19 -64 -53 -64 -101 0 -50 44 -101 96 -111 44 -8
96 23 119 72 15 32 15 41 3 71 -24 65 -94 96 -154 69z"/>
<path d="M2488 2632 c-37 -22 -61 -75 -53 -112 8 -37 68 -90 101 -90 58 0 114
59 114 120 0 45 -56 100 -101 100 -19 0 -46 -8 -61 -18z"/>
<path d="M1673 2620 c-70 -42 -78 -96 -23 -151 48 -48 120 -31 157 38 17 32
17 34 -2 70 -12 21 -33 42 -52 50 -41 17 -42 17 -80 -7z"/>
<path d="M2936 2626 c3 -7 -2 -21 -12 -30 -20 -21 -32 -13 -14 9 24 29 -1 30
-26 2 -59 -69 4 -180 89 -156 16 5 30 10 31 11 1 2 7 15 13 30 10 23 9 27 -8
31 -13 3 -17 11 -13 21 3 9 1 16 -5 16 -6 0 -11 7 -11 15 0 20 -10 19 -26 -2
-7 -10 -16 -15 -20 -11 -4 5 0 16 8 25 19 22 20 53 2 53 -8 0 -11 -6 -8 -14z
m-59 -88 c-3 -7 -5 -2 -5 12 0 14 2 19 5 13 2 -7 2 -19 0 -25z"/>
<path d="M2991 2601 c26 -21 35 -20 26 4 -4 8 -16 15 -28 15 -21 0 -21 0 2
-19z"/>
<path d="M5228 1863 c17 -2 47 -2 65 0 17 2 3 4 -33 4 -36 0 -50 -2 -32 -4z"/>
<path d="M5463 1853 c15 -2 39 -2 55 0 15 2 2 4 -28 4 -30 0 -43 -2 -27 -4z"/>
<path d="M5613 1853 c15 -2 37 -2 50 0 12 2 0 4 -28 4 -27 0 -38 -2 -22 -4z"/>
</g>
</svg>
