<?xml version="1.0" encoding="UTF-8"?>
<svg version="1.1" viewBox="0 0 1200 1184" width="300" height="296" xmlns="http://www.w3.org/2000/svg">
<path transform="translate(915,180)" d="m0 0 9 1 6 4 4 5 1 2 1 42 1 102-2 9-9 10-7 3h-10l-10-5-16-10-6-2-1 4-4 7v8l7 8 9 6 12 6 5 1h21l8 15 5 17 9 34 5 24 3 24 1 14-1 1-23 1h-54l-7-1-3-5-5-30-6-25-11-26-8-18-5-9-5 2-16 13-14 12-8 8-8 7-23 23-18 22-16 17-8 11-7 7-7 8-9 8-5 3-7 8-15 15-7 8-7 7-8 7-14 14-8 12-10 14-4 8-1 4 1 2 10 4 7 8 2 12v102l-1 28-1 11-10 4-16 2h-39l-8-3-2-2-2-60v-37l-1-36-2-16-5-3-14-5-15-3-9-3-12-1-10 2-11 7-9 8-18 18-7 10-12 13-8 7-9 8-9 2-2 4 2 1-5-1-13-12-7-12-7-14-10-16-8-14 2-4 4-5 8-7 9-10 10-9 7-8 9-9 7-8 23-23 3-4h2l1-3 8-7 14-14 13-10 5-2h10l16 5 8 3 37 9 12 3h7l10-7 8-10 2-3h2l2-4 12-13 10-9 13-13 8-7 7-7 7-8 11-11 7-8 9-9 7-8 9-10 9-9h2l2-4 7-8 9-8 7-8 8-7 11-12 17-17 9-11 7-6 7-9 10-10 6-5 5-5 2-3-1-6-4-2-27-18-7-7-3-7v-14l5-10 8-5 14-6 36-13 15-6 37-13 30-10zm-6 18-31 11-7 3 3 1 14-4 8-1h10l9 2 1-1v-9l-1-2z" fill="#087CC1"/>
<path transform="translate(890,193)" d="m0 0 3 1h-2v2l-10 4-2 1 8 1 9-2 10-1-3 2-30 11 15-4 8-1h10l9 2 1-9 2 4 1 20 1 70v46l-1 2-7-1-12-8-12-9-15-9-8-2-8 7-27 27-7 8-8 8h-2l-2 4h-2l-2 4-13 13-7 8-9 10-3 4h-2l-2 4-29 29-3 4h-2l-2 4-25 25-7 8-13 13-6 7-26 26-7 8-46 46-7 8-13 13-10 8-4 1h-11l-27-5-25-6-18-4h-13l-17 16-15 14-55 55-8 7-7 4h-2l-8-14-9-15-7-12 2-4 4-5 8-7 9-10 10-9 7-8 9-9 7-8 23-23 3-4h2l1-3 8-7 14-14 13-10 5-2h10l16 5 8 3 37 9 12 3h7l10-7 8-10 2-3h2l2-4 12-13 10-9 13-13 8-7 7-7 7-8 11-11 7-8 9-9 7-8 9-10 9-9h2l2-4 7-8 9-8 7-8 8-7 11-12 17-17 9-11 7-6 7-9 10-10 6-5 5-5 4-5 4-1 6-5 2-7-26-17-11-7-6-6v-6l4-4 5-4 2-1-1-3h2l1-3h2v-2l14-6 17-6 18-6 12-5 8-5 10-3 6-3z" fill="#12CAF1"/>
<path transform="translate(872,535)" d="m0 0h85l1 4v19l-3 34-4 23-8 32-9 25-10 23-11 22-12 20-12 17-9 12-11 13-7 8-4 5h-2l-2 4-17 16-13 11-16 12-15 10-21 13-22 12-19 9-28 11-19 6-28 7-28 4-13 1h-12l-3-1-2-7v-57l1-10 34-4 44-11 21-7 16-8 19-10 11-8 14-9 9-7 14-12 10-9 3-1 2-4 12-12h2l2-4 9-10 13-17 9-14 9-16 8-19 5-15 4-28 1-31 1-25z" fill="#087CC1"/>
<path transform="translate(565,165)" d="m0 0h8v17l-35 3-27 5-23 7-20 8-3 1h14l16-4 31-7 15-3 17-2h14l1 22v16l-1 7v8l-9 12-2 1-15 1-26 6-24 7-24 10-19 10-22 14-17 13-10 9-9 8-1 2h-2l-2 4-8 8-11 15-13 19-8 14-10 19-9 25-11 40-3 18-1 12-1 1h-90l-1-4 5-35 5-24 9-30 8-21 12-27 11-21 15-25 12-17 14-18 9-10 7-8 20-18 11-9 18-13 17-12 22-12 16-8 22-10 19-7 24-7 36-7zm-119 48-26 12-14 8-12 8-14 10-14 11-14 12-7 7-8 7-10 12-12 16-8 12-8 11-2 5 5-1 5-5 10-12 8-10 8-9 8-10 11-13 8-8 11-9 13-10 18-11 17-10 11-7 12-11 6-4z" fill="#12CAF1"/>
<path transform="translate(302,535)" d="m0 0h9l1 1 4 49v45l6 23 10 19 4 10 10 18 10 14 9 10 10 11 9 11 7 7 11 9 20 15 17 12 16 9 22 12 18 7 25 7 29 6 21 3 2 1 1 18v48l-2 7-4 1-17-1-26-4-28-7-24-8-32-13-30-15-19-12-16-11-12-9-14-12-13-12-17-17-9-11-13-16-7-10-13-20-10-17-11-21-13-32-8-24-6-26-4-31-1-24v-19z" fill="#0890DA"/>
<path transform="translate(794,448)" d="m0 0h22l16 4 6 7 5 12 1 5 1 36v87l-2 20-4 16-11 24-9 16-8 12-12 16-13 16-11 12-7 8h-1l-1-10-1-31v-141l-1-19v-21l2-33 2-12 4-6 4-5 11-9z" fill="#60D515"/>
<path transform="translate(915,180)" d="m0 0 9 1 6 4 4 5 1 2 1 42 1 102-2 9-9 10-7 3h-10l-10-5-16-10-2-4-11-8-4 1-2 4-5 5-6 5-7 8-16 16-8 10-4 2-2 5-7 6-3 4h-2l-2 4-7 8-5 4-7 8-16 17-10 9-9 11-5 4-7 9-7 6-3 5-15 16-21 21-8 7-6 7-8 7-12 12-3 5-10 9-8 8-5 4-3 5-7 7-7 8-15 16-10 10-8 6-10 1-31-6-48-12h-8l-9 9-8 7-15 16-10 10h-2v2h-2l-2 4-24 24h-2v2h-2v2h-2l-2 4-13 12-1 2h-2v3l-4-2-6-9-3-5 1-4 8-5 16-15 55-55 8-7 7-7 8-7h13l40 9 23 5 7 1h11l7-3 16-15 9-9 7-8 46-46 7-8 22-22 12-13 11-11 7-8 21-21 7-8 29-29 7-8 13-14 7-8 9-9 5-6 8-7 7-7 7-8 28-28 4-1 9 4 15 9 13 10 8 5 7 2v-48l-1-70-1-24h-2v-2l-22 3-9 2-1-2-6 1 1-2 11-4h2l-1-2-15 4-9 4-9 3-7 4-9 4-18 6-11 4-18 7h-2v2l-3 3h-2v2l2 1-5 2-1 3-4 1-1 9 9 8 15 9 19 13-2 7-8 7-4-1-2-4-4-2-27-18-7-7-3-7v-14l5-10 8-5 14-6 36-13 15-6 37-13 30-10z" fill="#08273D"/>
<path transform="translate(698,550)" d="m0 0 12 1 13 4 7 6 5 9 2 13v85l-1 66-1 24-5 7-22 13-16 8-17 7-9 3h-5l-1-8-1-28-1-90-1-30v-16l1-31 1-14 1-3 6-5 2-5 2-4 5-5 8-4z" fill="#60D516"/>
<path transform="translate(255,549)" d="m0 0 11 4 8 6 7 6 7 10 7 6 5 23 3 12 10 25 7 12 4 10 2 2v3l4 1 4 8 2 11 2 8 7 10 11 16 12 15 7 9 6 5 9 11 7 6 5 6 10 7v2l5 2 12 8 12 7 13 6 5 5-3 2-16-6-5-4-13-3h-9l-10-3-2-2-7 1v-2l-19-2-1-2-11-1-12-5v-2l-4-1v-2h-3v-2h-3v-2l-5-2v-2l-3-1-1-2-3-1-4-6v-2l-4-1v-3h-2l-5-5-1-3-2-2-3-4v-2h-2l-6-9-8-13-9-15-10-21-4-8-2-6-6-14-7-24-5-18-4-25-1-12v-13l1-3 5-1 3-6h2z" fill="#12CAF1"/>
<path transform="translate(610,639)" d="m0 0 9 1 7 7 2 5 1 9v102l-1 28-1 11-10 4-16 2h-39l-8-3-2-2-2-60v-37l-1-47 25-1 14-5 11-6 10-7z" fill="#60D415"/>
<path transform="translate(869,330)" d="m0 0 7 4 7 6v2l-6-1-1 4-4 7v9l-9 9-8 7-16 15-2 3h-2l-1 2-5 2-16 13-14 12-8 8-8 7-23 23-18 22-16 17-8 11-7 7-7 8-9 8-5 3-7 8-15 15-7 8-7 7-8 7-14 14-8 12-10 14-4 8-1 4 1 2 3 2-5 3-16 10-11 5-7 2h-25l-3-6-12-5-12-3-11-3-7-2-12-1-10 2-11 7-9 8-18 18-7 10-12 13-8 7-9 8-9 2-2 4 2 1-5-1-8-7 1-4h2l2-4 13-12 1-2h2v-2h2v-2l8-7 19-19 1-2h2v-2l8-7 12-12 7-8 17-16h8l16 4 37 9 26 5 10-1 11-9 15-15 7-8 15-16 3-5 12-11 7-7 4-3 3-5 17-17h2l2-4h2l2-4 17-16 20-20 7-8 4-6 8-7 7-9 5-5 11-12 8-7 16-17 8-9 7-6 4-6 5-5 6-5 3-5 6-5 8-10 14-14 7-8 6-5 5-5z" fill="#BFE1E0"/>
<path transform="translate(531,976)" d="m0 0h98l217 5 9 4-1 5-13 5-7 1-65 3-92 2-33 1h-114l-44-2-41-1-38-2-59-2-24-2-3-1-1-2v-6l11-1 104-4 68-2z" fill="#17A0C8"/>
<path transform="translate(601,190)" d="m0 0 18 1 24 3 37 9 23 7 14 5 12 4 10 7 3 5-1 9-1 5v10l2 3 2 12 6 11 2 4 4 2 11 10v5l-6 7-3 2-3 5-4-2-12-9-19-12-27-14-25-10-23-7-26-5-13-2-6-8-1-4-1-41 1-11z" fill="#12CAF1"/>
<path transform="translate(579,271)" d="m0 0 9 1 5 5v41l14 2 20 6 13 6 18 11 11 9 11 11 10 13 2 5-10 11-4-1-10-13-13-14-13-10-16-8-16-6-16-4v24l-2 5-6 5-7-1-5-4-2-4v-25l-20 4-15 6-14 8-14 10-7 6-10 13-8 15-7 21-1 11 21 1 9 2 3 9-3 5-8 4h-24l4 22 6 18 6 13v3h-10l-7 1-8-16-5-15-3-25h-53l-4-6v-7l4-7 51-1 6-24 9-21 10-16 9-10 13-13 18-12 10-6 17-6 12-3 13-2v-35l2-7z" fill="#030A16"/>
<path transform="translate(939,535)" d="m0 0h18l1 4v19l-3 34-4 23-8 32-9 25-10 23-11 22-12 20-12 17-9 12-11 13-7 8-4 5h-2l-2 4-17 16-13 11-16 12-15 10-21 13-22 12-19 9-28 11-19 6-28 7-28 4-13 1h-12l-3-1-2-7v-8l1-2 10 1 19-2 20-3 31-7 26-8 20-8 16-8 23-12 16-10 11-7 14-10 10-8 8-7 4-4h2v-2l8-7 9-8 9-11 11-13 11-15 15-23 13-24 6-13 10-24 7-22 7-33 3-18 1-19v-26l-20-2v-1z" fill="#08263C"/>
<path transform="translate(224,536)" d="m0 0h20l-2 4v34l5 33 7 30 9 28 4 9 4 10 10 19 11 20 12 19 7 9 2 5h2l10 13 8 9v2h2l7 8 7 7 11 9 10 9 5 3v2l5 2 10 8 13 8 25 14 28 13 24 9 22 7 25 6 29 5 16 1 1 1v8l-2 7-4 1-17-1-26-4-28-7-24-8-32-13-30-15-19-12-16-11-12-9-14-12-13-12-17-17-9-11-13-16-7-10-13-20-10-17-11-21-13-32-8-24-6-26-4-31-1-24z" fill="#08253B"/>
<path transform="translate(565,165)" d="m0 0h8v17l-35 3-27 5-23 7-20 8-16 6-11 4-6 2v2l-19 9-21 13-16 12-13 10-14 12-7 7-8 7-9 11-12 16-8 12-8 11-9 15-3 7h-2l-3 9h-2l-1 5-4 10-7 15-5 13-3 11h-2l-1 8-6 21-8 38-3 20h-16l-1-4 5-35 5-24 9-30 8-21 12-27 11-21 15-25 12-17 14-18 9-10 7-8 20-18 11-9 18-13 17-12 22-12 16-8 22-10 19-7 24-7 36-7z" fill="#030A16"/>
<path transform="translate(842,544)" d="m0 0 2 1 1 54-2 20-4 16-11 24-9 16-8 12-12 16-13 16-11 12-7 8h-1l-1-10-1-31 1-70 2-7 10-4 19-13 10-8 9-8 9-14 2-4h3l-1-3 10-19 3-1z" fill="#10992B"/>
<path transform="translate(485,684)" d="m0 0 14 2 10 4 7 8 4 8 2 14v38l-1 27-1 13-7-1-20-6-17-7-24-12-9-7-1-10v-35l2-11 5-10 6-7 11-5 9-2z" fill="#60D515"/>
<path transform="translate(908,553)" d="m0 0 9 3 9 8 7 8 1 5 1 15-2 12-5 15-3 10-2 5-3 12-5 14h-2l-1 3-5 10-6 10-2 5-2 1-2 7-3 6-3 3-4 5-6 2v2l-5-1 2-2 1-7 3-1 1-4-1-2 1-9 2-4v-3l2-4v-3l-7 10-6 4h-2v2h-2l-1 5h-2l-2 4-5 13-4 1-1 2-5 1-1-2-8 2-5 5-4 2h-2l2-6 7-10 3-4 1-4h2l2-6 8-16 7-13h2l3-9 2-4 2-8 2-3 1-14 3-9 2-5h2l1-8 2-8 1-2 3-15 2-3h2v-2h2l1-5 5-5 3-1 2-6h2v-2z" fill="#0890DA"/>
<path transform="translate(734,634)" d="m0 0 2 1v99l-1 24-5 7-22 13-16 8-17 7-9 3h-5l-1-8-1-28v-32l10-6 13-10 10-9 8-9 11-17 8-12 7-15h3l3-4 1-10z" fill="#10992B"/>
<path transform="translate(569,237)" d="m0 0h3v6l-9 12-2 1-15 1-26 6-24 7-24 10-19 10-22 14-17 13-10 9-9 8-1 2h-2l-2 4-8 8-11 15-13 19-8 14-10 19-9 25-11 40-3 18-1 12-1 1h-14l-2-1 4-27 6-27 12-36 9-21 7-12 5-9 7-11 10-15 8-10 7-9 12-13 8-7 14-12 15-11 10-7 12-7 28-14 21-8 29-9 30-5 15-2z" fill="#07253B"/>
<path transform="translate(573,397)" d="m0 0h19l10 3 10 6 9 11 4 9 2 9v11l-8 16-11 12-8 7-11 4-6 1h-9l-13-4-9-7-8-10-4-8-2-10v-12l3-11 6-10 6-7 11-7z" fill="#030B18"/>
<path transform="translate(874,391)" d="m0 0h6l7 5 4 4 5 4 5 6 8 7 13 13 5 11 7 30 3 18 1 21-5 1h-33l-10-2-2-4-2-12-4-16v-6h-2l-5-21-5-16-5-13-2-4v-10l3-5h2l4-8h2z" fill="#12CBF2"/>
<path transform="translate(627,691)" d="m0 0 2 4v68l-1 28-1 11-10 4-16 2h-39l-8-3-2-2v-36l8-3 6-4 14-11 12-9 12-11 7-7 5-7h2v-2l6-5 2-4z" fill="#11992B"/>
<path transform="translate(613,604)" d="m0 0 5 1 1 4-8 7-2 5-5 7-5 4-2 1-1 4h5l-4 9-7 4-13 4h-7l-7 1h-6l-4-1v-2h-4l-2-5-5-2-6-1-19-3h-9l-16-2-10 2-11 7-9 8-18 18-7 10-12 13-8 7-9 8-9 2-2 4 2 1-5-1-8-7 1-4h2l2-4 13-12 1-2h2v-2h2v-2l8-7 19-19 1-2h2v-2l8-7 12-12 7-8 17-16h8l16 4 11 3v2l12 2 19 5 18 3 9 1h6l1 7 1 4h5l-3-4v-6l-3-1v-3h2l1-3 3-1 5-5 5-6 4-4h2l1-3 3-1 1 1 1-2 2 1z" fill="#ACE0E8"/>
<path transform="translate(928,753)" d="m0 0h12l1 1v16l12 3 14 7 9 8 6 10 5 14 12 1 3 3v8l-1 1-14 1-6 16-6 9-9 8-10 5-13 3h-3l1 9v6l-1 1h-11l-1-1 1-15-9-1-12-4-8-5-8-9-6-13-3-8h-11l-3-3-1-2v-9l2-2 13 1 2-9 6-10 9-11 10-7 10-3h6l1-18zm-4 30-10 5-7 6-7 10-2 6v18l3 8 9 10 14 7h5l3-4 5 1 3 4 8-1 13-7 6-8 4-10 1-19-3-8-9-10-5-4-13-4-3 6-12-3v-2z" fill="#030B17"/>
<path transform="translate(334,680)" d="m0 0 3 3 7 14 12 17 9 10 10 11 9 11 7 7 11 9 20 15 17 12 7 4-2 5 2 1-1 2 5 1 5 2v2l6 2 4 2v2l7 2 19 8 6 4 5 3-2 2-12 3h-9l-7 1v2h-5l-3 3-4 1h-9l-9-2-4-2v-2l-7-2-22-12-2-4-9-3-19-6-10-7-9-4-9-7-6-5-5-6-9-9-5-3-9-10-13-18-1-4 3 2v2h2l5 7 2 2-1 2 4 2 1 3h2l1 3 3 1 4 6v2l4 1 3 3v2l5 2v2h3v2h3v2l4 1v2l5 1 7 3 11 1 1 3h11l8 2v2l3-2 5 1 6 3 7 1h7l13 3 9 6 13 4v-4l-4-2-12-5-8-5-9-5-12-8v-2l-4-2-9-7-2-4-4-2-12-13v-2l-4-2v-2l-4-2-10-13-11-14-16-24-1-6z" fill="#079DE0"/>
<path transform="translate(278,147)" d="m0 0h3l1 7v3l6 1 12 3 12 6 10 10 7 12 3 9 1 5v19l-4 13-10 14-8 7-13 6-15 4-2 5h-3l-1-5-16-3-6-3-13-8-8-10-8-16-1-4v-17l2-10 4-9 6-9 10-10 11-7 8-3 11-1-1-7zm-3 23-12 3-10 7-10 11-3 10v16l4 13 6 9 9 8 9 4 13 1 11-2 14-7 7-10 4-9 2-9v-11l-3-10-6-9-8-7-13-6-8-2z" fill="#37AFC9"/>
<path transform="translate(944,536)" d="m0 0h12l1 13v24l-3 26-5 25-8 29-11 29-14 29-10 18-14 21-12 16-11 13-7 8-4 5h-2l-2 4-17 16-13 11-16 12-15 10-21 13-22 12-19 9-28 11-19 6-28 7-28 4-13 1h-12l-3-1v-6l9-1h20l13-2 1-1 9-1 9-2 11-3 7-1 8-3 7-1 9-3 18-7 9-4h3v-2l12-6 7-1v-2l14-8h2l1-3 4-2 7-6 6-3h2l1-2 3-3h4v-2l8-4 6-2 2-4h2l1-3h3v-2l5-3 1-3 4-2 9-7 4-5 5-5 6-7h2v-3h2l1-3 4-5 2-1v-2l3-3h2v-2h2l1-4 2-1 1-3h2l1-4 6-8 4-9 6-9h3l1-4 6-12 3-1v-3l5-5h2l2-7 4-8 5-12 6-15 1-7 2-3 1-10 5-1v-6l4-8 1-8 3-17 1-13 1-3 1-22v-22l-3-1v-2l-3-1z" fill="#040E1C"/>
<path transform="translate(224,536)" d="m0 0h16l-4 8-2 10v21l2 13 2 12 2 2 1 4-1 3h2v7l3 1 1 15h2v4l1 6 2 10 1 8 4 9 1 7 3 1v3l2 1v6l5 2v6l2 7 1 5h2v3h2l3 7v3h2l5 10 6 9v3h2l5 8 5 5 4 3 2 6 5 5 12 13 18 18 6 7 5 5 4 3v4l4 1 5 5 8 6 6 3 5 5 7 6 12 6 2 2 7 3 5 3 15 7v2l5 1 7 3 5 1v2l12 3 3 1v2l10 1 10 4 15 4 7 2 6 2 4 1 21 4 16 1h7l7-3h3v8l-1 2-4 1-17-1-26-4-28-7-24-8-32-13-30-15-19-12-16-11-12-9-14-12-13-12-17-17-9-11-13-16-7-10-13-20-10-17-11-21-13-32-8-24-6-26-4-31-1-24z" fill="#030C1A"/>
<path transform="translate(302,535)" d="m0 0h9l1 1 4 49v45l6 23 7 14-1 2-2-1v-2l-2-1-4-8-3-8-6-10-6-16-4-10-5-23-2-9-9-8-6-9-11-9-7-3-5-2-3 2-3 6h-5v16l2 20 4 20 4 15 5 17 4 12 5 10 2 6 7 16 10 19 10 16 5 10h-2l-8-14h-3l-13-23-9-19-7-16-8-26-7-30-5-33v-34l3-4z" fill="#0D85B4"/>
<path transform="translate(842,604)" d="m0 0h1v15l-4 16-11 24-9 16-8 12-12 16-13 16-11 12-7 8h-1l-1-10-1-31v-14l2-8 7-1 12-11 5-6 4-4 10-13 3-3h3v-2l9-7 3-2h3l1 5v5l2 2 2-2 2 1 2-10 3-9 2-9z" fill="#046025"/>
<path transform="translate(472,404)" d="m0 0 3 1-2 1 2 3-2 10h-2l1 6-2 3 2 6 3-2 1-2 21 1 9 2 3 9-3 5-8 4h-24l4 22 6 18 6 13v3h-10l-7 1-8-16-5-15-3-25h-53l-4-6v-7l4-7 51-1 1-5 3 1-1 4-2 3h2l1 5h2l1-13 4-15 2-4h3z" fill="#051225"/>
<path transform="translate(406,980)" d="m0 0h17l-1 3 2-1h23l68 1 13 2 12 1 5 1 9 2-4 4-28 3-26 2 5 1v1h-15l-41-1-38-2-59-2-24-2-3-1-1-2v-6l11-1z" fill="#3AB0CA"/>
<path transform="translate(734,664)" d="m0 0 2 4v66l-1 24-5 7-22 13-16 8-17 7-9 3h-5l-1-8v-27l1 4 7-1 7-4h2v-2l6-2v-2l4-1v-2h3v-2l9-7 5-5 11-8 5-5 10-9 2-4 1-16v-24z" fill="#045F23"/>
<path transform="translate(771,980)" d="m0 0h30l45 1 9 4-1 5-13 5-7 1-65 3-50 1h-38l-11-2-18-2-1-7 6-3 16-2 4-1h32l77-1-15-1z" fill="#37AFC9"/>
<path transform="translate(566,242)" d="m0 0h5l-1 4-7 9-2 1-15 1-26 6-24 7-24 10-19 10-22 14-17 13-10 9-9 8-1 2h-2l-2 4-8 8-11 15-13 19-8 14-10 19-9 25-11 40-3 18-1 12-1 1h-5l-1-1 1-18 3-15 4-18 4-13 6-17 4-13 2-6 4-3 4-9 7-13 3-6h2l1-4 7-9 6-9 2-4h2l1-4 6-5 7-8 9-10 2-1 3-5 4-2 2-4 8-8h2v-3l3-1 2-3 7-1v-2l4-2 1-5h3v-2l8-2v-1l8-2 1-2 4-2h4v-2l15-6 13-7 5-2-2-1 1-3 10-3 9-3 11-2h12l10 1 6-1 2 1 7-2z" fill="#030B18"/>
<path transform="translate(292,720)" d="m0 0 3 3 6 10v2h2l7 11 10 13 9 10 8 10 13 13 8 7 9 7 2 1v2l4 2 11 8 12 7 14 8 10 6 16 8 9 5 7 3 9 4 7 2 14 5 3 2 9 2h2l-2-1-2-5 11 2 26 4 11 2 14-1 5-5 3-4 2-9v-4h2v3l1-1v-13l-1-4-14-1-25-4-15-3-13-4h-3v-2l-10-2-20-8-11-5v-2l-5-1-5-2-1-5 1-2 6 2 26 14 18 7 25 7 29 6 21 3 2 1 1 18v40l-17-1-29-5-17-4-27-8-22-8-20-9-17-8-16-9-15-9-12-9-6-4v-2l-5-2-11-10-11-9-13-13v-2h-2l-18-22v-2h-2l-4-6-8-11-10-16z" fill="#087CC1"/>
<path transform="translate(807,367)" d="m0 0h2l-2 4-13 13-7 8-9 10-3 4h-2l-2 4-29 29-3 4h-2l-2 4-25 25-7 8-13 13-6 7-26 26-7 8-46 46-7 8-13 13-10 8-4 1h-11l-27-5-25-6-18-4h-13l-17 16-15 14-55 55-8 7-7 4h-2l-8-14-9-15-7-12 2-4 5-4 1 2-1 5h2l5 9 7 10 2 2 6 2h5l7-3h3v-2h2l2-4h2v-2l8-7 14-14 8-9h2v-2h2l2-4h2v-2l7-6 6-4 2-3h2v-2l5-2v-3l7-6 5-6 5-4 7-1 24 6 46 10 16 1 9-4h2l2-4 12-11 10-13 4-5 7-6h2v-2h2l1-3 5-4h2l2-4 6-7 13-10 15-15h2v-2l9-7 4-5h2v-2l5-5 11-10 5-5 11-12 23-23 7-8 10-10 2-3h2l2-4 5-5 6-7 5-5h2l2-4 3-3h2l1-4 5-5 2-3h2l1-3 5-4 3-4h2l2-4z" fill="#097FBD"/>
<path transform="translate(600,235)" d="m0 0 2 2v3h15l10 1 10 2 23 5 29 9 21 10 17 10 12 8 15 11 9 6h2l-1 4-6 5-3 5-4-2-12-9-19-12-27-14-25-10-23-7-26-5-13-2-6-8z" fill="#08263C"/>
<path transform="translate(874,391)" d="m0 0h6l7 5 4 4 5 4 5 6 8 7 13 13 5 11 7 30 3 18 1 21-5 1h-33l-10-2-2-4-2-12-4-16v-6h-2l-5-21-5-16-5-13-2-4v-10l3-5h2l4-8h2zm8 19v2h-2v2h-3l-1 4-2 1 1 5h2l-1 3 3 12 2 9 3 13 2 2 2 6 8 21 5 5 4 3 10-1 3-4 2-6v-6l-1-5 3-17 2-9-2-10-3-8-9-10-3-1v-2h-2v-2l-11-6-9-1z" fill="#079DE0"/>
<path transform="translate(598,164)" d="m0 0 30 3 25 4 24 5 25 7 15 6 29 13 12 7 1 4-4 5h-2l-2 5h-5l-19-10-19-9-24-9-10-3-24-5-23-3-24-2-5-1-1-9v-7z" fill="#040E1B"/>
<path transform="translate(558,190)" d="m0 0h14l1 22v16l-1 8h-9l4-4 2-7-1-18-4-9-4-2h-11l-19 5-7 3-16 3-19 3-15 1-26 11-8 4h-2v2l-11 8-13 8-22 14-9 7-9 9h-2v2l-7 6-12 12-7 8-2 3h-2l-2 5-11 11-7 8-7 7-5 7-4 4-6 10-9 14-5 8-12 26-9 25-4 11-4 8h-1l1-14 3-11h2l2-11 5-13 5-11 7-15 1-4h2l1-5 2-4h2l3-9 5-8 6-2 5-5 13-16 7-8 13-16 11-13 9-9 11-9 13-10 18-11 17-10 11-7 12-11 4-3-8 4-3-1 10-5 18-6h16l16-4 31-7 15-3z" fill="#43C0DA"/>
<path transform="translate(575,413)" d="m0 0h13l10 4v2l5 2 5 10 1 5v13l-5 10-8 7-9 4h-13l-9-4-8-8-3-7-1-5v-9l4-11 6-7z" fill="#12CAF1"/>
<path transform="translate(320,307)" d="m0 0 2 1-20 28-11 18-3 7h-2l-3 9h-2l-1 5-4 10-7 15-5 13-3 11h-2l-1 8-6 21-8 38-3 20h-16l-1-4 5-35 5-24 9-30 2-6 2 3 1 4h-2v2h4l1-5h-2l1-2 3-9h2l1-5 3-8h2l3-6 3-1-1-2 2-4 3-2v-4h2l3-9 7-14 5-7 5-1 4-5 5-6h2l2-5 3-6 8-9 1-3z" fill="#07172B"/>
<path transform="translate(485,684)" d="m0 0 14 2 10 4 7 8 4 8 2 14v38l-1 27-1 13-7-1-20-6-17-7-24-12-9-7-1-10v-35l2-11 5-10 6-7 11-5 9-2zm-3 5-8 3-6 3-1 3h-2v2l-4 1-6 3-5 8-2 12 1 28 3 10 4 4 4 3h2v2l12 4 10 3 1-2 8-2 3-6 3-2v-2l4-1v-2l5 1 5-5 2-3 1-6 1-1 2-21v-7l-3-11-3-5h-2l-1-5-3-4-11-4z" fill="#54BF1B"/>
<path transform="translate(872,364)" d="m0 0 4 1 10 8 14 7 5 1h21l8 15 5 17 9 34 5 24 3 24 1 14-1 1h-16v-9l-5-30-7-29-3-12-8-20-7-17-4-7v-2l-8-1-10-5-5-3-7-1-5-2-1-5h2z" fill="#030C19"/>
<path transform="translate(923,182)" d="m0 0 5 1 6 7 1 2 1 42 1 102-2 9-9 10-7 3h-10l-10-5-16-10-2-4-11-8-4 1-2 4-5 5-6 5-7 8-16 16-8 10-4 2-2 5-7 6-3 4h-2l-2 4-5 6-5-1v-2h2v-2h2v-2h-2v-9l5-7 4-1v-2l3-2 3-5 5-3 7-8h2v-2h2v-2l4-1v-2h2l1-5 6-4 5-5 6-1v-2l3-1 1-2 5-3 6-7 4-3 6 1 4 3v2h2l5 5 5 3v2l5 2 6 5 8 2h7l10-3 1-4 3-1v-136l-1-13-6-7z" fill="#081A2F"/>
<path transform="translate(1010,391)" d="m0 0h7l10 5 7 7 4 8 1 9-3 9-9 10-5 4-8 2h-10l-6-2-8-7-4-11v-12l4-9 4-5 9-6z" fill="#60D416"/>
<path transform="translate(601,190)" d="m0 0 18 1 24 3 37 9 23 7 14 5 12 4 10 7 3 5-1 9-1 5v10l2 3 2 12 6 11 2 4 4 2 11 10v5l-5 1-13-10-19-13-13-8-17-9-17-7-27-8-21-4-8-2-25-2-1-3-1 6h-1l-1-41 1-11zm6 5-3 2-1 9-1 23 3 5 6 2 18 2 13 3 21 5 21 7 19 9 8 5 11 3 4 2 4-1 5-12v-17l-1-12-2-4-8-5-9-1-11-3-13-4-11-4-15-4-15-3-14-4-16-3z" fill="#3EBED9"/>
<path transform="translate(883,190)" d="m0 0 2 1v4l-10 3-9 4-9 3-7 4-9 4-18 6-11 4-18 7h-2v2l-3 3h-2v2l2 1-5 2-1 3-4 1-1 9 9 8 15 9 19 13-2 7-8 7-4-1-2-4-4-2-27-18-7-7-3-7v-14l5-10 8-5 14-6 36-13 15-6 37-13z" fill="#082A41"/>
<path transform="translate(846,386)" d="m0 0 1 2h3v-2l3 1 2 4 1 9 11 30 6 16 7 26 5 24 1 13-2 1h-12l-3-5-5-30-6-25-11-26-8-18-4-7v-4l6-4z" fill="#07253B"/>
<path transform="translate(582,407)" d="m0 0 1 2h3v-2h5l1 3h2l1-2 5 4h5l2 3v1h4l3 8 1 1v5l3-1 1 3-1 20-6 12-2 3h-3l-1 3-6 2v3l-11 5-8 1h-7v-2h-6l-9-5-5-4v-2h-2l-6-9-2-5-1-8v-11l3-11 5-1 5 1v-7l6-5 9-2 8-2 3 1zm-7 6-12 6-6 7-4 11v9l3 10 7 8 3 3 8 3h13l12-6 7-8 3-7v-13l-3-10-4-6-4-1v-2l-10-4z" fill="#07253B"/>
<path transform="translate(825,816)" d="m0 0h4l-1 4-16 12-17 12-20 12-21 12-23 11-28 11-19 6-28 7-28 4-13 1h-12l-3-1v-6l9-1h20l13-2 1-1 9-1 9-2 11-3 7-1 8-3 7-1 9-3 18-7 9-4h3v-2l12-6 7-1v-2l14-8h2l1-3 4-2 7-6 6-3h2l1-2 3-3h4v-2l8-4 8-3 10-8z" fill="#030D1B"/>
<path transform="translate(224,536)" d="m0 0h16l-4 8-2 10v21l2 13 2 12 2 2 1 4-1 3h2v7l3 1 1 15h2v4l1 6 2 10 1 8 4 9 1 7 3 1v3l2 1-1 5-2-1-4-8-3-7-3-2-2 2-9-24-7-26-4-23-2-18-1-24z" fill="#07182C"/>
<path transform="translate(404,432)" d="m0 0h29v1h-10v2l-6 3-3 2-5-1v7h47l5 2 3 9 4 16 2-1v-9l-1-4v-12l4-1 2 4 1 14 5 19 8 19 1 5h-10l-7 1-8-16-5-15-3-25h-53l-4-6v-7z" fill="#030A16"/>
<path transform="translate(716,392)" d="m0 0 3 4-2 4-11 8-3 5h-2l-1 5-7 9-5 5-4 2v2l-6 5h-2l-2 4-7 8h-2l-2 4-11 12-54 54-7 9-6 7-5 5-7 5-8 1-4-2 8-4 5-4 8-10 2-3h2l2-4 12-13 10-9 13-13 8-7 7-7 7-8 11-11 7-8 9-9 7-8 9-10 9-9h2l2-4 7-8z" fill="#3CB1CB"/>
<path transform="translate(916,200)" d="m0 0 2 4 1 20 1 70v46l-1 2-7-1-12-8-12-9-15-9-8-2-8 7-27 27-7 8-8 8h-2l-2 4-2-1 6-7h2l2-4 4-3 3-5 4-4h2l2-4h2l2-4 5-4 5-6 4-4 7-8 4-2 2-3 6 2 13 8 10 4 7 2 4-5 5-23 1-2 2-18 2-12v-46l-2-8 2-1z" fill="#089ADC"/>
<path transform="translate(663,515)" d="m0 0 2 1-12 12-7 8-3 3h-2l-2 4-32 32h-2l-2 4-13 13-8 7-7 7-3 1h-13l-20-4-24-6-15-4-16-3-8 1-32 32-6 5h-2l-2 4-18 18-4 2-2 4-12 12h-2l-2 4-5 4-5 5-6 4h-3l-5-9-7-11-5-4-4-7-1-6-4 2 2-4 5-4 1 2-1 5h2l5 9 7 10 2 2 6 2h5l7-3h3v-2h2l2-4h2v-2l8-7 14-14 8-9h2v-2h2l2-4h2v-2l7-6 6-4 2-3h2v-2l5-2v-3l7-6 5-6 5-4 7-1 24 6 46 10 16 1 9-4h2l2-4 12-11 10-13 4-5 7-6h2v-2h2l1-3 5-4h2l2-4 6-7 13-10 12-12z" fill="#149EC8"/>
<path transform="translate(320,307)" d="m0 0 2 1-20 28-11 18-3 7h-2l-3 9h-2l-1 5-4 10-7 15-5 13-3 11h-2l-1 8-6 21-8 38-3 20h-16v-1h13l1-4h-2l-3-5 2-15 3-16 2-10 3-13 2-6 3-8 3-6 1-6h2l1-4h3l1-7 3-7 4-11 3-1 2-7 4-2-2-6 1-11 3-5 5-10 5-7 5-1 4-5 5-6h2l2-5 3-6 8-9 1-3z" fill="#08283F"/>
<path transform="translate(872,364)" d="m0 0 4 1 10 8 14 7 14 2-4 1 6 11 2 5 5 7 3 5 6 7 4 12 4 19 3 9 3 17v6h2l2 18-2 8-1 2 2 1h-9v-9l-5-30-7-29-3-12-8-20-7-17-4-7v-2l-8-1-10-5-5-3-7-1-5-2-1-5h2z" fill="#08273E"/>
<path transform="translate(450,986)" d="m0 0h19l25 1 18 2 5-1 8 4 6 1-4 2-7 1h-63l-11-1h-15l-10-1-63-1-11-2v-3l12-1h77z" fill="#3DBEDA"/>
<path transform="translate(562,236)" d="m0 0h10l-4 3-15 2-30 5-38 12-21 9-15 8-18 10-12 9-13 10-13 11-13 12-7 8-7 9-8 11-10 15-8 13-9 16-12 29-9 28-6 27-4 25-1 2 2 1-4-1 1-11 2-11 1-11 9-33 9-24 4-10 4-9 8-17 8-13 5-9 4-4 6-9 11-14 6-7 2-4 5-5 5-3 3-3h2v-2l8-7 2-3h2v-2l5-2 5-4h2v-2l20-13 12-7 32-16 5-2 2-2 13-4 19-5 14-3z" fill="#0C86BD"/>
<path transform="translate(890,193)" d="m0 0 3 1h-2v2l-10 4-2 1 8 1 9-2 10-1-3 2-27 10-7 1-7 3-15 5-56 22-9 4-1 1v7l10 8-2 1-9-7-3-3v-6l4-4 5-4 2-1-1-3h2l1-3h2v-2l14-6 17-6 18-6 12-5 8-5 10-3 6-3z" fill="#0C81C3"/>
<path transform="translate(447,648)" d="m0 0v3l-6 8-4 4h-2l-1 4-3 2-1 3h-2v7l3-1 2-5 3-2 9-5h3l1-3 3-3h3v-2h2l2-4 5-3 3 1-8 6-7 8-8 8-7 10-12 13-8 7-9 8-9 2-2 4 2 1-5-1-8-7 1-4h2l2-4 13-12 1-2h2v-2h2v-2l8-7 19-19 1-2h2v-2z" fill="#C2E2E0"/>
<path transform="translate(302,535)" d="m0 0h9l1 1 4 49v24l-1 11-4-2-4-7-3-7-5-24-3-24-1-20z" fill="#08263C"/>
<path transform="translate(566,242)" d="m0 0h5l-1 4-7 9-2 1-15 1-26 6-24 7-24 10-9 4 2-5-12 5-5 3-6 2-8 6-6 4h-3v2l-8 6-4-1h2v-3l3-1 2-3 7-1v-2l4-2 1-5h3v-2l8-2v-1l8-2 1-2 4-2h4v-2l15-6 13-7 5-2-2-1 1-3 10-3 9-3 11-2h12l10 1 6-1 2 1 7-2z" fill="#07172C"/>
<path transform="translate(334,680)" d="m0 0 3 3 7 14 12 17 9 10 10 11 9 11 7 7 11 9 20 15 17 12 7 4-2 5 2 1h-4l-12-4-10-7-8-5v-2l-4-2-9-7-2-4-4-2-12-13v-2l-4-2v-2l-4-2-10-13-11-14-16-24-1-6z" fill="#19A1C9"/>
<path transform="translate(282,158)" d="m0 0 12 1 13 5 8 6 7 7 7 12 3 9 1 5v19l-4 13-3 2-1-5 1-7 3-1-1-3-2-2 1-5-2-11h-3l1 4h1v6l-4 1-1 3-2-18-6-12-9-8-13-6-8-2 2-4 2 1-1-3v-3l4-1-5-1z" fill="#1DA2C8"/>
<path transform="translate(324,202)" d="m0 0 2 1 2 13v4l1 4-2 1-1 8 1 5-9 12-9 7-11 5-15 4-2 5h-3l-1-5-7-1 3-2v-2h-3l-3-6 5-1 9 1 3-1v-2l-3-1 11-2 14-7 7-11 4-11 1-5 4-1 1-6-2-2 1-3z" fill="#38B0CA"/>
<path transform="translate(923,182)" d="m0 0 5 1 6 7 1 2 1 42 1 102-2 9-9 10-7 3h-10l-10-5-8-5 1-3 9 3v2l8 2 9-1 6-2 4-1 2-6v-138l-1-13-6-7z" fill="#030C19"/>
<path transform="translate(734,582)" d="m0 0h1l1 20v33l-2 2-1 9-5 5-2-1-3 9-7 12-16 24-11 12-9 8-11 8-8 5h-2l-1-58v-34l3 3 3 15 1 34 2 8v12l-1 4 2 5 4-1 7-4 7-7 7-6 13-18 6-9 1-3h2l1-4 4-6 4-9 5-9 2-13 1-14-1-8 1-15 1-8z" fill="#54BE1B"/>
<path transform="translate(244,539)" d="m0 0h7l4 1v2h5l14 6 9 4 11 10 2 9 4 24 5 19 5 12 2 4h3 1l6 23 7 14-1 2-2-1v-2l-2-1-4-8-3-8-6-10-6-16-4-10-5-23-2-9-9-8-6-9-11-9-7-3-5-2-3 2-3 6h-5v27h-1l-1-9v-21z" fill="#0F95C9"/>
<path transform="translate(831,883)" d="m0 0h11l6 4 4 5 1 3v10l-3 6-7 6-8 2-9-3-5-5-3-7v-8l5-8z" fill="#030813"/>
<path transform="translate(474,527)" d="m0 0h10l16 5 8 3 37 9 12 3v2h-14l-18-4-29-7-12-4h-8l-13 5-7 4h-2l-2 4h-2l-2 4-7 8-5 5-6 7-7 6-5 5-11 12-7 8-4 4h-2l-2 4-7 7-11 15-5 4-8 4-3 2 1-4 15-16 8-7 7-8 9-9 7-8 23-23 3-4h2l1-3 8-7 14-14 13-10z" fill="#4EC3DC"/>
<path transform="translate(933,801)" d="m0 0 8 1 6 4 4 6 1 4v8l-4 7-5 4-3 1h-9l-9-3-3-3-2-6v-9l4-8 5-4z" fill="#0E86B4"/>
<path transform="translate(1026,400)" d="m0 0 8 3 4 8 1 9-3 9-9 10-5 4-8 2h-10l-6-2-8-7-4-11v-12l2-6h2v2l2 1-1 7 3 1 3 7 2 1v2h3v2l5 2 4-1 6 1 6-4h3l2-6 1-5-1-1v-5l-3-1-1-7v-2z" fill="#54BF1A"/>
<path transform="translate(563,419)" d="m0 0 2 1-5 6-2 4-1 6 5-2-4 4h-2l3 11 5 2 8 4h9l11-4 5-4 7-7v-16l3 4 2 8v13l-5 10-8 7-9 4h-13l-9-4-8-8-3-7-1-5v-9l4-11z" fill="#0D84B5"/>
<path transform="translate(688,986)" d="m0 0 1 2 5-2h3l2 2h52l8-1h19l5-1 40 2 9 1 1 3-1 1h-36l-40 1-13 1-16-1-3-1v2h-11-2v1l-23 1-6-2v-2h-4v-2h3v-2z" fill="#3DBEDA"/>
<path transform="translate(896,207)" d="m0 0h10l2 3v5l-6 5-3-4v-3l-12 3-26 8-59 19-10 4-9 2 1-4 7-4 28-11 36-14 13-4 5-1 1 1 14-4z" fill="#ACE0E8"/>
<path transform="translate(872,535)" d="m0 0h16v11l-2 19-3 15-4 12-3 4-3 9-3 2v-40z" fill="#082A41"/>
<path transform="translate(531,976)" d="m0 0h98l38 1 14 1 29 1v2l-21 1h-43l-91-1h-53l-9-1 2-2 8-1z" fill="#1087B6"/>
<path transform="translate(999,661)" d="m0 0h8l8 4 5 8v8l-4 6-7 6-3 1h-7l-8-4-4-7v-9l3-6 7-6z" fill="#030916"/>
<path transform="translate(605,251)" d="m0 0h8l17 3 16 2 9 1 3 2 5 1 8 3 4 1v2l7 1 5 3 11 4 4 2v2l8 2 3 3 18 10 6 4 3 1v2l4 2 12 7 1 5-4 2-8-7-17-11-14-8-21-11-25-10-23-7-26-5-13-2z" fill="#030C19"/>
<path transform="translate(573,321)" d="m0 0 10 1 5 1 4 2 8 1v-2h2v-2l4 1v2l4-1 15 5 19 10v3h2v2l6 2v2h3v2l3 1v1h-5l-14-10-10-4-4-1-18-2-5-1-3-1-1 3h-4v-2l-7-1-5 1-5-1-1 2-6-1-2-2h-8-3l-1-5 4-1 4-3z" fill="#050F22"/>
<path transform="translate(274,196)" d="m0 0h9l7 3 4 5 1 2v7l-3 6-5 5-4 3-8 1-5-3-5-6-2-10 4-8z" fill="#23A3C7"/>
<path transform="translate(445,794)" d="m0 0 6 2 26 14 18 7 25 7 29 6 21 3 2 1 1 18v33l-2 3-5 1 3-10 1-4-2-3v-14l-1-6v-13l-1-4-14-1-25-4-15-3-13-4h-3v-2l-10-2-20-8-11-5v-2l-5-1-5-2-1-5z" fill="#1389B8"/>
<path transform="translate(944,536)" d="m0 0h12l1 13v24l-3 26-5 25-8 29-4 9-2 1v-15l1-7 3-1v-6l4-8 1-8 3-17 1-13 1-3 1-22v-22l-3-1v-2l-3-1z" fill="#030D1A"/>
<path transform="translate(934,641)" d="m0 0 3 1-1 9v11l1 2-11 27-13 26-9 15-6 1v2l-7 4-3 4h-2l-2 5-1-2 4-9 6-9h3l1-4 6-12 3-1v-3l5-5h2l2-7 4-8 5-12 6-15 1-7 2-3z" fill="#051429"/>
<path transform="translate(838,395)" d="m0 0 5 2 2 5v3h2l2 6 6 12 6 16 5 16 6 24 3 14 2 9v7h-6l-2-4-5-30-6-25-11-26-8-18-3-5v-5z" fill="#030A17"/>
<path transform="translate(313,330)" d="m0 0 1 2-6 11-18 28-5 8-12 26-9 25-4 11-4 8h-1l1-14 3-11h2l2-11 5-13 5-11 7-15 1-4h2l1-5 2-4h2l3-9 5-8 6-2 5-5z" fill="#A3DAE5"/>
<path transform="translate(225,210)" d="m0 0 4 2 1 10 2 1 2 5 6 7 3 3 1-3 5 1 7 8 12 6 16 2v2l-3 2-9-1-2-1-1 2 1 2v3h3l1 3h-10l-9-4-13-8-8-10-8-16-1-4z" fill="#1BA1C8"/>
<path transform="translate(624,249)" d="m0 0 9 1 6 1v2l6-2 5 1h5v2l8 1 14 5 10 5 8 2v2l6 1 5 3 7 2 8 3v3h4l3 7 1 3 7 2 6 4 3 1v2l4 1 4 4 2 1v-3l8 1-1 4-5 3-11-7-6-4v-2l-5-1-13-8-12-7v-2l-6-1-2-1v-2l-4-1-15-6-8-3v-2l-7-1-5-2-6-2-7-1-8-2-12-1-17-3v-1z" fill="#07182C"/>
<path transform="translate(235,180)" d="m0 0h6v3h5l2-2 2 4-7 8-2 8v16l4 13 3 6h-3l-4 2-8-10-1-5-3-1-1-10-3-2 1-12 5-12z" fill="#36AEC9"/>
<path transform="translate(558,190)" d="m0 0h14l1 22v16l-1 8h-9l4-4 2-7-1-18-4-9-4-2h-11l-19 5-7 3-16 3-19 3h-11l4-3 11-4 24-6 25-5z" fill="#4CC1D9"/>
<path transform="translate(607,601)" d="m0 0 2 1-9 10-12 12-8 6-10 1-31-6-48-12h-8l-9 9-8 7-15 16-10 10h-2v2h-2l-2 4-24 24h-2v2h-2v2h-2l-2 4-13 12-1 2h-2v3l-3-1 6-8 19-19 3-1v-2l8-7 6-7h2v-2l12-12h2l2-4 24-24 8-7 6-6h9l73 16 12 1 9-5 13-12z" fill="#1B92C0"/>
<path transform="translate(224,536)" d="m0 0h14v2h-2v3h-2l-2 8v25l-1 4 3 17-1 3h2l2 19 3 14v9h-4l-7-30-4-31-1-24z" fill="#030D1B"/>
<path transform="translate(600,233)" d="m0 0 2 1v2h22l18 4 21 5 21 7 19 9 8 5 7 2 3 3 5 2 5 3 4 4 8 3v4l4 2 5 3v-2l6-1 8 7 1 1v5l-5 1-13-10-19-13-13-8-17-9-17-7-27-8-21-4-8-2-25-2z" fill="#0D86BD"/>
<path transform="translate(765,253)" d="m0 0 4 4v-2l6-1v3l4 1v2h2v3l9 6 3 3 5 3 7 5h6l4 7-1 5-3 2h-6v-2l-4-2-27-18-7-7-2-4z" fill="#030915"/>
<path transform="translate(479,589)" d="m0 0 12 1 15 4v1l-9-1-9-2h-11l-22 22-7 8-58 58-8 7-7 4h-2l-8-14-9-15-6-11 1-3 3-1 1 7 4 7 5 4 7 11 4 7v2l6-3 6-4 5-5 4-5 8-7 12-12 4-2 2-4 18-18 12-11 24-24z" fill="#0B81B9"/>
<path transform="translate(550,677)" d="m0 0h2l3 7 1 9 1 54-1 12 4 1 14-8 4-3 2 1-10 8-6 5-8 4h-4v10h-1l-1-34z" fill="#56C01C"/>
<path transform="translate(919,381)" d="m0 0h7l8 15 2 8h-2v16l3 8 1 7 3 8 2 9-2 1-3-9-4-16-3-10-3-3-4-5-7-11-6-12-1-4z" fill="#051226"/>
<path transform="translate(383,836)" d="m0 0 7 4 15 9 14 7 4 3 4 1v2l6 1 7 4 10 2 12 6 8 3 9 4 22 5 8 1 12 3 10 3 8 2h3l6-1 4 2h6l7 1-3 3h-15l-20-3-9-2-7-2-6-2-4-1-21-6-4-2-10-2v-2l-10-2-5-2v-2l-7-1-10-4v-2l-6-2-13-6-4-3-5-2-6-4-10-5-2-4-5-2z" fill="#08192D"/>
<path transform="translate(601,190)" d="m0 0 18 1 24 3 37 9 23 7 14 5v3l-3 1-20-7-49-13-12-3-14-2h-15l-2 5v26l3 8 6 2v2l-9-1-1-2-1 9h-1l-1-41 1-11z" fill="#3EB1CA"/>
<path transform="translate(874,391)" d="m0 0h6l7 5 4 4 5 4 2 4h-3l-1-2-6-3v-2l-5-1-7-3-1 5 1 4-3 7 1 9-1 7h2l4 4 1 7-2 17-2-4-6-19-5-13-2-4v-10l3-5h2l4-8h2z" fill="#0E94CB"/>
<path transform="translate(575,413)" d="m0 0h13l10 4v2l5 2 2 6-1 4-5-1-8-4-7-1h-9l-8 4-3 1-2 4-5 2v-6l5-8 4-5z" fill="#A6DDE7"/>
<path transform="translate(780,411)" d="m0 0 6 2-6 7-4 5h-2v2l-5 5-2 6-10 9-8 4-4 5-3 1-2-1v3h-2v-2h-2v-4h3l1-4 4-2 4-7 4-3h2l2-5 4-3h2l1-6 7-4 2-3h4v-2z" fill="#081A2F"/>
<path transform="translate(992,256)" d="m0 0h5l2 5 1 8 9 2 2 4-5 3-6 4-4 10h-3l-2-5-2-6-10-3-2-3 3-3 8-3 2-4 1-8z" fill="#05111E"/>
<path transform="translate(562,236)" d="m0 0h10l-4 3-15 2-30 5-38 12-21 9-10 5-10 4-4 1 3-3 16-8 12-7 13-5 3-3 13-4 19-5 14-3z" fill="#0E89BC"/>
<path transform="translate(716,392)" d="m0 0 3 4-2 4-11 8-3 5h-2l-1 5-7 9-5 5-4 2v2l-6 5h-2l-2 4-7 8h-2l-2 4-6 7v-3l8-13 4-5h2l2-7 7-7 7-8 10-10h2l2-4 7-8z" fill="#43C0DB"/>
<path transform="translate(765,852)" d="m0 0 3 1-11 6-2 2h-3v2l-9 3-8 4h-2v2l-14 6-12 4-8 3-10 3-9 2-5 1-12 4-6 1-9 2h-5l-3 1-13 2h-27l-1 4v-9l4 1 3 1h7l3-1h7l1-2h4 16l9-3 13-2 9-3 14-3 7-1 2 1v-2l5-1 7-1v-2l11-4h3v-2l11-5 5-1 1-2 14-7z" fill="#08192D"/>
<path transform="translate(245,586)" d="m0 0h1l4 25 5 18 5 17 4 12 5 10 2 6 7 16 10 19 10 16 5 10h-2l-8-14h-3l-13-23-9-19-7-16-8-26-7-30-1-6z" fill="#0F8EC1"/>
<path transform="translate(231,750)" d="m0 0h8l6 3 3 4v7l-3 6-4 4-7 1-5-3-5-6v-7l4-7z" fill="#081F35"/>
<path transform="translate(486,431)" d="m0 0h11l9 2 3 9-3 5-8 4h-19l2-3h2v-11l-3-2v-2l-2-1z" fill="#030A17"/>
<path transform="translate(519,995)" d="m0 0 31 2 24 1v2l9-1h16l20 1 3 2h-92l-29-2-14-1v-1z" fill="#1697C7"/>
<path transform="translate(433,432)" d="m0 0h17l5 1-2 5-5 1-10 3-2-1v3l11 1 1 2h-27l-12-1-1-5 1-2 7-1 4-3h3v-2z" fill="#050F22"/>
<path transform="translate(820,381)" d="m0 0h3l-1 4 2 1h-2l1 2 7-1-3 3-5 1-1 2-3 2-2 2-3-1v3l4-1-1 4-3 3h-2v3l-6 2-3 3-9 2-5 5-10 9-26 26-2-1 11-12 8-7 16-17 8-9 7-6 4-6 5-5 6-5 3-5z" fill="#9ED8E3"/>
<path transform="translate(233,888)" d="m0 0 7 1 6 4 3 5-1 7-7 7h-8l-6-4-3-5v-6l4-6z" fill="#030B18"/>
<path transform="translate(421,680)" d="m0 0 2 1 2 6v3h-2l-3 6h-2l-1 3h-2v2l-8 7-5 1v2l-8 1-4-3 1-4 4-4h2l1-3 11-9 4-2 1-3z" fill="#ACE0E9"/>
<path transform="translate(325,841)" d="m0 0 7 1 8 7v8l-7 8-6 1-6-3-4-5-1-8 5-7z" fill="#030A17"/>
<path transform="translate(308,535)" d="m0 0 4 1 4 49v24l-1 5-2-2-3-10-2-39-3-27z" fill="#040E1C"/>
<path transform="translate(371,888)" d="m0 0 9 3 5 5v8l-6 7-2 1-9-1-7-8v-6l5-6z" fill="#030A16"/>
<path transform="translate(279,794)" d="m0 0h7l5 3 2 4v8l-3 6-4 3h-7l-5-4-3-6 1-7 5-6z" fill="#030C19"/>
<path transform="translate(604,193)" d="m0 0h15l20 3 13 4 17 4 32 9 13 5 6-2 10 4 7 4-2 1v6l-3-3v-2l-10-4-7-1-11-3-13-4-11-4-15-4-15-3-14-4-16-3h-13l-2 1-1 9-1 22-2-4v-25z" fill="#3EBFDB"/>
<path transform="translate(653,995)" d="m0 0 25 3 3 2-4 1-33 1h-22l-3-1-31-1h-14v-2l3-1 42-1h29z" fill="#1296C9"/>
<path transform="translate(186,751)" d="m0 0h8l6 5 1 2v7l-4 6-5 4-6-1-6-5-1-2v-9l5-6z" fill="#030B18"/>
<path transform="translate(279,889)" d="m0 0 9 1 6 6v7l-5 7-3 2h-7l-6-4-2-4v-7l6-7z" fill="#030A16"/>
<path transform="translate(489,187)" d="m0 0 2 2-6 1v2l-2 1 7 1 4 1-26 10-16 6-11 4-6 2v2l-4 1 2-4 9-5 10-4 3-3 4-1-1-4h-2l1-3 21-7z" fill="#050F22"/>
<path transform="translate(872,535)" d="m0 0h13l2 1-1 6h-2l-3 12-4 6-2 24-2 6-2 1-1-14 1-25z" fill="#040E1C"/>
<path transform="translate(231,796)" d="m0 0h9l7 8v6l-4 6-4 3h-7l-8-9v-7l5-6z" fill="#030915"/>
<path transform="translate(917,204)" d="m0 0h1l1 20 1 70v46l-1 2-7-1-12-8-6-5h3l10 6 4-2 4-7 1-12 1-39z" fill="#097EBF"/>
<path transform="translate(277,843)" d="m0 0h9l7 5 1 7-3 6-5 4h-7l-7-6-1-2v-8l4-5z" fill="#1189B6"/>
<path transform="translate(833,557)" d="m0 0 1 3-4 8v2l-3 1-6 11-7 9-10 9-17 12-11 7-4 2h-4v6l-1 1-1 12h-1v-61l2-9h1v14l1 17-2 8h2l3 7 6-1 11-8 7-5h2v-2l9-7h2l1-3 5-5h2l1-6 6-7 4-7z" fill="#54BE1B"/>
<path transform="translate(188,842)" d="m0 0 8 1 5 6 1 7-4 7-5 2-7-1-5-5-2-3 1-7 5-6z" fill="#030C1A"/>
<path transform="translate(232,842)" d="m0 0 9 1 5 6 1 6-3 6-6 4-7-1-5-5-2-4 1-6 3-5z" fill="#1188BA"/>
<path transform="translate(569,237)" d="m0 0h3v6h-6l-9 7-6 1h-3-10l-10-1-13 1-4 1-8 1 1-2 19-6 30-5 15-2z" fill="#08263C"/>
<path transform="translate(328,887)" d="m0 0 4 2 7 6 1 4-3 8-4 4-6 1-5-2-3-3-1-3v-8l4-5z" fill="#0E80B0"/>
<path transform="translate(617,641)" d="m0 0 4 1 6 7 2 12v32h-1l-1 11-4 6-3 3h-2v2h-2l-2 4-9 10-9 9-2-1 16-16 6-8 4-5 2-4 3-18v-13l-2-4-3-19-1-3h-2l-1-5z" fill="#54BF1A"/>
<path transform="translate(271,554)" d="m0 0 5 2 7 8 5 5 1 4h2v2l3-1 1 4h2l3 17 5 19 5 12 2 4h3 1l6 23 7 14-1 2-2-1v-2l-2-1-4-8-3-8-6-10-6-16-4-10-5-23-2-9-9-8-6-9-8-7z" fill="#159FC8"/>
<path transform="translate(467,408)" d="m0 0 3 1v8l-2 13-1 10-2 1 1 3v3l-2 4-3-4-1-3-1 2h-15l-8-2v-3l9-2 7-1 3-5h-5v-1l5-1 1-5 3 1-1 4-2 3h2l1 5h2l1-13 4-15z" fill="#081A2E"/>
<path transform="translate(520,766)" d="m0 0h1v19l-1 13-7-1-20-6-9-4 4-4 9 2 7 2 7 1-1-5 3-1 1-7 4-4z" fill="#12982C"/>
<path transform="translate(480,528)" d="m0 0h8l12 4 8 3 37 9 12 3v2h-14l-18-4-29-7-12-4v-2l-4-1z" fill="#3EB3CD"/>
<path transform="translate(881,749)" d="m0 0 1 3-3 6-7 8-4 7-5 5h-2l-1 3-5 5h-2l-1 4-4 8h-2l-2 4h-3l-1 7-10 9-1-2-8 3-10 8-3-1h2l2-4h2l1-3h3v-2l5-3 1-3 4-2 9-7 4-5 5-5 6-7h2v-3h2l1-3 4-5 2-1v-2l3-3h2v-2h2l1-4 2-1 1-3h2l1-4z" fill="#051327"/>
<path transform="translate(204,326)" d="m0 0h7l5 3 2 3v8l-5 7-6 1-7-3-3-6 1-8z" fill="#158BB6"/>
<path transform="translate(920,980)" d="m0 0h17l2 3 1 8-4 3-6 1h-15l-2-3v-7l3-4z" fill="#198DB7"/>
<path transform="translate(934,641)" d="m0 0 3 1-1 9v11l1 2-11 27-8 15h-2v-7l-1-3 4-8 5-12 6-15 1-7 2-3z" fill="#051225"/>
<path transform="translate(941,536)" d="m0 0 4 1 5 4 1 3v19l-1 24-1 1-1 15-4 18v6l-2 2-2 5-1 6-3 1v-7l3-16 4-14 3-7 1-23v-17l-1-11z" fill="#07182C"/>
<path transform="translate(188,797)" d="m0 0 7 1 6 7v7l-8 8-6-1-5-4-2-3v-8z" fill="#041423"/>
<path transform="translate(876,397)" d="m0 0 6 1 4 2 5 4 4 2v2l5 1 10 9 6 7-4-2-3-3-4-1v-2l-5-2-6-3-9-1-5 1v2h-3l-2 5v5h2l1 7h-3v-2h-2v-8l-1-8 3-7-1-5z" fill="#079BDE"/>
<path transform="translate(287,536)" d="m0 0h8l5 44 3 16 3 10 4 9 5 5v13l-1-2-3-1-6-13-4-13-4-19-3-23 1-3-2-13-2-6-5-2z" fill="#087CC2"/>
<path transform="translate(186,891)" d="m0 0h7l6 5 2 4v5l-5 5-6 2-7-3-4-5 1-7 5-5z" fill="#092D46"/>
<path transform="translate(681,978)" d="m0 0h34l48 1 8 1 20 1v1l-9 1-74 1-14-1 1-2 9-1 6 1v-2h-29z" fill="#20A4C9"/>
<path transform="translate(642,476)" d="m0 0 2 1-46 46-7 9-6 7-5 5-7 5-8 1-4-2 6-3h6l8-7 3-5 7-7 4-6 7-9 6-4 5-6 11-8 15-14z" fill="#3FBFDB"/>
<path transform="translate(582,407)" d="m0 0 1 2h3v-2h5l1 3h2l1-2 5 4h5l2 3v1h4l3 8 1 1v5l3-1 1 3v8l-4 2-1-9-5-10-4-2-1-4h-2v-2h-11l-3-1h-13l-11 2-6 5-2-4 6-5 9-2 8-2 3 1z" fill="#07192D"/>
<path transform="translate(1014,588)" d="m0 0 7 2 3 5v9l-4 6-4 2h-5l-4-5v-10l3-7z" fill="#030C19"/>
<path transform="translate(663,515)" d="m0 0 2 1-12 12-7 8-3 3h-2l-2 4-32 32h-2l-2 4-13 13-1-3 9-10 7-9 10-10h2v-2h2l1-3 5-4h2l2-4 6-7 13-10 12-12z" fill="#149DC8"/>
<path transform="translate(869,324)" d="m0 0 5 2 4 1v2h2l5 5 5 3v2l5 2 6 5 8 2h7l10-3 1-4 4-1-2 6-4 4-5 1-2 1-10 1-7-3v-2l-9-2-2 1-7-4-2-4-9-7-1-2-4-2z" fill="#07162A"/>
<path transform="translate(462,206)" d="m0 0h22l-3 2-20 8-21 9-8 4-2-1 12-11 4-3-8 4-3-1 10-5 9-3z" fill="#B9DEE0"/>
<path transform="translate(329,769)" d="m0 0 4 2 5 6 3 2v2l4 2v2l4 2v2l5 2 7 6 6 4 3 4 3 1v2h2v2h2v2l4 1 13 8v2l6 2 13 8-2 1-10-4-20-12-9-7-3-2v-2l-5-2-4-3v-2l-5-2-22-22-4-5z" fill="#0E94CC"/>
<path transform="translate(544,830)" d="m0 0 12 1 14 2 2 1 1 18v33l-2 3-5 1 3-10 1-4-2-3v-14l-1-6v-13l-1-4-14-1-7-1z" fill="#1B8FB9"/>
<path transform="translate(279,202)" d="m0 0 10 5 2 3-1 6-7 6h-7l-2-4h-2l-2-6v-6l3-3z" fill="#3CBEDA"/>
<path transform="translate(771,254)" d="m0 0h4v3l4 1v2h2v3l9 6 3 3 5 3 7 5h6l4 7-1 5-4 2v-4-3l-4-1-11-7-14-9v-2l-4-2-6-5-1-2h-3v-2h2v-2z" fill="#07172B"/>
<path transform="translate(563,419)" d="m0 0 2 1-5 6-2 4-1 6 5-2-4 4h-2l3 11 5 2 8 4h9l11-4 5-4 7-7v-16l2 2 1 17-2 2-4 1-4 5-2 4h-3-3l-1 2-5 2-12 1-8-2-5-5-3-6v-17l6-9z" fill="#0E95CB"/>
<path transform="translate(916,277)" d="m0 0h1v42l-2 8-5 7-4 1-6-4 5-5 5-12 3-14 2-12z" fill="#0F95C9"/>
<path transform="translate(484,588)" d="m0 0h8l50 12 21 3h6l9-4h2l2-4 6-5v3l-13 13-3 1h-13l-20-4-24-6-15-4-16-3z" fill="#119ACA"/>
<path transform="translate(738,258)" d="m0 0h4l2 12 6 11 2 4 4 2 1 2-5 1v2l-5-2-4-3v-4l-9-3-3-3 6 1-1-12z" fill="#3DB1CA"/>
<path transform="translate(538,195)" d="m0 0h6v2l-16 5-5 2-16 3-19 3h-11l4-3 11-4 12-3 7 1z" fill="#43BFDA"/>
<path transform="translate(477,591)" d="m0 0h13l10 3h8l31 8 9 3-1 2-8-1-36-8-13-3h-13l-17 16-4 4-2-1z" fill="#087CC0"/>
<path transform="translate(353,647)" d="m0 0h1l1 7 4 7 5 4 7 11 4 7v2l6-3 6-4 5-5 4-5 5-3-2 4-10 10-7 8-7 4h-2l-8-14-9-15-6-11 1-3z" fill="#0A80BB"/>
<path transform="translate(600,233)" d="m0 0 2 1v2h22l18 4 21 5 21 7 4 3-6-1-17-6-11-3 2 2-10-1-17-3-2-1-25-2z" fill="#0C88C3"/>
<path transform="translate(244,539)" d="m0 0h7l5 5 8 4v2l5 2 2 4-15-6-3 2-3 6h-5v27h-1l-1-9v-21z" fill="#159EC8"/>
<path transform="translate(870,354)" d="m0 0h1l1 7-9 9-8 7-10 9h-2l1-5 6-10 8-8 3-5 4-2z" fill="#C0E2E1"/>
<path transform="translate(235,180)" d="m0 0h6v3h5l2-2 2 4-7 8-4 17h-1v-6l1-2-3-1v-9l-1-1v3h-2l-2 5-2 1-2-1 1-7 5-10z" fill="#1CA2C8"/>
<path transform="translate(766,641)" d="m0 0 6 1 1 1 2 9 3 3 1 5-3 6-6 5-2-2-1 5h-1z" fill="#55BF1F"/>
<path transform="translate(807,367)" d="m0 0h2l-2 4-13 13-7 8-9 10-3 4h-2l-2 4-29 29-3 4h-2l-2 4-25 25-2-1 27-27 7-8 10-10 2-3h2l2-4 5-5 6-7 5-5h2l2-4 3-3h2l1-4 5-5 2-3h2l1-3 5-4 3-4h2l2-4z" fill="#0E8CC0"/>
<path transform="translate(514,980)" d="m0 0h41l91 1v1l-17 1h-37v2h-21v-2h-19l-26-1-12-1z" fill="#0F95C9"/>
<path transform="translate(179,411)" d="m0 0h24l1 10-4 1-20-2-4-2-1-5z" fill="#47B5CC"/>
<path transform="translate(324,409)" d="m0 0 1 4-6 15-9 28-6 27-4 25-1 2 2 1-4-1 1-11 2-11 1-11 9-33 9-24 4-10z" fill="#0D89BF"/>
<path transform="translate(378,327)" d="m0 0v3l-8 9-12 16-10 15-8 13-9 16-5 12-2-3 7-15 8-16 6-9 3-6 4-4 6-9 11-14z" fill="#0B84BD"/>
<path transform="translate(383,836)" d="m0 0 7 4 15 9 14 7 4 3 4 1v2l6 1 7 4 10 2 12 6 8 3 6 3v1h-7l-3-1v-2l-10-2-5-2v-2l-7-1-10-4v-2l-6-2-13-6-4-3-5-2-6-4-10-5-2-4-5-2z" fill="#07172B"/>
<path transform="translate(355,642)" d="m0 0 2 2-1 5h2l5 9 7 10 2 2 6 2h5l7-3 3 1-14 10-1 2h-2l-8-12-5-5-5-4-4-7-1-6-4 2 2-4z" fill="#079DE0"/>
<path transform="translate(873,400)" d="m0 0 2 1 1 5-3 7 1 9-1 7h2l4 4 1 7-2 17-2-4-5-17-1-9-2-6v-6l1-2v-5z" fill="#149FC9"/>
<path transform="translate(554,433)" d="m0 0h1l1 14 3 9 5 5 6 2 10 2 13-2 2 1 1-3 6-2 2-4 3-3-2 5-7 8-11 5h-13l-9-4-8-8-3-7-1-5v-9z" fill="#087CC1"/>
<path transform="translate(391,327)" d="m0 0 2 1-7 8-9 10h-2l-1 3-2 1-1 3h-2l-1 4-7 10-6 8-2 4h-2l-2 6-3 3 1-4 3-9 4-7 2-1 2-4 1-4h2l1-4 6-3 2-6 2-3h2l1-4 9-3v-2l6-5z" fill="#07182C"/>
<path transform="translate(865,308)" d="m0 0 6 2 13 8 4 2 3 5-5-2-13-8-8-2-8 7-27 27-7 8-8 8h-2l-2 4-2-1 6-7h2l2-4 4-3 3-5 4-4h2l2-4h2l2-4 5-4 5-6 4-4 7-8 4-2z" fill="#1799C3"/>
<path transform="translate(562,236)" d="m0 0h10l-4 3-15 2-25 4-23 3-5 2-8 1 2-2 20-6 15-3 15-2z" fill="#1594C0"/>
<path transform="translate(562,250)" d="m0 0 3 1-2 4-2 1-15 1-26 6h-5l-1-3 7-4 11-1 3-2h8z" fill="#041121"/>
<path transform="translate(397,601)" d="m0 0 1 3-4 2-2 4-7 7-11 15-5 4-8 4-3 2 1-4 15-16 8-7 7-8z" fill="#4AC0DA"/>
<path transform="translate(910,383)" d="m0 0h2l3 5v2l2 1 1 2 3 1 1 5h4l7 16 3 12 1 1 1 7 3 8 2 9-2 1-3-9-4-16-3-10-3-3-4-5-7-11-6-12z" fill="#07182C"/>
<path transform="translate(273,371)" d="m0 0h1l2 11-4 4-2 5-3 3-4 13-3 6-1 4-4 1 1-6 3-8h2v-3l-2 1 1-4v-6l3-4 2-2 2-1-1-2 2-4 3-2v-4h2z" fill="#07192D"/>
<path transform="translate(547,423)" d="m0 0h7l1 2-4 10-6 4 1 5 5 5 1 8-1 4h-2l-1 2-4-9-1-8v-11l3-11z" fill="#07182C"/>
<path transform="translate(726,797)" d="m0 0 2 1-3 1v2l-5 4-6 3-12 8-9 3-12 2-2 1v-2l-3 1-3-2 25-8 16-8z" fill="#1A8FB8"/>
<path transform="translate(821,370)" d="m0 0 6 1-1 4-6 7h-2l-2 5-7 6-5 1v-2l2-1 2-7 5-10z" fill="#05162B"/>
<path transform="translate(320,307)" d="m0 0 2 1-20 28-4 6-4 2-3 5-3 3h-2l-2 7-1 4h-2-1l-1 2-4 4 1-5 7-14 5-7 5-1 4-5 5-6h2l2-5 3-6 8-9 1-3z" fill="#07182C"/>
<path transform="translate(296,342)" d="m0 0 2 1-6 9-4 9h-2l-3 9h-2l-1 5-4 10-3 4-2-4 3-3h2l-2-6v-6l4-6 2-4 1 3h2l-1-3 2-2 2-6h2l1-3 3-3z" fill="#082C44"/>
<path transform="translate(412,239)" d="m0 0 2 1-24 16-11 9-12 10-4 3h-2l-2 4-3 2h-3v2l-3-1 10-10 11-9 13-10 18-11z" fill="#B9E1E4"/>
<path transform="translate(888,495)" d="m0 0h4l5 8 2 4h5l1-2 4 1 4-1 3 1v2l6 2v1h-22l-10-2-2-4z" fill="#12CAF1"/>
<path transform="translate(329,420)" d="m0 0 1 4-6 15-6 20-4 18-3 15-1 19-4-1 3-22 4-23 5-18 2-3 3-12h2l1-8 3-1z" fill="#08192D"/>
<path transform="translate(531,976)" d="m0 0h98v1l-23 1-1 1h-49l-7-1-18-1z" fill="#1C93C5"/>
<path transform="translate(248,667)" d="m0 0 5 3 6 12 3 5 5 2v6l1 3h-3l-2-3-2 3h-2l-11-25z" fill="#040D1B"/>
<path transform="translate(604,193)" d="m0 0h15l20 3 13 4 12 3 1 2h-7l-22-6-16-3h-13l-2 1-1 9-1 22-2-4v-25z" fill="#3EBFDB"/>
<path transform="translate(991,325)" d="m0 0h5l5 5 1 4-4 6-3 2-5-1-4-5 1-7z" fill="#030A15"/>
<path transform="translate(494,818)" d="m0 0 8 1 18 5 24 5v2l3 1-3 1-17-3-15-3-13-4h-3v-2l-7-1v-1z" fill="#0E85BA"/>
<path transform="translate(555,999)" d="m0 0h44l20 1 3 2h-77l-1-2z" fill="#0D86B6"/>
<path transform="translate(392,687)" d="m0 0 4 2-2 5-6 7-1 2h-2v2l-5-1-4-7v-4l5-1 6-2 1-2z" fill="#07182C"/>
<path transform="translate(268,678)" d="m0 0h3l5 10v2l3 1 8 16 6 10 8 13 2 5h-2l-8-14h-3l-13-23-9-19z" fill="#0F90C6"/>
<path transform="translate(927,570)" d="m0 0h2l2 4-2 9-1 13h-2l-2 13-4 16-7 16-1-4 5-15 3-10 3-17 3-15 2-6z" fill="#0F95C9"/>
<path transform="translate(304,619)" d="m0 0 3 1 5 10h3 1l6 23 7 14-1 2-2-1v-2l-2-1-4-8-3-8-6-10-6-16z" fill="#21A5CA"/>
<path transform="translate(931,462)" d="m0 0 2 4 4 23 1 21-11 1 3-2 2-11v-20z" fill="#1296CA"/>
<path transform="translate(910,705)" d="m0 0 2 3-7 11-1 4-4 3h-2v6l-3 1-1 4-5 5-3 1-2 5-1-2 4-9 6-9h3l1-4 6-12 3-1v-3z" fill="#08192D"/>
<path transform="translate(842,482)" d="m0 0h1l2 55v32h-1l-1-24-4 5-3 3 4-20 1-3z" fill="#58C120"/>
<path transform="translate(601,190)" d="m0 0h7l5 1-1 2-8 1-2 5v26l3 8 6 2v2l-9-1-1-2-1 9h-1l-1-41 1-11z" fill="#37AFCB"/>
<path transform="translate(409,652)" d="m0 0h3l-2 4-12 12h-2l-2 4-5 4-5 5-6 4h-3l-5-9-3-5 1-2 8 11v2h2l2-4 12-8 1-3h2l2-4h2v-2l8-7z" fill="#1199C9"/>
<path transform="translate(266,543)" d="m0 0h2v2h21l4 4 1 13-8-6-6-5-7-3-10-3z" fill="#087CC1"/>
<path transform="translate(272,197)" d="m0 0h6v2h-2l-4 8-3 1-2 7 2 1v3h2l3 3 7 3-1 3-8-1-7-8-2-10 4-8z" fill="#1496C1"/>
<path transform="translate(603,580)" d="m0 0v3l-18 18-10 8-4 1h-11l-12-2v-3l11 1h13l5-3 11-11 5-2z" fill="#0A7FBC"/>
<path transform="translate(785,421)" d="m0 0v3l-5 5-4 5-4 3-1 5 4-1-6 8h-2l-1 3-5 1v3h-2l-1 2 1-4-2-6 10-9z" fill="#ACE0E8"/>
<path transform="translate(518,620)" d="m0 0 10 1 25 6 17 3 10-1 5-4 1 2-2 5 2 1 2 7 1 3-5 1-2-5v-7l-12 1-13-3-13-2-14-4-12-3z" fill="#C3E3E1"/>
<path transform="translate(604,507)" d="m0 0m-1 1m-2 1 2 1-3 5-7 9-7 8-3 3-3 5-7 6-4-2 5-4 8-10 2-3h2l2-4 12-13z" fill="#45B4CC"/>
<path transform="translate(873,446)" d="m0 0 2 1 5 18v6h2l5 22 3 15 10 2v1h-21v-1l7-1-4-23-7-30-2-6z" fill="#0A7FBD"/>
<path transform="translate(920,980)" d="m0 0h17l2 3v3l-6 2-5 3h-5l-1-5-5-2-3 1 2-4z" fill="#39AFC9"/>
<path transform="translate(707,472)" d="m0 0h2l-2 4-17 17-6 7-26 26-6 4 2-4 10-10 1-3 9-7 4-5h2v-2l5-5 11-10 5-5z" fill="#0B83BE"/>
<path transform="translate(315,247)" d="m0 0h2l-1 5-9 6-12 5-12 3-2 5h-3l-1-9 2-1v2l6-2 8-2h5v-2l6-1v-2l9-4z" fill="#28A7CA"/>
<path transform="translate(407,231)" d="m0 0 2 1-15 10-14 10-14 11-14 12v-3l5-5 4-5 6-4 11-9 9-6 4-1 1-3 11-6z" fill="#0B3852"/>
<path transform="translate(287,536)" d="m0 0h8l5 44 1 9-3 2-4-29 1-3-2-13-2-6-5-2z" fill="#097EBE"/>
<path transform="translate(940,803)" d="m0 0 5 1 5 6 2 6v8l-4 7-5 3-13-1 3-3 7-2 3 1 4-6h2l-2-8-4-8-3-2z" fill="#1081C1"/>
<path transform="translate(273,982)" d="m0 0h9l1 1v7l-5 5-10-2-1-1v-9l5 1 2 3v3h2v-5l-3-1z" fill="#0A3C5B"/>
<path transform="translate(623,895)" d="m0 0 4 1 1-1h15v3l-3 1-13 2h-27l-1 4v-9l4 1 3 1h7l3-1h7z" fill="#08192E"/>
<path transform="translate(474,527)" d="m0 0h10l-4 4 4 2-12 2-12 6-6 2-2 4-3-1 7-7 13-10z" fill="#47C1DB"/>
<path transform="translate(576,404)" d="m0 0 10 1h8l8 3 3 2v2l-5 1-3-2v-2l-5 1-1-2-2 1v-2h-3v2h-8l-9 3-7 1-4 2-1-2 4-2h3v-2l5-4z" fill="#050F22"/>
<path transform="translate(229,480)" d="m0 0h2l1 10-2 1 4 3-2 2-1 14h-7l2-19 2-9z" fill="#030D1C"/>
<path transform="translate(272,156)" d="m0 0h4l2 6-10 4-5-1-3 3-3-1 1-2-5 1 1-4 8-4z" fill="#41BED8"/>
<path transform="translate(334,680)" d="m0 0 3 3 7 14 12 17-2 4-4-5-5-5-7-11-2-4-2-9z" fill="#2AA8C9"/>
<path transform="translate(485,684)" d="m0 0 14 2 3 2-3 1-20-1-12 3-6 3-7 4h-3l2-4 8-5 9-3z" fill="#63D51D"/>
<path transform="translate(239,640)" d="m0 0 2 1 3 5 5 13 3 7-1 3-2-1-2 2-9-24-1-5z" fill="#06172B"/>
<path transform="translate(869,330)" d="m0 0 7 4 7 6v2l-6-1-1 4-3 3 1-12-2-2-5 1-22 22v-3l8-9 6-5 5-5zm-26 27m-2 1 2 1-13 13v-3z" fill="#6EBDD1"/>
<path transform="translate(629,174)" d="m0 0 6 1v2l8-1 3 1v2h16l16 3 3 3-15-1-21-3-19-4z" fill="#07182C"/>
<path transform="translate(881,749)" d="m0 0 1 3-3 6-7 8-4 7-5 5h-2l-1 3-5 5h-2v3h-3l-2 4-4 3 2-4 6-7h2v-3h2l1-3 4-5 2-1v-2l3-3h2v-2h2l1-4 2-1 1-3h2l1-4z" fill="#07182C"/>
<path transform="translate(601,445)" d="m0 0 4 1-4 8-7 6-5 2h-8l-6-2v-1l9-1 4-1 1-3 5 1 2-5 4-2z" fill="#087CC2"/>
<path transform="translate(312,303)" d="m0 0 3 1-1 5h4l-2 4-7 8-5 10h-2l-2 4-1-3 4-5 3-6h-2l-1 3h-2l1-5 5-5 4-1-1-6z" fill="#07182C"/>
<path transform="translate(653,995)" d="m0 0 25 3 3 2-4 1h-34l1-3 4-1z" fill="#1C96C0"/>
<path transform="translate(425,667)" d="m0 0 3 1-17 17h-2v2h-2v2h-2l-2 4-13 12-1 2h-2v3l-3-1 6-8 19-19 3-1v-2l8-7z" fill="#1990BF"/>
<path transform="translate(691,997)" d="m0 0h39l8 1v1l-19 1h-38l-3-2z" fill="#29A7CA"/>
<path transform="translate(767,570)" d="m0 0h1v14l1 17-2 8-1 31h-1v-61z" fill="#59C818"/>
<path transform="translate(231,750)" d="m0 0h8l6 3 3 4v7l-2 3v-4l-7 2-1 1h-6v-6l-2-2 3-1 3 2h4v2h4l1-4-4-3v-2l-9 1-3 1-1-2z" fill="#09304A"/>
<path transform="translate(232,752)" d="m0 0h9v2l4 2v3l-1 2h-4v-2l-5 1v-2h-4l-2 4-5-1 2-6 4-2z" fill="#082136"/>
<path transform="translate(434,227)" d="m0 0 3 1-11 8-13 8-14 9-2-1 9-8 7-4 4-4 10-6z" fill="#4CC2DC"/>
<path transform="translate(282,845)" d="m0 0 2 1v2h4l1 3-3 7 2 1-9 2-3-3v-7l4-3h2z" fill="#16A0C8"/>
<path transform="translate(626,768)" d="m0 0h2v23l-1 11-5 1 3-33z" fill="#076830"/>
<path transform="translate(231,846)" d="m0 0 2 3 2 5 3 1-1-8h3l3 2-1 7-2 4-8 1-3-3v-9z" fill="#149CC9"/>
<path transform="translate(472,628)" d="m0 0 1 2-3 4h-2v5h-2l-2 5-8 7-5 2-2 3-2-1v-3l3-1 2-4 3-3h3l2-5 2-1 1-3 3-1 5-5z" fill="#C3E3E1"/>
<path transform="translate(580,416)" d="m0 0h8l3 2 10 3 1 4-5 2-9-4-7-2-2-4z" fill="#C2E2E1"/>
<path transform="translate(735,225)" d="m0 0 4 1 3 5-1 9-2 16-2-2-1-4z" fill="#42B2CB"/>
<path transform="translate(244,536)" d="m0 0h6v1l-5 1-1 17v21l1 9v10h-1l-3-21v-34z" fill="#097EBE"/>
<path transform="translate(585,804)" d="m0 0h31v2l-3 1-12 1h-29l3-3z" fill="#06642C"/>
<path transform="translate(458,633)" d="m0 0h2l-1 4-18 18h-2v2h-2l-2 4-6 6h-3v-2h2v-2l12-12h2l2-4 5-5z" fill="#1D94C1"/>
<path transform="translate(691,551)" d="m0 0h5l-4 3-10 5-11 9-4 3 1-7 5-5 5-4z" fill="#C4E3E1"/>
<path transform="translate(186,891)" d="m0 0h7l1 4 4 5v4l-4 2h-6l-3-3v-4l1-3h5l-1-4z" fill="#0A3651"/>
<path transform="translate(755,289)" d="m0 0 5 1 7 7v5l-5 1-9-7v-3l-2-1 1-2z" fill="#1287B7"/>
<path transform="translate(259,392)" d="m0 0h1l1 7v1l1 2-1 2h-2l-1 7-4 8-4 4 1-7h-2l1-2 3-9h2l1-5z" fill="#050F21"/>
<path transform="translate(541,192)" d="m0 0h13v1l-25 5-18 4h-5l3-3 25-6z" fill="#45B4CB"/>
<path transform="translate(563,419)" d="m0 0 2 1-5 6-2 4-1 6 5-2-4 4h-2l3 11 5 2 11 5v1l-10-1-8-4-2-5v-17l6-9z" fill="#159EC8"/>
<path transform="translate(307,541)" d="m0 0h1l2 20 1 9 1 25 2 13 1 6-2-2-3-10-2-39-2-18z" fill="#061327"/>
<path transform="translate(273,365)" d="m0 0h2v5l-2 3h-2l1 4-4 2-1 4v3l-2 3-1-1-2 5-2-1v-7h2l2-6 2-2 3-8z" fill="#050F22"/>
<path transform="translate(552,780)" d="m0 0 3 4 1 10-1 3 4 2 3 2-1 6-5-1-4-3z" fill="#076629"/>
<path transform="translate(706,471)" d="m0 0 2 1-8 9-5 5-10 9-3 4h-2v2l-5 5-8 7-2-1 17-17 4-5h2l1-3 7-6 5-5z" fill="#3CBBD7"/>
<path transform="translate(443,284)" d="m0 0h5l-2 3-9 5-7 6-5 1v2l-8 6-4-1h2v-3l3-1 2-3 7-1v-2l4-2 1-5h3v-2l8-2z" fill="#08192D"/>
<path transform="translate(506,259)" d="m0 0 3 1 2 5-15 5h-5l1-4 3-3z" fill="#041022"/>
<path transform="translate(316,774)" d="m0 0 7 6 20 20 6 7 5 5 4 3-1 2-5-3v-2h-2v-2l-3-1-2-5-4-2v-2l-4-2v-2l-3-1v-3l-4-2-8-6-6-8z" fill="#07172B"/>
<path transform="translate(857,361)" d="m0 0h2l-2 4-9 10-6 11-2 1v-5-2l-4 1 1-4 5-1 3-6 3-1v-2l8-4z" fill="#ACE0E9"/>
<path transform="translate(207,327)" d="m0 0h7l1 8-4 1h-3v-3l-3 1-1 6-5-2 1-6 3-2h3z" fill="#097DC1"/>
<path transform="translate(807,367)" d="m0 0h2l-2 4-13 13-7 8-9 10-3 4h-2v2l-4 1v-2l5-5h2l2-4 3-3h2l1-4 5-5 2-3h2l1-3 5-4 3-4h2l2-4z" fill="#1692C2"/>
<path transform="translate(404,299)" d="m0 0 3 1-5 5-14 15-11 9-3 3-2-1 3-3 2-4 5-5 5-3 3-3h2v-2l8-7 2-3h2z" fill="#1490C1"/>
<path transform="translate(928,680)" d="m0 0 1 4-10 21-3 1v-9h2l2-6 5-8z" fill="#030E1D"/>
<path transform="translate(484,588)" d="m0 0h8l25 6 18 5 3 1v2l-11-2-19-5-17-4-7-1z" fill="#1199CA"/>
<path transform="translate(931,468)" d="m0 0h1l1 13v17l-2 11h-3v-9l2-6-1-16 1-9z" fill="#0890DB"/>
<path transform="translate(519,995)" d="m0 0 3 2v3 1h-11l-24-2v-1z" fill="#1395C3"/>
<path transform="translate(303,735)" d="m0 0 3 2v2h2l5 7 2 2-1 2 4 2 1 3h2l1 3 3 1 4 6-1 4-11-12-13-18z" fill="#0C9BD3"/>
<path transform="translate(292,720)" d="m0 0 3 3 6 10v2h2l7 11 6 8-1 3-3-3-9-12-12-19z" fill="#097EBE"/>
<path transform="translate(628,333)" d="m0 0 7 1 9 5v3h2v2l6 2v2h3v2l3 1v1h-5l-14-10-5-4-6-3z" fill="#061528"/>
<path transform="translate(915,180)" d="m0 0 6 1v2l-16 4-12 4-4-1 3-3 17-6z" fill="#041324"/>
<path transform="translate(301,177)" d="m0 0 5 1 7 3 7 15v11l-2-3-3-10-6-9-8-7z" fill="#138BB6"/>
<path transform="translate(765,852)" d="m0 0 3 1-11 6-2 2h-3v2l-9 3-8 4h-2v2l-9 4-3-1 3-1v-2l11-5 5-1 1-2 14-7z" fill="#08192D"/>
<path transform="translate(919,381)" d="m0 0h7l6 11 1 9-4-3-1-5h-2l-1-4-3-1-3-4z" fill="#030E1C"/>
<path transform="translate(1019,518)" d="m0 0 7 1 1 6-4 3-8-1-1-5 3-3z" fill="#051829"/>
<path transform="translate(566,242)" d="m0 0h5l-1 4-4 5-19 2-6 1v-3l7-1h3l8-2z" fill="#06152A"/>
<path transform="translate(472,404)" d="m0 0 3 1-2 1 2 3-2 10h-2l1 6-2 3 1 4-4-2 2-14v-6l-1-3h3z" fill="#050E21"/>
<path transform="translate(355,642)" d="m0 0 2 2-1 5h2l5 11 4 7-1 2-5-6-3-2-4-7-1-6-4 2 2-4z" fill="#169AC9"/>
<path transform="translate(383,613)" d="m0 0h2l-2 5-9 10-8 7h-2l-1 4-5 3 1-4 15-16 8-7z" fill="#38AFCA"/>
<path transform="translate(718,216)" d="m0 0 11 3 8 5-2 1v6l-3-3v-2l-10-4-7-1 2-4z" fill="#4BC2DC"/>
<path transform="translate(886,536)" d="m0 0 1 4-1 2h-2l-3 12-4 6h-1v-13l2-6 8-2z" fill="#07172B"/>
<path transform="translate(518,245)" d="m0 0h5l-3 2-29 9h-6l3-3 7-3 9-2 1-1z" fill="#0C85BD"/>
<path transform="translate(711,480)" d="m0 0h5l1 6-5 5-4 3-2-1 1-4 1-2-1-5z" fill="#08192D"/>
<path transform="translate(865,308)" d="m0 0 6 2 13 8 4 2 3 5-5-2-13-8-8-2-8 6 2-4z" fill="#0C89C2"/>
<path transform="translate(261,653)" d="m0 0 2 3 6 12 2 6 6 13-1 3-5-10v-2h-3l-4-8-2-6h2l-3-7z" fill="#0E8CC1"/>
<path transform="translate(391,327)" d="m0 0 2 1-7 8-9 10h-2l-1 3-4 1-1-3 3-4h2l1-4 9-3v-2l6-5z" fill="#07172A"/>
<path transform="translate(805,827)" d="m0 0 3 1-5 4-4 2-1 2-6 3-9 6-4 3-4-1 5-5 6-3h2l1-2 3-3h4v-2l8-4z" fill="#07182C"/>
<path transform="translate(470,210)" d="m0 0 3 1-26 11-15 7-2-1 8-7 9-2 20-8z" fill="#AFE0E7"/>
<path transform="translate(735,711)" d="m0 0h1v23l-1 19-2-4v-28z" fill="#0A3450"/>
<path transform="translate(526,241)" d="m0 0h10v1l-22 5-9 1-5 2-8 1 2-2 20-6z" fill="#1796BF"/>
<path transform="translate(299,591)" d="m0 0 2 3 5 18 3 10h3l3 4v7l-1-2-3-1-6-13-4-13-2-9z" fill="#0E86B4"/>
<path transform="translate(305,469)" d="m0 0 1 4-6 35-1 2 2 1-4-1 1-11 5-24z" fill="#0D87BD"/>
<path transform="translate(320,307)" d="m0 0 2 1-20 28-3 5h-2l1-6 4-4h2l2-5 3-6 8-9 1-3z" fill="#0D3E58"/>
<path transform="translate(273,206)" d="m0 0h2l1 7 1 3 5 1 3 1v3l-2 1h-7l-2-4h-2l-1-8h2z" fill="#12CAF1"/>
<path transform="translate(192,892)" d="m0 0 4 1 4 5 1 7-5 5-6 2-1-3h3v-2l-4 1v-2l10-2-3-7-3-3z" fill="#072D48"/>
<path transform="translate(661,731)" d="m0 0h7l-1 5-2 4h-2l-2 9h-1l-1-5v-12z" fill="#045F22"/>
<path transform="translate(861,408)" d="m0 0 2 2 2 9 5 12 4 12v3h-2l-12-32z" fill="#0B81BA"/>
<path transform="translate(344,370)" d="m0 0 1 2-6 10-2 6-8 16-3 7-2-3 7-15 8-16z" fill="#0C86BC"/>
<path transform="translate(536,832)" d="m0 0 16 1 14 2 2 5v13h-2v-3h-2v-10l-1-4-17-1-10-2z" fill="#0E93C8"/>
<path transform="translate(472,201)" d="m0 0 4 1-24 9-11 4-6 2v2l-4 1 2-4 9-5 9-3 10-3z" fill="#1B6080"/>
<path transform="translate(603,580)" d="m0 0v3l-18 18-8 7-2-1 4-4 3-5 6-6 5-2z" fill="#097EBF"/>
<path transform="translate(581,999)" d="m0 0h18l20 1 3 2h-30l-12-1z" fill="#0E86B4"/>
<path transform="translate(412,239)" d="m0 0 2 1-24 16-8 7-2-1 1-4 13-8z" fill="#BFE2E2"/>
<path transform="translate(523,599)" d="m0 0 9 1 15 4v3l-8-1-17-4z" fill="#097FBD"/>
<path transform="translate(651,244)" d="m0 0 7 1 16 5 14 5 1 2-9-2-24-7v-2l-5-1z" fill="#0A80BB"/>
<path transform="translate(490,194)" d="m0 0 4 1-16 6-8 2-17 6-2-1 5-3 20-7z" fill="#08263C"/>
<path transform="translate(236,617)" d="m0 0h1l3 14v9h-4l-2-8 1-7z" fill="#051226"/>
<path transform="translate(885,490)" d="m0 0 2 3 3 15 10 2v1h-21v-1l7-1-1-4z" fill="#1899C5"/>
<path transform="translate(916,200)" d="m0 0h1v64h-1l-1-46-2-8 2-1z" fill="#16A0C8"/>
<path transform="translate(332,894)" d="m0 0 7 1 1 4-3 8-3 2-5-2 4-2 1-7z" fill="#097EC1"/>
<path transform="translate(353,647)" d="m0 0h1l1 7 4 7 2 1 4 10-4-1-11-20 1-3z" fill="#138AB8"/>
<path transform="translate(287,536)" d="m0 0h8l2 20-1 4-2-7-2-9-1-4-5-2z" fill="#087DC0"/>
<path transform="translate(947,481)" d="m0 0h1l2 18-2 8-1 2 2 1h-7v-5l5-1-1-22z" fill="#08192D"/>
<path transform="translate(380,247)" d="m0 0m-1 1m-1 1m-1 1m-1 1m-1 1m-2 1h2v3l-14 11-9 8v-3l5-5 4-5 6-4z" fill="#0D3A54"/>
<path transform="translate(361,663)" d="m0 0 5 5 7 11 1 4h-3l-1-2-4-2-3-5 1-3-3-5z" fill="#0C7FC1"/>
<path transform="translate(457,624)" d="m0 0 3 1-1 4-6 5-2 3h-5v-2l3-3 3-6z" fill="#08192D"/>
<path transform="translate(521,543)" d="m0 0h12l9 3h11l4 1v2h-14l-18-4z" fill="#3EBFDB"/>
<path transform="translate(644,340)" d="m0 0 4 2 10 6 5 6 2 6-5-2-6-4v-2l3-1-2-1v-2h-3v-2l-6-2v-2h-2z" fill="#040E21"/>
<path transform="translate(607,601)" d="m0 0 2 1-9 10-12 12-5 2 3-5 12-11z" fill="#1990BF"/>
<path transform="translate(599,214)" d="m0 0h1l3 15 3 5 5 1v2l-9-1-1-2-1 9h-1z" fill="#2EADCC"/>
<path transform="translate(319,900)" d="m0 0 3 1-1 2 1 2 9 2 3 1-1 3-6 1-5-2-3-3-1-5z" fill="#0971AC"/>
<path transform="translate(934,641)" d="m0 0 3 1-2 14-3 8-1 4h-2l-2 4 1-7 2-4 1-7 2-3z" fill="#08192D"/>
<path transform="translate(603,236)" d="m0 0h21l14 3v1l-27-1-8-1z" fill="#1191BC"/>
<path transform="translate(269,207)" d="m0 0h1l2 6v5h2l2 3 7 1-1 3-6-1-5-3v-2h-2v-3l-3-1 2-7z" fill="#159FC8"/>
<path transform="translate(311,446)" d="m0 0 1 3-5 19-3 7-2 8h-1l1-9 7-26z" fill="#1894C4"/>
<path transform="translate(426,286)" d="m0 0 2 1-9 7-13 10-7 6-2-1 9-8v-2l8-6 7-3z" fill="#0980C0"/>
<path transform="translate(603,900)" d="m0 0h24l-3 3h-7l-9 1h-8v-3z" fill="#050F22"/>
<path transform="translate(826,723)" d="m0 0 2 2-3 5-2 5-7 3-2-1 1-5 5-2v-2h2z" fill="#088FDA"/>
<path transform="translate(297,585)" d="m0 0h1l6 26 2 8-3-1-3-10-4-18z" fill="#149DC8"/>
<path transform="translate(895,735)" d="m0 0 1 2-2 4h-2l-2 5-4 2-3 7-1 2h-2l1-5 1-4 3-3 7-8z" fill="#050F22"/>
<path transform="translate(820,282)" d="m0 0 4 1-1 5-4 5h-2l-2 4-4 3-6 1 2-5 5-1 6-5z" fill="#0B83BE"/>
<path transform="translate(268,678)" d="m0 0h3l13 27h-3l-8-15-5-11z" fill="#0A7FBC"/>
<path transform="translate(667,362)" d="m0 0 5 3 6 7 3 8-4-2-8-10z" fill="#071529"/>
<path transform="translate(870,354)" d="m0 0h1l1 7-3 3-5 2-3-5 7-6z" fill="#F7FAFB"/>
<path transform="translate(228,851)" d="m0 0h1l1 9h7l5-1-4 4-7 1-6-6v-6z" fill="#095E8F"/>
<path transform="translate(869,330)" d="m0 0 7 4 7 6v2l-6-1-1 4-3 3 1-12-2-2h-6v-2z" fill="#31A4C5"/>
<path transform="translate(807,300)" d="m0 0 2 1-12 11-8 7-3-1 7-7 6-5 5-5z" fill="#38B4D1"/>
<path transform="translate(494,818)" d="m0 0 8 1 9 3v2l-4 1-11-2v-2l-7-1v-1z" fill="#0B80BF"/>
<path transform="translate(831,807)" d="m0 0v3l-6 7-7 4-7 6-3-1h2l2-4h2l1-3h3v-2l5-3 1-3 4-2z" fill="#07182C"/>
<path transform="translate(572,177)" d="m0 0h1v5l-24 2h-6l3-2 18-3h8z" fill="#0C3A56"/>
<path transform="translate(242,848)" d="m0 0 4 1 1 6-3 6-6 4h-5l3-2 5-3-1-2 2-4z" fill="#168CBF"/>
<path transform="translate(354,358)" d="m0 0v3l-7 10-6 11-3 2 2-5 4-7 3-8 4-4z" fill="#0A7FBF"/>
<path transform="translate(382,244)" d="m0 0 3 1-8 6-10 8-5 3v-2h2l2-4 3-3 1-3 7-3z" fill="#08192D"/>
<path transform="translate(267,216)" d="m0 0h2v3h2l3 3 7 3-1 3-8-1-5-5z" fill="#1A8DB7"/>
<path transform="translate(847,219)" d="m0 0 5 1-2 4-10 2h-6v-2z" fill="#BFE2E2"/>
<path transform="translate(409,652)" d="m0 0h3l-2 4-10 10-5 1 2-4h2v-2l8-7z" fill="#0F9CCF"/>
<path transform="translate(875,560)" d="m0 0h1v15l-2 14-3 2v-13l2-1 1-3z" fill="#061326"/>
<path transform="translate(719,489)" d="m0 0 2 1-9 10-16 15v-3z" fill="#B5E1E5"/>
<path transform="translate(552,239)" d="m0 0h12v1l-18 2-18 3h-5l4-2 9-2 1-1z" fill="#087CC0"/>
<path transform="translate(843,895)" d="m0 0 3 1-1 8-4 3v-2l-3-1 1-8z" fill="#050F22"/>
<path transform="translate(942,628)" d="m0 0h1l-1 10h-2l-1 10-3 8h-1v-8l1-7 3-1v-6z" fill="#050F22"/>
<path transform="translate(498,614)" d="m0 0h11l10 2 1 3 8 1v1l-10-1-20-5z" fill="#239BC2"/>
<path transform="translate(601,445)" d="m0 0 4 1-4 8-5 4v-3h-2l2-5 4-2z" fill="#087FC3"/>
<path transform="translate(575,413)" d="m0 0h13l10 4v2l5 2v3l-4-3-9-3-2-1v-2l-13-1z" fill="#55B5D3"/>
<path transform="translate(205,340)" d="m0 0h8v7l-6 1-1-3-4-2 1-2 2 1z" fill="#0F81C3"/>
<path transform="translate(235,239)" d="m0 0 5 1 4 6v4l-5-1-4-5z" fill="#158AB6"/>
<path transform="translate(613,191)" d="m0 0 13 1 12 1 1 3-15-1-12-2z" fill="#41B2CB"/>
<path transform="translate(773,848)" d="m0 0h6l-4 4-16 8-4 1 5-5 6-3h2l1-3z" fill="#051023"/>
<path transform="translate(234,753)" d="m0 0 9 1 3 4-2 3h-4v-2h-3l-3-3z" fill="#050D1B"/>
<path transform="translate(950,563)" d="m0 0h1v33l-2 6-2-2 1-12 1-3z" fill="#050F22"/>
<path transform="translate(976,832)" d="m0 0h2l-1 6-6 8-8 7v-3l5-5 6-9z" fill="#07172B"/>
<path transform="translate(940,803)" d="m0 0 5 1 5 6 1 7h-3l-5-10-3-2z" fill="#0A7FC1"/>
<path transform="translate(707,472)" d="m0 0h2l-2 4-17 17-6 4 2-4 10-9 5-5z" fill="#0D87BD"/>
<path transform="translate(544,830)" d="m0 0 12 1 14 2-3 2-15-1-7-1z" fill="#1A8FB9"/>
<path transform="translate(588,590)" d="m0 0v3l-12 12-1-2-3 2h-8v-1l13-4 3-1 2-4z" fill="#0D9BD2"/>
<path transform="translate(765,540)" d="m0 0 2 2 1 6v13l-1 5h-1l-1-9z" fill="#56C219"/>
<path transform="translate(853,984)" d="m0 0 2 1-1 5-5 2-5-1 2-5z" fill="#1B8EB8"/>
<path transform="translate(380,696)" d="m0 0 7 2v5h-2v2l-5-1-1-6z" fill="#030510"/>
<path transform="translate(261,687)" d="m0 0 6 2v6l1 3h-3l-2-3-2 3h-2l-1-3 2-4h2z" fill="#06172C"/>
<path transform="translate(842,390)" d="m0 0 2 3 4 5-2 7-2-3-2-5-6-1-1 3v-4l6-4z" fill="#07182C"/>
<path transform="translate(755,303)" d="m0 0 8 1-1 4-5 3-6-4v-2l4 1z" fill="#07182C"/>
<path transform="translate(380,621)" d="m0 0v3l-7 9-7 4h-2v-2l11-9z" fill="#3EBFDB"/>
<path transform="translate(791,263)" d="m0 0 6 2 7 5 9 5 7 6h-3l-23-15z" fill="#0E8BC0"/>
<path transform="translate(629,174)" d="m0 0 6 1v2l8-1 3 1 1 4-21-4z" fill="#07162A"/>
<path transform="translate(368,680)" d="m0 0 3 1 2 2h2v2l10-5-2 4-5 4-7-1-3-5z" fill="#0C84B6"/>
<path transform="translate(563,419)" d="m0 0 2 1-5 6-2 4-1 6 5-2-4 4h-2l1 6-2 1v-15l6-9z" fill="#2DA9CE"/>
<path transform="translate(429,295)" d="m0 0 4 1-5 3h-3v2l-8 6-4-1h2v-3l3-1 2-3 7-1v-2z" fill="#07162A"/>
<path transform="translate(383,836)" d="m0 0 7 4 16 10-1 2-15-8-2-4-5-2z" fill="#061427"/>
<path transform="translate(367,669)" d="m0 0 4 4 5 7v2h2l1-3 3 1-2 4-5 1-5-9-3-5z" fill="#0E94CB"/>
<path transform="translate(248,667)" d="m0 0 5 3 2 3-1 5h-2l-1 2-3-7z" fill="#041124"/>
<path transform="translate(180,413)" d="m0 0 8 1-1 4-4 2-5-1 1-5z" fill="#178BB6"/>
<path transform="translate(380,259)" d="m0 0h2l-2 5-3 3-5 2-3 1v2l-5 2 6-7z" fill="#AEE0E8"/>
<path transform="translate(916,425)" d="m0 0 4 2 7 14 2 7v5l-2-3-4-12-5-9z" fill="#0E94CB"/>
<path transform="translate(772,255)" d="m0 0 2 4h2l2 5 2 1v2l4 2 4 4-5-2-2-1v-2l-4-2-6-5-1-5z" fill="#050F22"/>
<path transform="translate(920,980)" d="m0 0h17l-2 1-1 5-9-2v-3h-5z" fill="#BFE1E0"/>
<path transform="translate(404,689)" d="m0 0v3l-14 13-1 2h-2v3l-3-1 6-8 5-5 5-3z" fill="#1F97C2"/>
<path transform="translate(347,275)" d="m0 0 4 1-15 14-4 4 1-4 8-9 5-5z" fill="#0C3851"/>
<path transform="translate(765,852)" d="m0 0 3 1-11 6-2 2h-3v2l-7 1 4-4 6-3z" fill="#07182C"/>
<path transform="translate(917,318)" d="m0 0 2 4v13l-3 3-6-1 3-1 1-2 2-7z" fill="#0E86B4"/>
<path transform="translate(777,229)" d="m0 0h5l-3 1-2 4-6 4-3 1 1-5z" fill="#07192E"/>
<path transform="translate(482,613)" d="m0 0v3l-10 10-8 7-4 3 2-4 10-10 8-7z" fill="#BFE2E2"/>
<path transform="translate(296,339)" d="m0 0 2 3-4 2-3 5-4 2v-2h-2l3-6 5-1z" fill="#071629"/>
<path transform="translate(781,243)" d="m0 0 1 3-1 1v7l10 8-2 1-9-7-3-3v-6z" fill="#0E87BF"/>
<path transform="translate(395,823)" d="m0 0 10 5 8 5-2 1-10-4-6-4z" fill="#0C93CE"/>
<path transform="translate(937,491)" d="m0 0 1 2h2l1 11-1 6h-2l-1-9z" fill="#097DC0"/>
<path transform="translate(598,472)" d="m0 0 2 3-11 5-7 1-1-2 10-1 1-5z" fill="#08192D"/>
<path transform="translate(942,453)" d="m0 0 2 3 3 11v14h-1l-3-18z" fill="#061427"/>
<path transform="translate(604,424)" d="m0 0 2 2 1 17-2 2-7 1 6-6z" fill="#179CC7"/>
<path transform="translate(273,982)" d="m0 0h9l1 1v7l-4-4-2-1 1 5h-3l1-5-3-1z" fill="#228EBA"/>
<path transform="translate(602,423)" d="m0 0 2 1 1 6-4 1-10-5 1-2 7 2z" fill="#ADE0E8"/>
<path transform="translate(556,415)" d="m0 0h2l-2 9h-7l-2-2 2-3h4z" fill="#051023"/>
<path transform="translate(235,453)" d="m0 0 4 4-2 4-5 3v-7l1-3z" fill="#051124"/>
<path transform="translate(828,347)" d="m0 0v3l-13 13h-2l-2 4-2-1 6-7h2l2-4 8-7z" fill="#0D86BC"/>
<path transform="translate(767,240)" d="m0 0 2 1-2 13-3 4v-14z" fill="#061A30"/>
<path transform="translate(859,313)" d="m0 0 2 1-3 3-3 5-8 8-3-1 7-6 4-6z" fill="#199BC7"/>
<path transform="translate(500,175)" d="m0 0h4v2l-14 3-4 2h-6l3-2z" fill="#0A3855"/>
<path transform="translate(608,573)" d="m0 0 1 3-15 14-4 2 6-7 8-8z" fill="#0D84B5"/>
<path transform="translate(470,210)" d="m0 0 3 1-24 10-2-1 7-4z" fill="#ACE0E9"/>
<path transform="translate(926,803)" d="m0 0h2l1 5-3 1h-2l-2 4-4 1 2-5 5-5z" fill="#1383C3"/>
<path transform="translate(179,411)" d="m0 0h19v1l-14 1-5 2-1 3h-2l-1-5z" fill="#93D1D9"/>
<path transform="translate(465,276)" d="m0 0m-2 1 2 1-17 9-2-1 2-3 3-1 1-2z" fill="#051124"/>
<path transform="translate(571,876)" d="m0 0h1v12l-6 1 3-10z" fill="#0E86B4"/>
<path transform="translate(861,408)" d="m0 0 2 2 2 9 2 10-2-2-5-13z" fill="#0A80BC"/>
<path transform="translate(412,307)" d="m0 0 1 3-5 5-3 1-2 4-4 3-2-1 4-4h2l2-4 5-5z" fill="#061529"/>
<path transform="translate(900,184)" d="m0 0 3 1-3 4-7 2-4-1 3-3z" fill="#05192F"/>
<path transform="translate(511,822)" d="m0 0 9 2v2h2v2l-10-1-3-3h2z" fill="#1287BA"/>
<path transform="translate(346,704)" d="m0 0 7 6 3 5-2 3-4-5-2-1z" fill="#30ABC9"/>
<path transform="translate(881,471)" d="m0 0h1l3 15v10h-1l-3-14z" fill="#0D89BF"/>
<path transform="translate(230,470)" d="m0 0h3l-1 12-1-2h-2l-1 2 1-10z" fill="#051930"/>
<path transform="translate(461,427)" d="m0 0h1l-1 12h-2l-1-5h-2l2-4z" fill="#050F22"/>
<path transform="translate(278,261)" d="m0 0 1 2h4l-1 5-1 3h-3l-1-9z" fill="#26A4C8"/>
<path transform="translate(487,251)" d="m0 0 4 1-9 5-11 5-3-1 12-6 5-2z" fill="#24A9CC"/>
<path transform="translate(567,190)" d="m0 0h5v13l-2-3-2-6-3-3z" fill="#38AFC9"/>
<path transform="translate(410,681)" d="m0 0h2l-1 4h-2v2h-2v2l-5 3-4 4-2-1 13-13z" fill="#1389BF"/>
<path transform="translate(534,542)" d="m0 0 16 3v2h-9l-6-2z" fill="#49B5CD"/>
<path transform="translate(1017,519)" d="m0 0 2 3 2 4 2 2-8-1-1-5z" fill="#09304B"/>
<path transform="translate(514,257)" d="m0 0h5l-3 3h-2l2 4-5 1-2-5z" fill="#051529"/>
<path transform="translate(244,247)" d="m0 0 1 2 3 1 3 4v2l-5-1-6-5 2-1 2 1z" fill="#1699C7"/>
<path transform="translate(598,871)" d="m0 0h1l1 10 3 1v3h-3l-1 7h-1z" fill="#118AB7"/>
<path transform="translate(919,813)" d="m0 0 2 1-1 2v8l3 5-1 2-4-4-1-3v-9z" fill="#08324C"/>
<path transform="translate(537,602)" d="m0 0 10 2v3l-8-1-6-1v-2z" fill="#087DC0"/>
<path transform="translate(234,539)" d="m0 0h2v2h-2l-2 8-1 12h-1l-1-14 3-6z" fill="#050F22"/>
<path transform="translate(305,469)" d="m0 0 1 4-3 16-3 2 2-11z" fill="#0C85BD"/>
<path transform="translate(306,319)" d="m0 0h3l-2 7-3 5h-2l-2 4-1-3 4-5 2-6z" fill="#061427"/>
<path transform="translate(481,885)" d="m0 0 9 2 11 3 1 2-9-1-12-5z" fill="#050F22"/>
<path transform="translate(893,838)" d="m0 0 4 2 5 7 2 6-6-5z" fill="#08192D"/>
<path transform="translate(435,796)" d="m0 0 7 2 10 5 3 2-8-1-11-6z" fill="#0899DB"/>
<path transform="translate(688,255)" d="m0 0 6 2 10 5-4 1-11-5z" fill="#0E8AC0"/>
<path transform="translate(916,200)" d="m0 0h1v23l-2-4-2-9 2-1z" fill="#34B3D1"/>
<path transform="translate(278,147)" d="m0 0h3l1 5-1 5h-3v-2h2v-2l-4-1 1-4z" fill="#1592BF"/>
<path transform="translate(190,899)" d="m0 0 2 4 2 3h-6l-3-3 1-3z" fill="#0D84BE"/>
<path transform="translate(230,843)" d="m0 0 2 3-2 5-5 1-1 3 1-6 3-5z" fill="#178DB7"/>
<path transform="translate(795,836)" d="m0 0 2 1-11 8-5 3-2-1 9-7z" fill="#050F22"/>
<path transform="translate(235,631)" d="m0 0 4 1 1 8h-4z" fill="#05101E"/>
<path transform="translate(873,418)" d="m0 0 2 1v5h2l1 7h-3v-2h-2z" fill="#079EE1"/>
<path transform="translate(601,190)" d="m0 0h7l4 2-9 1-2 3-1 5h-1v-10z" fill="#28A7C9"/>
<path transform="translate(293,851)" d="m0 0 1 4-3 6-2 1-1-7 3-3z" fill="#20A4C8"/>
<path transform="translate(930,833)" d="m0 0h13v2l-3 1h-9z" fill="#164E67"/>
<path transform="translate(254,672)" d="m0 0 3 1v3l3 1v3l2 1-1 5-2-1-4-8z" fill="#08192D"/>
<path transform="translate(482,610)" d="m0 0h9l14 3v1h-10l-5-2-8-1z" fill="#1288BD"/>
<path transform="translate(245,586)" d="m0 0h1l3 18v5l-4-8z" fill="#1295C3"/>
<path transform="translate(484,588)" d="m0 0h8l14 4v1l-10-1-12-2z" fill="#129AC8"/>
<path transform="translate(887,398)" d="m0 0 8 5 3 5h-3l-1-2-6-3z" fill="#0D93CE"/>
<path transform="translate(807,367)" d="m0 0h2l-2 4-11 11v-3l6-7h2l2-4z" fill="#128ABE"/>
<path transform="translate(406,980)" d="m0 0h17l-1 2-4 1-12-1z" fill="#39AECC"/>
<path transform="translate(181,905)" d="m0 0 4 2v-2h3l1 2h3l-1 4-7-1-3-3z" fill="#07182C"/>
<path transform="translate(358,817)" d="m0 0 5 2v2l8 4v2h3v3l-4-2-8-6v-2l-4-1z" fill="#07182C"/>
<path transform="translate(316,774)" d="m0 0 7 6 3 3-1 4-7-8z" fill="#061226"/>
<path transform="translate(256,646)" d="m0 0h2l4 11 2 7-3-1z" fill="#097FBD"/>
<path transform="translate(554,433)" d="m0 0h1l1 14 1 5-3-1-1-5v-9z" fill="#0A80BB"/>
<path transform="translate(611,417)" d="m0 0 4 4v2l2 1 2 4-1 4-1-2h-2l-2-6-2-4z" fill="#050F22"/>
<path transform="translate(322,238)" d="m0 0h3l-1 4-4 5h-2v-5z" fill="#21A4C8"/>
<path transform="translate(320,206)" d="m0 0 4 1v6l-4 1-1 3v-10z" fill="#17A0C8"/>
<path transform="translate(264,207)" d="m0 0h2l2 13-2 1-3-9z" fill="#2A98BF"/>
<path transform="translate(192,894)" d="m0 0 5 4 1 6-4 1-1-6z" fill="#0F88C0"/>
<path transform="translate(919,829)" d="m0 0 10 2 1 4-7-1z" fill="#197BB3"/>
<path transform="translate(296,560)" d="m0 0 2 4v8l-2 1-2-9z" fill="#0A7FBD"/>
<path transform="translate(938,436)" d="m0 0 2 3 3 13-2 1-3-9z" fill="#061226"/>
<path transform="translate(507,245)" d="m0 0h4v2l-7 2-12 2 2-2z" fill="#31B2D1"/>
<path transform="translate(617,236)" d="m0 0h7l14 3v1l-16-1-5-2z" fill="#2AACCE"/>
<path transform="translate(407,231)" d="m0 0 2 1-15 10-1-2 3-3z" fill="#0B3A55"/>
<path transform="translate(490,194)" d="m0 0 4 1-16 6h-2l1-3z" fill="#0C4563"/>
<path transform="translate(261,653)" d="m0 0 2 3 6 12v5l-3-4-5-12z" fill="#149CC8"/>
<path transform="translate(550,546)" d="m0 0 7 1v2h-14l-1-2z" fill="#49C2DB"/>
<path transform="translate(324,409)" d="m0 0 1 4-4 10-3 1 3-9z" fill="#128DBF"/>
<path transform="translate(832,390)" d="m0 0h2v2l4-1-1 4h-2l-1 2-3-1-1-5z" fill="#AEDFE6"/>
<path transform="translate(507,261)" d="m0 0 4 2v2l-7 1-3-1 3-3z" fill="#050D19"/>
<path transform="translate(624,239)" d="m0 0 18 1v2l4 1-11-1-11-2z" fill="#0F89B6"/>
<path transform="translate(334,680)" d="m0 0 3 3 4 9-4 1-3-9z" fill="#4ABFD9"/>
<path transform="translate(946,607)" d="m0 0h1v11l-2 7h-2l1-7z" fill="#050F22"/>
<path transform="translate(1013,595)" d="m0 0h3v9l-1 2h-2z" fill="#08304D"/>
<path transform="translate(663,517)" d="m0 0 1 3-11 10v-3z" fill="#0C83B7"/>
<path transform="translate(204,326)" d="m0 0h7l-4 2-1 2-8 3 2-4z" fill="#2B98BD"/>
<path transform="translate(357,278)" d="m0 0h4l-2 4-3 2h-3v2l-3-1z" fill="#C1E2E1"/>
<path transform="translate(400,248)" d="m0 0m-1 1m-1 1m-1 1m-2 1h2l-1 3-9 6-2-1 8-7z" fill="#3EBFDB"/>
<path transform="translate(604,245)" d="m0 0 5 2v2l2 2-7 1-1-5z" fill="#08192D"/>
<path transform="translate(259,172)" d="m0 0 3 1v2l-9 5 1-6z" fill="#27A6CA"/>
<path transform="translate(691,997)" d="m0 0 3 1v2h-13l-3-2z" fill="#16A0C8"/>
<path transform="translate(932,848)" d="m0 0 2 1-3 5h-10l-3-2 1-2 10 3 2-4z" fill="#092F46"/>
<path transform="translate(791,449)" d="m0 0 2 1-5 5-7 5-2-1z" fill="#C3E3E1"/>
<path transform="translate(997,260)" d="m0 0 2 1 1 8 2 1h-3-1-3z" fill="#1E6182"/>
<path transform="translate(569,227)" d="m0 0 2 4 1 5h-9l4-4z" fill="#39B5D2"/>
<path transform="translate(312,303)" d="m0 0 3 1-1 5h4v2h-6l-2-4z" fill="#051225"/>
<path transform="translate(816,293)" d="m0 0v3l-5 4-6 1 2-5 7-1z" fill="#1192C1"/>
<path transform="translate(194,905)" d="m0 0m-6 1h6l2 1v3l-6 2-1-3h3v-2l-4 1z" fill="#0B273C"/>
<path transform="translate(759,775)" d="m0 0 2 1-5 5-8 4-2-1 12-8z" fill="#2A9DC1"/>
<path transform="translate(276,693)" d="m0 0h2l6 13-3-1-5-10z" fill="#097EBE"/>
<path transform="translate(467,624)" d="m0 0 3 1-9 9-2-2z" fill="#1A91C0"/>
<path transform="translate(304,330)" d="m0 0v3l-5 8h-2l1-6z" fill="#082E47"/>
<path transform="translate(320,307)" d="m0 0 2 1-7 10-2-2 4-5 1-3z" fill="#0F3852"/>
<path transform="translate(404,299)" d="m0 0 3 1-10 10-2-1 7-8h2z" fill="#1B9BC2"/>
<path transform="translate(467,273)" d="m0 0 4 1-10 5-6 1 1-2h4v-2z" fill="#08192D"/>
<path transform="translate(363,261)" d="m0 0m-2 1 2 1-2 1zm-1 2m-1 1 1 3-8 7v-3l5-5z" fill="#103A53"/>
<path transform="translate(482,256)" d="m0 0h6l-3 2-9 4-3-1h2v-2z" fill="#0A7FBD"/>
<path transform="translate(744,785)" d="m0 0h2l-1 4-7 3-3-1z" fill="#33ABCB"/>
<path transform="translate(303,735)" d="m0 0 3 2v2h2l4 6-2 2-7-10z" fill="#139CC8"/>
<path transform="translate(292,720)" d="m0 0 3 3 4 6-1 2-5-5-2-4z" fill="#0A7FBD"/>
<path transform="translate(1e3 669)" d="m0 0 5 1 3 3v6l-3-2-1-5-4-2z" fill="#08192D"/>
<path transform="translate(415,665)" d="m0 0h5l-1 4h-2l-1 3-3-4z" fill="#08192D"/>
<path transform="translate(389,253)" d="m0 0m-2 1 2 1-7 8-2-1 1-4z" fill="#C0E2E1"/>
<path transform="translate(563,899)" d="m0 0 4 1-5 3-11-1 4-2h7z" fill="#050F22"/>
<path transform="translate(186,892)" d="m0 0h4l1 4-7 1 1-4z" fill="#071D30"/>
<path transform="translate(231,750)" d="m0 0h8l3 1-1 2h-9l-3 1-1-2z" fill="#0F7DB8"/>
<path transform="translate(368,680)" d="m0 0 3 1 2 2h2l1 3-5 1-3-5z" fill="#168BB6"/>
<path transform="translate(322,658)" d="m0 0 3 1 4 8-1 2-2-1v-2l-2-1z" fill="#45C0DB"/>
<path transform="translate(535,599)" d="m0 0 7 1 8 1v1l-11 1-1-3z" fill="#0C9DD6"/>
<path transform="translate(302,535)" d="m0 0h6l-2 2 1 8-3-3z" fill="#0A324E"/>
<path transform="translate(547,331)" d="m0 0 1 2 3 1-4 2-2-1v2l-3-1 2-4z" fill="#050F22"/>
<path transform="translate(412,239)" d="m0 0 2 1-12 8-3-1z" fill="#BCE2E3"/>
<path transform="translate(401,716)" d="m0 0 2 1z" fill="#C3E3E1"/>
<path transform="translate(400,717)" d="m0 0" fill="#C3E3E1"/>
<path transform="translate(403,715)" d="m0 0" fill="#C3E3E1"/>
<path transform="translate(404,714)" d="m0 0" fill="#C3E3E1"/>
<path transform="translate(405,713)" d="m0 0" fill="#C3E3E1"/>
<path transform="translate(204,408)" d="m0 0" fill="#C3E3E1"/>
</svg>
